<svg xmlns="http://www.w3.org/2000/svg" viewBox="0 0 770.59 267.53"><defs><style>.cls-1{fill:#201e1a;}.cls-2{fill:#7a7b7c;}.cls-3{fill:#343433;}.cls-4{fill:#020102;}.cls-5{fill:#cacaca;}.cls-6{fill:#e6e6e6;}.cls-7{fill:#a1a2a3;}.cls-8{fill:#4365a0;}.cls-9{fill:#51657f;}.cls-10{fill:#909194;}.cls-11{fill:#4f4f4d;}.cls-12{fill:none;}</style></defs><g id="Слой_2" data-name="Слой 2"><g id="Слой_1-2" data-name="Слой 1"><polygon class="cls-1" points="394.93 109.52 393.67 111.93 392.89 113.43 393.73 124.48 394.74 132.16 395.2 134.53 402.9 161.55 411.72 179.26 412.7 181.22 425.26 187.02 422.65 172.04 421.89 155.29 416.21 139.39 409.5 118.46 403.01 110.5 394.93 109.52"/><path class="cls-2" d="M27.3,266.11l-16.1-.62L5.57,265l-4.7-5,.71-6.36,18.35-13.51.7,2.28,1.6,5.27.13.45.27.49c.07.14.16.31.25.52a16.72,16.72,0,0,1,1.75,6.78,7,7,0,0,1,0,1l-2,.46-2.12.49L9.3,260.4,7.1,262,9,263.36l18,.35.11.8.07.49Z"/><path class="cls-3" d="M749.92,9.17C739.3.12,726,0,726,0l-212,60.46S474.82,105,416.11,90.11l-15,3.31a3.55,3.55,0,0,0-1.34.61l-.93.69,2.32.38L402.93,97l.19.21,2.61,2.86v0l7.95,10.38.33.72,2.45,5.39,4.33,9.54,35.76-2.06,1.71-.21c7.49-.93,37.76-5.12,50.08-13.41a18.51,18.51,0,0,0,2.4-1.87c11.6-10.83,27-24.66,27-24.66L758.61,26l1.6-.41,1.91-.49S760.56,18.23,749.92,9.17ZM503.59,92.89c7.08-10.26,25.51-16,27.83-16.73L739.64,17.5l6.49-1.94s5.33.32,10.4,5.35Z"/><path class="cls-4" d="M413,156,31.63,265.12,27.15,265l-2.84-.08L5.83,264.4l-4-4.61s.45-5.48.34-5.54c.08,0,.33-.19.72-.43l1,2.43,1.36.48,5-2.17,10.68-4.67,1.81-.79.15,0,12-3.07,3.32-.67,2.67-.53,1.44-1.18,4-3.27-2.1-1.21-4.63.89,1.1-2.22,1.47-1.18,1.33-2.32L406.79,132.75l-1-2.52-10.31,2.92-1.5.42L19.17,239.38.69,253.08,0,260.79l5,5,26.11,1.71L401.66,161.11l2.35-.67,9-2.59ZM12.12,248.12l8.51-5.78.41-.28.31-.22.06,0,16.07-4.22,1.59-.42-1.41,2.29-3,4.88-9.41,2.49-2.24.56-.57.14,0,0-.15.07L5.3,255.05l-.73-1-.46-1C7,251.27,12.12,248.12,12.12,248.12Z"/><path class="cls-4" d="M43.1,256.35l5.33-1.9L49.8,252l-3.53-1L45,250.56l-6.15,1.51-4.31,1.05-9.89,2.73-2.18.61-6.3,1.74-1.26.37-7.75,1.61-1.41,2.69,2.59,1.36,16.4.24,2.36,0,1.47,0,18.47-5,.47-.89Zm-25.67,5.87-9-.18,1.43-.62,5.83-1,.42-.12,1.24-.34L25,257.84l.89-.25,8.61-2.39,7.22,3.85-13.92,3-1.28.28-.16,0Z"/><polygon class="cls-5" points="44.06 252.35 36.96 254.09 36.66 254.16 40.83 256.34 45.34 254.16 45.8 253.27 44.06 252.35"/><polygon class="cls-5" points="39.07 237.16 34.64 244.32 25.23 246.82 22.99 247.38 22.42 247.52 22.38 247.54 21.04 242.06 21.35 241.84 21.41 241.8 39.07 237.16"/><path class="cls-6" d="M22.38,247.54,5.3,255.05l-.73-1-.46-1c2.92-1.79,8-4.94,8-4.94L21,242.06Z"/><polygon class="cls-5" points="41.72 259.05 27.8 262.07 26.36 262.39 25 257.84 25.89 257.59 34.5 255.2 41.72 259.05"/><polygon class="cls-6" points="26.36 262.39 26.36 262.39 17.43 262.22 8.44 262.04 9.87 261.42 15.7 260.44 16.11 260.31 17.36 259.97 25 257.84 26.36 262.39"/><path class="cls-5" d="M412.5,146.5,46.27,250.94,45,250.56l-6.15,1.51-4.31,1.05-9.89,2.73a16.72,16.72,0,0,0-1.75-6.78l12-3.07,3.32-.67,2.67-.53,1.44-1.18,367.8-104Z"/><polygon class="cls-6" points="42.34 243.62 46.36 240.35 44.26 239.14 39.63 240.03 40.73 237.81 42.2 236.63 43.53 234.31 406.79 132.75 410.14 139.65 42.34 243.62"/><polygon class="cls-7" points="412.96 156.02 31.64 265.12 27.15 265 24.31 264.92 24.72 264.47 27.08 264.51 28.55 264.54 47.02 259.54 47.49 258.65 43.1 256.35 48.43 254.46 49.8 251.98 46.27 250.94 412.5 146.5 412.96 156.02"/><polygon class="cls-7" points="412.96 156.02 32.26 266.01 23.17 266.17 24.31 264.92 27.15 265 31.64 265.12 412.96 156.02"/><path class="cls-8" d="M458.27,123.84a29,29,0,0,1-3.21,5,.53.53,0,0,0-.11.15l-.92,1.13c-.12.13-.23.25-.32.37l-.56.65c-.12.14-.24.28-.37.41-.29.33-.57.63-.83.9l-.26.27c-.14.15-.27.29-.41.42-.67.7-1.1,1.1-1.1,1.1L447.42,137l-13.1,3.88-9.23,2.59-5-2.62-1-1.62-3.93-6.43-2.53-8.28-.64-6.8,1.72-.28,2.14-.64.62-.18,25.44-7.49.95-1.81a120.08,120.08,0,0,1,14.05,7.38,5.11,5.11,0,0,1,2.58,4A10.18,10.18,0,0,1,458.27,123.84Z"/><path class="cls-9" d="M442.86,107.27l-.95,1.81-26.06,7.67-1.8-5.46,0-.11-.33-.72-.7-.92,21.69-5.48,3,1S439.75,105.86,442.86,107.27Z"/><path class="cls-8" d="M760.21,47.71l-5.52,1.53L534,112c-10.61,1.41-19.67.82-25.62-1.59a13.49,13.49,0,0,1-5.93-4.25,7.6,7.6,0,0,1-1-1.74,9.36,9.36,0,0,1-.51-4.83,14.79,14.79,0,0,1,2.68-6.72l252.94-72a24.26,24.26,0,0,1,3.68,4.72.53.53,0,0,0,.06.1c.46.76.89,1.59,1.31,2.47A20.3,20.3,0,0,1,760.21,47.71Z"/><polygon class="cls-10" points="516.23 63.38 500.61 79.29 522.36 69.78 737.23 7.01 726.38 2.77 516.23 63.38"/><polygon class="cls-3" points="764.83 73.79 515.27 146.86 515.75 137.42 766.22 64.29 764.83 73.79"/><polygon class="cls-11" points="764.84 75.47 756.57 91.28 550.67 150.8 520.78 146.58 764.84 75.47"/><polygon class="cls-7" points="423.29 95.36 407.96 99.46 405.73 100.06 402.92 97 402.93 96.99 405.15 96.51 416.64 93.99 423.29 95.36"/><path class="cls-12" d="M502.42,106.18l-42.93,12.47a10.18,10.18,0,0,1-1.22,5.19c7.49-.93,37.76-5.12,50.08-13.41A13.49,13.49,0,0,1,502.42,106.18Z"/><path class="cls-4" d="M762.12,25.14l-1.85.59c.46.76.89,1.59,1.31,2.47a20.3,20.3,0,0,1-1.37,19.51l-5.52,1.53L534,112c-10.61,1.41-19.67.82-25.62-1.59-12.32,8.29-42.59,12.48-50.08,13.41a29,29,0,0,1-3.21,5,.53.53,0,0,0-.11.15l-.92,1.13c-.12.13-.23.25-.32.37l-.56.65c-.12.14-.24.28-.37.41-.28.32-.56.62-.83.9l-.26.27c-.14.15-.27.29-.41.42-.67.7-1.1,1.1-1.1,1.1L447.42,137l-13.1,3.88-9.23,2.59-5-2.62-1-1.62-2.78-1.45-2.06.58-.07,0,5.42,22.08s2.08,13.64,1.42,18.09-1.86,4.58-1.86,4.58l-6.25-2.89L404,160.44l-.29-.65-2.28.87.22.45,10.2,20.65,16.73,8.75,18-4.26,1-1.85c1.7-3.68,10.79-11.47,10.79-11.47s8.39-8.63,30.3-15.16S551,156.51,551,156.51L759.6,94.56a15.91,15.91,0,0,0,2.84-3.68C781,57.8,762.12,25.14,762.12,25.14ZM515.75,137.42,766.22,64.29l-1.39,9.5L515.27,146.86ZM756.57,91.28,550.68,150.8l-29.9-4.22L764.84,75.47Z"/><path class="cls-12" d="M459.49,118.65c.61,6.41-9.31,15.64-9.31,15.64L447.42,137l-13.1,3.88-9.23,2.59-5-2.62-1-1.62,2.43,1.27,30-19.49Z"/><polygon class="cls-12" points="764.83 73.79 515.27 146.86 515.75 137.42 766.22 64.29 764.83 73.79"/><polygon class="cls-12" points="764.84 75.47 756.57 91.28 550.67 150.8 520.78 146.58 764.84 75.47"/><polygon class="cls-3" points="463.59 152.37 423.96 162.69 423.86 171.61 463.38 160.32 463.59 152.37"/><polygon class="cls-11" points="461.27 162.33 425.65 172.55 432.77 182.36 444.28 179.7 461.27 162.33"/><polygon class="cls-9" points="415.85 116.75 413.71 117.39 411.99 117.67 411.95 117.27 412.18 112.25 412.76 109.59 412.99 109.54 413.69 110.46 414.02 111.18 414.05 111.29 415.85 116.75"/><path class="cls-3" d="M395.1,111.5a1.61,1.61,0,0,0-1.05.67,3.22,3.22,0,0,0-.56,2.09l.39,4.55.63,7,1,7.39-1.5.42-.13-.61-1.79-23.19a3.21,3.21,0,0,1,.28-1.56l5.83-12.77a1.6,1.6,0,0,1,2.2-.75l.54.28a1.54,1.54,0,0,1,.43.33L402.93,97h0l2.81,3.06v0l7.25,9.46-.23,0-.55,2.52a1.45,1.45,0,0,0,0,.28l-.21,4.88,0,.4.63,6.64a1.65,1.65,0,0,0,.06.32l2.42,7.93a1.73,1.73,0,0,0,.16.37l3.83,6.25L416.88,138a1.61,1.61,0,0,0-1.18-.12h0a1.61,1.61,0,0,1-1.95-1l-1.44-4.14-3.5-9.57-.06-.13-2.6-5.46a1.75,1.75,0,0,0-.16-.27l-3.18-4.26a1.7,1.7,0,0,0-.54-.46l-1.7-.89-.34-.11a9,9,0,0,0-4.11-.37l-1,.28"/><polygon class="cls-2" points="405.73 100.06 402.34 104.8 401.29 104.62 401.13 97.65 402.92 96.99 405.73 100.06 405.73 100.06"/><polygon class="cls-12" points="406.36 99.22 405.74 100.08 405.73 100.06 403.12 97.2 403.46 97.12 406.36 99.22"/><path class="cls-9" d="M756.53,20.91l-252.94,72c7.08-10.26,25.51-16,27.83-16.73L739.64,17.5l6.49-1.94S751.46,15.88,756.53,20.91Z"/></g></g></svg>