<?xml version="1.0" ?><!DOCTYPE svg  PUBLIC '-//W3C//DTD SVG 1.1//EN'  'http://www.w3.org/Graphics/SVG/1.1/DTD/svg11.dtd'><svg enable-background="new 0 0 30 30" height="30px" id="Capa_1" version="1.1" viewBox="0 0 30 30" width="30px" xml:space="preserve" xmlns="http://www.w3.org/2000/svg" xmlns:xlink="http://www.w3.org/1999/xlink"><path d="M28.7,16.7c-0.5-1.1-1.5-1.7-2.6-1.7c-0.8,0-1.6,0.3-2.3,1c-1.4,1.3-2.4,2.2-2.8,2.4  c-0.3,0.2-0.9,0.1-1.2-0.3c-0.2-0.3-0.3-0.7-0.2-1.3c0.1-0.4,1.6-9.9,1.8-11.3c0.1-0.7-0.1-1.4-0.5-1.9c-0.5-0.5-1.1-0.8-1.8-0.8  c-1,0-2.2,0.7-2.5,2.1c-0.1,0.8-0.5,3.3-0.8,5.2c0-2.5,0-6.1,0-7.5c0-0.6-0.2-1.2-0.6-1.6c-0.5-0.5-1.1-0.7-1.8-0.7  c-1.2,0-2.4,0.8-2.5,2.5c0,1.7,0,4.2,0,6.3c-0.3-1.7-0.6-3.6-0.7-4.3c-0.1-1.2-1.1-2-2.4-2C7,2.7,6.2,3,5.8,3.6  C5.5,3.9,5.1,4.6,5.3,5.7c0.3,1.9,0.7,4.2,1.1,6C6.1,11.1,6,10.6,5.8,10C5.6,8.9,4.6,8.2,3.5,8.2c-0.8,0-1.5,0.4-2,1  C1,9.8,0.9,10.7,1.2,11.6c0.8,2.9,1.8,6.6,3.1,10.9l0.1,0.3c1.3,4.5,4.5,7,9,7c3,0,5.4-1.5,6.9-2.8c1-0.8,6.6-5.8,7.9-7.2  C29,18.9,29.2,17.7,28.7,16.7z M27.1,18.8c-1.2,1.3-6.4,5.9-7.8,7.1c-1.1,0.9-3.3,2.5-5.9,2.5c-3.9,0-6.5-2-7.5-5.9l-0.1-0.3  c-1.3-4.4-2.3-8-3.1-10.9c-0.1-0.3-0.1-0.8,0.1-1.1c0.2-0.2,0.5-0.4,0.8-0.4c0.2,0,0.7,0.1,0.9,0.7c0.3,1,0.5,1.8,1.1,3.5l0.4,1.3  c0.2,0.8,0.8,1.2,1.4,1.2c0.3,0,0.6-0.1,0.9-0.4c0.3-0.3,0.4-0.8,0.3-1.3c0-0.2-0.2-1-0.4-2.1c-0.4-2-0.9-4.9-1.3-7.3  C6.7,5,6.7,4.7,6.9,4.5c0.2-0.2,0.5-0.3,0.8-0.3c0.1,0,0.8,0,0.9,0.7c0.2,1.3,0.9,5.7,1.2,7.4l0.1,0.4c0.2,0.9,0.8,1.2,1.2,1.2  c0.7,0,1.2-0.5,1.2-1.2v-0.3c0-1.3,0-6.7,0-9.7c0-0.9,0.7-1,1-1c0.3,0,0.6,0.1,0.8,0.3c0.1,0.1,0.2,0.3,0.2,0.5c0,2,0,8.1,0,9.8  c0,1.1,0.7,1.6,1.3,1.6c0.6,0,1.2-0.5,1.3-1.1c0-0.1,0.1-0.7,0.2-1.5c0.3-1.9,0.8-5.2,0.9-6.2c0.1-0.8,0.8-0.9,1-0.9  c0.3,0,0.6,0.1,0.7,0.3c0.2,0.2,0.2,0.4,0.2,0.7c-0.2,1.4-1.7,11.2-1.7,11.3c-0.2,1.3,0.2,2.1,0.6,2.5c0.8,0.9,2.2,1.2,3.2,0.6  c0.4-0.3,1.2-0.9,3-2.6c1-0.9,2.1-0.7,2.5,0.2C27.5,17.5,27.6,18.2,27.1,18.8z" fill="#262324"/></svg>