<svg xmlns="http://www.w3.org/2000/svg" viewBox="0 0 145.57 102.54"><g id="Слой_2" data-name="Слой 2"><g id="Слой_1-2" data-name="Слой 1"><path d="M119.74,102.54c-6.24-.89-12.25-3.72-24.26-9.39-8-3.8-66.77-31.5-71.22-57.91a18.56,18.56,0,0,0-3.13-8.61C14.45,17.36-.07,18.65,0,16.46.05,15,6.25,12.85,11.74,14.11c2.23.51,3.89,1.49,7.87,2.05a16.94,16.94,0,0,0,4.65.3c4.24-.58,5.72-4.08,10.18-7a65.57,65.57,0,0,1,9.39-4.69C55.38-.15,79.6-1.78,105.65,2.37c10.65,1.69,16,2.54,22.85,4.92,5.38,1.87,9.48,3.84,17.07,5.25"/></g></g></svg>