<svg xmlns="http://www.w3.org/2000/svg" viewBox="0 0 234.38 261.63"><g id="Слой_2" data-name="Слой 2"><g id="Слой_1-2" data-name="Слой 1"><path d="M203.61,44.26a102.79,102.79,0,0,0-27.32,37.13c-4.07,9-6.1,13.51-6.26,19.57-.62,24.91,28.4,42.32,26.61,44.61-2.22,2.82-44.77-26.67-45.39-25.83-.75,1,60.18,46.16,57.13,50.87-1.51,2.32-17.57-6.86-19.56-3.91-3.13,4.61,32.16,33.13,30.52,35.21-1.28,1.62-22.23-13.38-23.48-11.74-.49.64,2.41,3.3,12.9,15.23,3.35,3.82,5.42,6.24,7.82,9.39,3.83,5,8.12,10.66,7.45,11.38-2.44,2.66-73.69-58.66-74.34-57.91-.48.56,36.37,35.63,70,73.14,5.92,6.6,16.13,18.15,14.5,20-.51.57-2.6.71-13.45-6.42-37-24.33-99.2-82.78-127.42-107.84-22.35-19.85-43-41.57-65-61.83C21.67,79.12,5.76,64.53,1.77,43.83c-1.46-7.63-2.88-15-.48-24C4,9.9,9.73,4.16,7.25,0"/></g></g></svg>