<svg xmlns="http://www.w3.org/2000/svg" viewBox="0 0 253.01 280.34"><g id="Слой_2" data-name="Слой 2"><g id="Слой_1-2" data-name="Слой 1"><path d="M39.46,280.34a26.28,26.28,0,0,0-8.82-2.67c-8.57-1.26-18.59-5.91-24.26-12.52A26.86,26.86,0,0,1,.12,251.06c-1-9.54,4.39-16.69,12.52-28.17,20.54-29,11.66-19.45,21.92-32.09,16.93-20.85,30.74-34,48.52-51.65,33.39-33.1,28.57-29.95,46.17-47,29.47-28.47,24.42-20.74,49.08-44.87,0,0,14.12-13.82,48-38.87,5.24-3.87,14.39-10.52,18-7.82,2.75,2.07,1.3,8.9,0,12.52-2.09,5.77-5.6,8.34-11,14.09-3.36,3.6-1.86,2.46-11.74,14.87C213.42,52.37,205.45,61.88,195,74.19c-20.5,24.15-32.53,37.94-32.09,38.35s18.2-16.4,37.57-38.35c27.8-31.5,43.9-56.29,50.09-53.21,2,1,2.3,4.51,2.41,5.61.45,4.9-2.91,8.29-9.46,17.08-5.22,7-1.46,2.68-6.79,9.55-16,20.6-67.07,81.83-65.21,83.58s53.21-49.29,53.22-49.3c4.39,1.4,5.76,3.33,6.26,4.69,1.88,5.16-5,12.74-15.19,24-.32.35-1,1.08-2.77,3-14.07,15-20.9,20.91-20.39,21.56.91,1.14,23.16-16.89,25.05-14.87,2.81,3-42.43,48.2-39.92,50.87,1.91,2,29.83-22,31.31-20.35,1.82,2-39,40.21-36,43.82,2,2.43,22.2-12.72,24.26-10.17,1.54,1.9-7.86,12.59-16.44,20.35-9.12,8.25-11.76,8.15-17.21,13.3-9.13,8.63-16.38,22.72-16.44,37.57a48.62,48.62,0,0,0,1.63,12.07"/></g></g></svg>