<svg xmlns="http://www.w3.org/2000/svg" viewBox="0 0 541.05 189.39"><g id="Слой_2" data-name="Слой 2"><g id="Слой_1-2" data-name="Слой 1"><path d="M492.53,173.73c-32.63-5.37-41.12-4.48-73.57-8.61-34.48-4.39-22.46-5.08-82.17-14.87A306.71,306.71,0,0,1,278.09,133c-11.09-4.5-22.72-10-25-20.35-1.6-7.13,1.84-13.9,2.35-14.87,2.28-4.35,5.83-7.65,14.87-12.52,14.41-7.78,24.26-10.18,24.26-10.18,37-9,73.5-20,110.34-29.74C459.47,31,450,30.08,473.74,25c8.59-1.83,13.75-4.17,29-10.18C531.52,3.47,537.92,1.75,537.64.61S532-.83,500.12,4.73c-32.3,5.62-57.79,12.53-99.83,21.71-78.65,17.17-86,18.92-105,21.29-39.47,4.93-89.49,7.55-110.35,7.83-6.2.08-14.26,0-26.61.78-13.37.84-18,1.8-28.18,1.81a166.93,166.93,0,0,1-24.25-1.81c-5-.7-22.91-3.4-55.57-16.43C26.81,30.51,15,25.81,7.07,18.18A98.79,98.79,0,0,1,0,10.82C15,56.48,46.47,96.62,46.51,146L48,144.78c9-7.19,22.12-17.65,40.7-18.79,8.32-.51,14.49,1.05,25.83,3.92a192.23,192.23,0,0,1,36.78,13.3c7.94,3.87,25,10.86,135.39,27.39,44.73,6.7,67.1,10.05,98.68,13.34a1012,1012,0,0,0,103.23,5.44c11.81,0,52.13.1,52.44-3.91C541.33,181.77,507.38,176.18,492.53,173.73Z"/></g></g></svg>