<svg xmlns="http://www.w3.org/2000/svg" viewBox="0 0 157 662"><defs><style>.cls-1{fill:#c69c6d;}.cls-2{fill:#8c6239;}</style></defs><g id="Слой_2" data-name="Слой 2"><g id="Слой_1-2" data-name="Слой 1"><polygon class="cls-1" points="156 0 0 81 1 662 157 545 156 0"/><polygon class="cls-2" points="143 35 16 102 17 631 144 538 143 35"/><polygon class="cls-1" points="132 59 28 113 28 223 132 169 132 59"/><polygon class="cls-2" points="124 76 37 122 37 208 124 163 124 76"/><polygon class="cls-1" points="29 335 133 274 130 528 29 601.1 29 335"/><polygon class="cls-2" points="38.33 583 124 522 126 291 39 341 38.33 583"/></g></g></svg>