<svg xmlns="http://www.w3.org/2000/svg" viewBox="0 0 3346.08 1364.53"><defs><style>.cls-1{fill:#3b2f26;}.cls-2{fill:none;stroke:#000;stroke-miterlimit:13.33;stroke-width:2.1px;}.cls-3{fill:#885f3f;}.cls-4{fill:#593e29;}.cls-5{fill:#3d3127;}.cls-6{fill:#5d4b3c;}</style></defs><g id="Слой_2" data-name="Слой 2"><g id="svg2"><g id="g4512"><path id="path4514" class="cls-1" d="M11.57,7.11,58.49,0H3346.08l-13.55,7.11Z"/></g><g id="g31516"><path id="path31518" class="cls-2" d="M2556,744.32V69.85"/></g><g id="g4380"><path id="path4382" class="cls-3" d="M2522.88,1364.53H2391.29V71.78h131.59Z"/></g><g id="g4516"><path id="path4518" class="cls-4" d="M167.69,1343.81,122,1364.53V71.78h45.7v1272Z"/></g><g id="g4520"><path id="path4522" class="cls-3" d="M122,71.78V1364.53H0V71.78Z"/></g><g id="g4524"><path id="path4526" class="cls-4" d="M961,1343.81l-37.64,20.72V71.78H961v1272Z"/></g><g id="g4528"><path id="path4530" class="cls-3" d="M923.4,71.78V1364.53H791.81V71.78Z"/></g><g id="g4532"><path id="path4534" class="cls-4" d="M1751.09,1343.81l-29.61,20.72V71.78h29.61v1272Z"/></g><g id="g4536"><path id="path4538" class="cls-3" d="M1721.48,71.78V1364.53h-131.6V71.78Z"/></g><g id="g4540"><path id="path4542" class="cls-5" d="M3321,9l13.55-7.11V64.05L3321,71.78Z"/></g><g id="g4544"><path id="path4546" class="cls-6" d="M2522.88,71.78H0V9H3321V71.78H2522.88Z"/></g><g id="g4548"><path id="path4550" class="cls-3" d="M3189.36,71.78H3321V1364.53h-131.6V71.78Z"/></g><g id="g4552"><path id="path4554" class="cls-4" d="M3321,71.78l13.55-7.73V1343.81L3321,1364.53Z"/></g></g></g></svg>