<svg xmlns="http://www.w3.org/2000/svg" viewBox="0 0 156.05 155"><defs><style>.cls-1{fill:#f4c78e;}.cls-2{fill:#b75844;}.cls-2,.cls-3,.cls-5,.cls-8{stroke:#000;}.cls-2,.cls-3,.cls-5,.cls-7,.cls-8{stroke-miterlimit:10;}.cls-3{fill:#f2c58e;}.cls-4{fill:#df925a;}.cls-6,.cls-8{fill:#fff;}.cls-7{fill:none;stroke:#683d0e;}.cls-9{fill:#d8a980;}</style></defs><g id="Слой_2" data-name="Слой 2"><g id="Слой_1-2" data-name="Слой 1"><path class="cls-1" d="M20.53,101s17,39.48,70.75,47.24c0,0,21.78,4.76,28.78-33.24l.5-51S30-1,20.53,101Z"/><path class="cls-2" d="M155.57,25s-1-3.5-27,8.5c0,0,9-8-1-8,0,0-10,3-16,1s-31-14-31-14l-16-1s12-3,16-7h-30s8-4-1-4a78.9,78.9,0,0,0-17,2s-25,12-14.5,30.5l21,26s6-6,14-5,41,10,56,10,47-10,46-39"/><path class="cls-2" d="M6.56,80.5l-6-22s-2-26,17.5-25.5l21,26,.5,5.5,1,1V79l-2,2.5-1,5-1,5-5,11-3-4v-6s0-8-3-11C21.43,77.38,11.56,73.5,6.56,80.5Z"/><path class="cls-3" d="M14.33,76.52S6.06,76,6.06,85s2,10,2,10,2,6,12,6,8.5-7,8.5-7S31.1,78.53,14.33,76.52Z"/><circle class="cls-4" cx="16.06" cy="88" r="5"/><polygon class="cls-5" points="58.06 68 58.06 73.97 80.06 82 80.06 78 58.06 68"/><polyline points="101.06 76 119.06 67 119.06 73.48 101.06 80"/><ellipse cx="73.06" cy="89" rx="5" ry="8"/><ellipse cx="104.06" cy="89" rx="5" ry="8"/><circle class="cls-6" cx="73.06" cy="83" r="1"/><circle class="cls-6" cx="104.06" cy="83" r="1"/><path class="cls-7" d="M89.06,98s10,16,0,13"/><path class="cls-8" d="M75.06,118s1,12,10,13,12-6,12-6S81.06,125,75.06,118Z"/><path class="cls-1" d="M76.44,151.17v-6.08l-19.32-7.73L56.06,153s10.38,4.5,21,0"/><path class="cls-9" d="M76.6,148.41v-3.34l-19.48-7.71L57.06,142S72.13,148.82,76.6,148.41Z"/></g></g></svg>