<svg xmlns="http://www.w3.org/2000/svg" viewBox="0 0 15.37 52.42"><defs><style>.cls-1{fill:#4e6480;}.cls-2{fill:#7693b9;}</style></defs><g id="Слой_2" data-name="Слой 2"><g id="Слой_1-2" data-name="Слой 1"><polygon class="cls-1" points="9.7 0.85 9.14 1.92 8.89 2.54 8.58 2.95 8.49 3.34 8.2 3.84 7.86 4.79 7.24 6.55 6.05 10.14 5.6 11.81 5.33 13.05 5.28 13.67 4.95 15.24 4.68 16.16 4.5 17.42 4.12 21.52 3.69 26.63 3.22 31.85 2.84 35.35 2.31 39.59 1.85 43.73 1.58 45.99 0.98 49.19 0.69 50.89 0.49 52.42 0 52.42 0.06 52 0.14 51.11 0.45 49.47 0.81 47.32 1.29 44.01 1.87 39.1 2.45 34.26 3.36 24.7 3.8 19.25 4.3 15.67 4.73 13.82 5.1 11.5 6.17 8.09 7.09 5.76 7.36 4.63 8.06 2.29 8.62 1.17 9.62 0 9.65 0.37 9.7 0.85"/><polygon class="cls-1" points="15.37 51.3 15.2 52.42 14.65 52.42 14.8 51.21 14.47 47.56 14.3 44.44 14.21 41.42 14.21 39.54 13.82 35.8 13.35 32.86 13.13 31.75 13.24 31.29 13.01 28.63 12.58 24.88 11.97 20.42 11.77 18.94 11.5 15.64 11.39 14.84 11.39 14.2 11.27 13.52 11.17 12.23 11.17 11.69 10.93 10.74 10.84 10.06 10.93 9.4 10.78 8.86 10.55 8.56 10.6 8.18 10.78 7.99 10.84 8.42 10.9 8.54 10.93 8.6 11.21 9.45 11.21 10.48 11.49 11.47 11.6 12.13 11.69 12.65 11.85 13.04 11.87 13.92 11.89 14.97 12.15 16.35 12.2 17.91 12.41 19.24 12.76 21.48 12.96 24.02 13.42 26.6 13.53 29.25 13.79 31.26 13.7 31.74 14.3 34.61 14.54 36.56 14.76 38.58 14.73 40.42 14.8 42.74 14.97 45.34 15.04 47.66 15.24 47.21 15.13 49.98 15.37 51.3"/><polygon class="cls-2" points="14.8 51.21 14.65 52.42 0.49 52.42 0.69 50.89 0.98 49.19 1.58 45.99 1.85 43.73 2.31 39.59 2.84 35.35 3.22 31.85 3.69 26.63 4.12 21.52 4.5 17.42 4.68 16.16 4.95 15.24 5.28 13.67 5.33 13.05 5.6 11.81 6.05 10.14 7.24 6.55 7.86 4.79 8.2 3.84 8.49 3.34 8.58 2.95 8.89 2.54 9.14 1.92 9.7 0.85 10.78 7.99 10.6 8.18 10.55 8.56 10.78 8.86 10.93 9.4 10.84 10.06 10.93 10.74 11.17 11.69 11.17 12.23 11.27 13.52 11.39 14.2 11.39 14.84 11.5 15.64 11.77 18.94 11.97 20.42 12.58 24.88 13.01 28.63 13.24 31.29 13.13 31.75 13.35 32.86 13.82 35.8 14.21 39.54 14.21 41.42 14.3 44.44 14.47 47.56 14.8 51.21"/><polygon class="cls-2" points="14.8 51.21 14.65 52.42 0.49 52.42 0.69 50.89 0.98 49.19 1.58 45.99 1.85 43.73 2.31 39.59 2.84 35.35 3.22 31.85 3.69 26.63 4.12 21.52 4.5 17.42 4.68 16.16 4.95 15.24 5.28 13.67 5.33 13.05 5.6 11.81 6.05 10.14 7.24 6.55 7.86 4.79 8.2 3.84 8.49 3.34 8.58 2.95 8.89 2.54 9.14 1.92 9.7 0.85 10.78 7.99 10.6 8.18 10.55 8.56 10.78 8.86 10.93 9.4 10.84 10.06 10.93 10.74 11.17 11.69 11.17 12.23 11.27 13.52 11.39 14.2 11.39 14.84 11.5 15.64 11.77 18.94 11.97 20.42 12.58 24.88 13.01 28.63 13.24 31.29 13.13 31.75 13.35 32.86 13.82 35.8 14.21 39.54 14.21 41.42 14.3 44.44 14.47 47.56 14.8 51.21"/></g></g></svg>