<svg xmlns="http://www.w3.org/2000/svg" viewBox="0 0 42.79 111.21"><defs><style>.cls-1{fill:#70b631;stroke:#000;stroke-miterlimit:10;}.cls-2{fill:#f6ac9f;}</style></defs><g id="Слой_2" data-name="Слой 2"><g id="Слой_1-2" data-name="Слой 1"><path class="cls-1" d="M4.4,66.46C3.16,74.24,2,77.37,2,77.37l19,9c3-4,3-12,3-12"/><path class="cls-1" d="M24,74.37c13-17,18.31-52.15,18.31-52.15S21-4.63,22,1.37s-16,52-16,52c-.46,5.35-1,9.67-1.55,13.09Z"/><path class="cls-2" d="M3,77.87S-2,97.37,1,102.37a28,28,0,0,0,5,8c3,3,3-3,3-3s-3-7-2-11,4,0,4,0,1,6,4,6,2-8,2-8-.34-9.53,1.33-9.26S3,77.87,3,77.87Z"/></g></g></svg>