<svg xmlns="http://www.w3.org/2000/svg" viewBox="0 0 28.28 73.04"><defs><style>.cls-1{fill:#7c6c6b;}.cls-2{fill:#5e4e4d;}.cls-3{fill:#6b5f5e;}.cls-4{fill:#706362;}</style></defs><g id="Слой_2" data-name="Слой 2"><g id="Слой_1-2" data-name="Слой 1"><polygon class="cls-1" points="2.12 0 26.57 0 24.65 68.13 11.89 71.19 1.69 65.9 2.12 0"/><polygon class="cls-2" points="28.28 0 26.36 69.48 11.66 73.04 0 66.94 0.43 0 2.12 0 1.69 65.9 4.25 67.23 11.89 71.19 22.02 68.74 24.24 68.22 24.65 68.13 26.57 0 28.28 0"/><path class="cls-3" d="M13.11,0l.19,5.42.06,1.2.05,1.63.27,4.86.21,3.74.29,3.82.13.65v.45l.16.71.15,1.18.23,3.45s.16,1,.46,0a9.26,9.26,0,0,0,.37-1.61l.29-2,.23-1.15.31-1.77.2-1.79.1-2.27V13.1l0-3.72L16.63,4.6,16.49,0Z"/><path class="cls-2" d="M13.75,13.62l-.09,2.8L13.6,21.5l0,1.83v4.83l0,4.8,0,2.58s.06.23.14,0L13.79,33l.09-4.12L14,25.08l.12-3.67V19.58Z"/><path class="cls-3" d="M26.57,0,25.7,32.51,24.88,61.1l-.06.37-.34,1.7-.32,1.19c-.56,1.34-1.11,0-1.11,0l-.19-1.65-.08-2.19-.19-.47,0-.33v-.87l0-1.52,0-.9-.12-.6L22,52.67l0-1.37,0-1.52,0-.41,0-.84.07-1.14L22.08,45l0-.43,0-.74L22,43.24v-.92l0-1.26,0-.72.06-.75.2-2.62,0-1,.06-.78V26.32l0-4.06,0-2.94,0-2.9.08-3,.13-3,.23-3.84.21-3.81.12-1.2L23.31,1l.11-.44,0-.56Z"/><path class="cls-2" d="M10.84,67.61l-.18-.23-.39-.23-.47-.31-.49-.18-.47-.23-.65-.3-.64-.3L7,65.54l-.61-.25-2.65-.8s-.12,0,0,.11a3.66,3.66,0,0,0,.53.25l1.13.48,1.23.55.87.42.78.39.4.24.74.26.65.35.36.27Z"/><path class="cls-2" d="M22.77,65.81l.06-.13a.87.87,0,0,0,.62-.38h1.12s.32.15,0,.37l-.91,0s-.29.32-.41.33S22.77,65.81,22.77,65.81Z"/><path class="cls-4" d="M24.24,68.22,22,68.74,11.89,71.19l-7.64-4a.91.91,0,0,1,.15-.61,1.14,1.14,0,0,1,.78-.34,3.2,3.2,0,0,1,1.21.09,2.49,2.49,0,0,1,.89.61,1.39,1.39,0,0,1,.7.18,1.52,1.52,0,0,1,.62.63,1.71,1.71,0,0,1,.21.76,15.32,15.32,0,0,1,2.2-1,29,29,0,0,1,3.13-.93c.49-.06,1.52-.22,1.52-.22a13.56,13.56,0,0,1,2.08-.47c.86-.08,1.58-.17,1.58-.17l1.05-.15,1.59.05.95.16A2.17,2.17,0,0,1,24.24,68.22Z"/></g></g></svg>