<svg xmlns="http://www.w3.org/2000/svg" viewBox="0 0 54.59 37.33"><defs><style>.cls-1{fill:#adb6bf;}.cls-2{fill:#4d5761;}.cls-3{fill:#ced7e1;}.cls-11,.cls-4,.cls-6,.cls-7,.cls-8,.cls-9{fill:none;stroke-miterlimit:10;}.cls-4{stroke:#4d5761;}.cls-5{fill:#899db2;}.cls-6,.cls-8{stroke:#717e90;}.cls-11,.cls-7,.cls-9{stroke:#333b43;}.cls-11,.cls-8,.cls-9{stroke-linecap:round;}.cls-9{stroke-width:0.35px;}.cls-10{fill:#717e90;}.cls-12{fill:#333b43;}.cls-13{fill:#e0e7ef;}.cls-14{fill:#b6b9bc;}</style></defs><g id="Слой_2" data-name="Слой 2"><g id="Слой_1-2" data-name="Слой 1"><path class="cls-1" d="M45.4,33.4c-.95.15-1.9.29-2.86.35a19.9,19.9,0,0,1-2.89-.07c-.64-.06-.64.94,0,1a18.89,18.89,0,0,0,3,.06c1-.07,2-.22,3-.37a.51.51,0,0,0,.35-.62.52.52,0,0,0-.61-.35Z"/><path class="cls-2" d="M43.34,33.82l1.33-.06a9.73,9.73,0,0,1,1.33,0c.45,0,.36-.09.36-.09l.58-.13.48-.16.52-.07.34-.06h1.1l.53-.14.35-.17.5-.18h1L52,32.6h.16l0-.14,0,0,0,.12,0,.06-.18,0L51.8,33l-.95.07-1,.35L48,33.54l-.58.06-1.1.32-1.07,0Z"/><path class="cls-3" d="M1.15,21.26l-.27,2.2L.64,25.33l.17,2.23L1,28.87l.76,1,1.9,1.2.85.47L6,32l2.08.66L9.69,33,12,33.2l11,.06,6.65,1.68,3,.77s3.13.47,3.13.51,2.88.29,2.88.29l3,.07L46,36.5l4-.79,2.63-1.27,1.09-1.24.12-1.4,0-2.51.12-2.2-.08-1.25-.43.1-1,1-1.23.91-5.77,1.59-14.27-.18-9.83-1.73-8-.48L7.66,25.25l-4.3-3L2,20.76l-.39-.62Z"/><path class="cls-1" d="M1.63,23l0,.15a.43.43,0,0,1,0,.09c0,.1,0,.05,0,0s0,0,0,.07a.74.74,0,0,0,0,.33.68.68,0,0,0,.1.21s.05.07,0,0,0,0,0,0,.06.23.1.34a8.65,8.65,0,0,0,.67,1.28c.23.43.82,1.16,1.36.74a.6.6,0,0,0,.21-.6A1.17,1.17,0,0,0,4,25.34c-.06-.11-.11-.22-.16-.33a1,1,0,0,1-.07-.15s0,.05,0,0a.42.42,0,0,1,0-.1A2.91,2.91,0,0,0,3.39,24a3.75,3.75,0,0,0-.67-.65.5.5,0,0,0-.68.18.52.52,0,0,0,.18.69l.06.05.09.09a1.89,1.89,0,0,1,.2.2s0,0,0,.05,0-.05,0,0,.06.19.09.28.16.41.25.61.08.17.13.25a.64.64,0,0,0,.08.14l0,.05c0,.05,0,.05,0,0v-.27l0-.05.29-.23h.24c.12,0-.07,0,0,0l0,0a.23.23,0,0,1-.07-.07c-.09-.09,0,.07,0,0l-.08-.13c-.12-.21-.23-.42-.36-.62a1.83,1.83,0,0,1-.18-.3l0-.07A.87.87,0,0,1,2.85,24c0-.1-.05-.21-.08-.31a2.69,2.69,0,0,0-.19-.38l.07.25s0,0,0,0l0-.18a1,1,0,0,0,0-.17,3.5,3.5,0,0,0-.07-.45A.52.52,0,0,0,2,22.37a.52.52,0,0,0-.35.62Z"/><path class="cls-3" d="M31.1,26.05a13.65,13.65,0,0,1,1.95-4.37,14.81,14.81,0,0,1,8.71-5.83l3.55.72,2.48.87,2.13,1.31,1.82,1.74,1.09,1.84.37,1.43L53,25.14l-.84,1.17-2.26,1.48-2.06.72-2.91.37-2.79.27-2.81.14H35.7l-3.6-.14-1.63-.21.3-2.47Z"/><path class="cls-4" d="M53.53,24.59l.56,1.67L54,32.52s.29.91-1.72,2.35A12.3,12.3,0,0,1,47,36.59l-7.79.24-6.68-.89L29,35,24,33.74l-.84-.35-10.88,0s-3.72-.19-4.67-.7A19,19,0,0,0,4.2,31.65L1.62,30,.71,28.93.5,24.67l.34-3.59L1,19.73l.11-1.44V17.5l0-.43.07-.42.31,4.57,1.18,1.36,2.48,1.79,2.49,1.35,3,1.14,3.13.67,2.86.34,1.48.08h2.65l2,.14,2,.36,2.3.49,2.13.36,1,.11,1.5.12L34,29.7l2.44-.05,1.89.15,1.46,0,1.26,0,1-.06.86-.11,1.74-.15,1.83-.15,1.62-.41,1.23-.28,1.07-.49.88-.45.51-.41.82-.83.58-.71.22-.24"/><path class="cls-1" d="M31,29a86.83,86.83,0,0,0,12.7,0c.56,0,1.22-.23,1.21-.9S44,27.2,43.36,27c-2-.54-4-1.07-6-1.51A23.79,23.79,0,0,0,34,25c-.28,0-.56,0-.85,0s-.42.14-.47-.19a6.14,6.14,0,0,0-.1-1.42.5.5,0,0,0-1,.13,17.83,17.83,0,0,1-1,4.4.51.51,0,0,0,.49.64,112.08,112.08,0,0,0,12,0c.45,0,.73-.69.25-.93a7.1,7.1,0,0,0-2.53-.6,18.37,18.37,0,0,1-2.93-.61,19.54,19.54,0,0,0-2.82-.56,5.85,5.85,0,0,0-2.73.05c-.53.21-1.07.81-.53,1.34s1.67.45,2.34.53c2.16.23,4.33.42,6.49.61.64.06.64-.94,0-1l-4.93-.45c-.8-.08-1.6-.16-2.4-.26a3.47,3.47,0,0,0-.55-.08c-.17-.11-.24-.07-.2.13s0,.27.25.08A3.24,3.24,0,0,1,34,26.68a22,22,0,0,1,4.55.87,12,12,0,0,0,2.14.39,6.32,6.32,0,0,1,2.23.48l.25-.93a112.08,112.08,0,0,1-12,0l.48.63a19.06,19.06,0,0,0,1-4.67l-1,.13c.25.7-.24,1.85.61,2.28a3.92,3.92,0,0,0,1.53.08,12,12,0,0,1,1.8.22c2.36.44,4.68,1,7,1.67l.92.25s.58.2.4,0c-.06-.08-.76,0-.87,0l-1,0c-1.21.05-2.41.15-3.62.19A49.32,49.32,0,0,1,31,28c-.64-.07-.63.93,0,1Z"/><path class="cls-1" d="M31.71,26c0,.08,0,.09,0,0s0,.08,0,.05a1.08,1.08,0,0,0-.13.29,1.66,1.66,0,0,0-.1.54,1.88,1.88,0,0,0,0,.53.64.64,0,0,0,.53.44,1.75,1.75,0,0,0,1.19-.1,1.39,1.39,0,0,0,.42-.31,1.57,1.57,0,0,0,.19-.26s.13-.22.07-.16l-.22.13c-.07,0,0,0,0,0h.52a1.66,1.66,0,0,1,.54.14c.41.16.86.07,1.26.22a.52.52,0,0,0,.62-.35.52.52,0,0,0-.35-.62c-.38-.13-.79-.06-1.16-.18a5.25,5.25,0,0,0-.52-.17,3.77,3.77,0,0,0-.67,0,1.35,1.35,0,0,0-.66.09c-.2.12-.22.32-.36.49a.61.61,0,0,1-.68.15l.18.18v0l.06.25a1.51,1.51,0,0,1,.07-.67,1.11,1.11,0,0,0,.12-.89.53.53,0,0,0-.62-.35.51.51,0,0,0-.34.62Z"/><polygon class="cls-5" points="4.11 1.16 3.92 3.46 3.5 8.54 2.34 13.35 1.62 16.27 1.62 18.53 2.53 20.84 5.16 23.46 8.91 25.46 12.28 26.51 16.18 26.93 19.71 27.22 24.04 27.87 27.24 28.53 29.73 29.03 30.17 29.03 30.25 27.15 30.99 24.09 32.41 21.58 35.36 18.53 38.54 16.36 40.03 15.76 40.57 15.38 40.27 14.73 36.17 13.99 32.54 13.13 29.27 12.08 27.27 11.27 25.28 10.4 23.71 9.54 22.35 8.42 20.8 5.36 20.2 3.18 19.82 0.68 15.02 0.81 8.56 1.07 5.82 1.16 4.11 1.16"/><path class="cls-6" d="M19.39,1c.48,2.1.16,4.18.84,5.65A6.68,6.68,0,0,0,21.83,9a10.49,10.49,0,0,0,2.4,1.74,5.31,5.31,0,0,1,1.88.57,6.92,6.92,0,0,1,1.16,1c.72.61,1.35.65,2.84,1,1.93.44,1.42.48,3.59,1,1.95.47,1.81.3,4.08.82a22.83,22.83,0,0,0,3.4.39"/><path class="cls-7" d="M53.39,25.08a4.87,4.87,0,0,1-2.54,2.57,11.87,11.87,0,0,1-5.22,1.51c-7.11.44-10.66.66-15.15.09l-.23,0a12.9,12.9,0,0,1,.48-3.51,13.94,13.94,0,0,1,4.06-6.35,18,18,0,0,1,7-3.95c3.41.69,5,1,7.12,2.27a9.29,9.29,0,0,1,3.9,3.89A4.73,4.73,0,0,1,53.39,25.08Z"/><path class="cls-7" d="M30.25,29.22c-3.6-.48-2.9-.68-7.72-1.38-7.89-1.14-8.71-.44-12-1.6-2-.71-7.81-2.8-9.08-7.29-.85-3,1.05-4.56,2-11.35A42.17,42.17,0,0,0,3.81.89L19.54.51c0,.35.09.87.2,1.49a15.52,15.52,0,0,0,2.87,6.9c.44.52,1.48,1.61,6.32,3.31a75,75,0,0,0,10.16,2.65l2.65.55"/><path class="cls-8" d="M13.91,2C14.49,3.7,17.25,11.7,18,13.44a2.92,2.92,0,0,0,.3.57,5.22,5.22,0,0,0,2.64,1.7c1.26.53.46.27,4.46,2.23.94.46,2.13,1,3.52,1.63"/><path class="cls-9" d="M12.33,2.32s-1.06.76.11,1.82"/><path class="cls-9" d="M13,4.88s-1.49,1.09.45,2"/><path class="cls-9" d="M14.18,8.17S13,9.28,14.73,9.89"/><path class="cls-9" d="M14.92,10.92s-.79,1.43,1,1.65"/><path class="cls-9" d="M17.39,14.28s-.74,1.27,1,1.56"/><path class="cls-9" d="M22.49,17.81s-.15.75,1.27.83"/><path class="cls-9" d="M25.79,19.69s.18.8,1.61.9"/><path class="cls-9" d="M29,21.66s0,.95,1.47.78"/><path class="cls-10" d="M32.29,20.64c-.81-.1-1.61-.22-2.4-.37a3,3,0,0,1-2.21-1,.07.07,0,0,1,0-.09,2.92,2.92,0,0,1,2.43.36c.74.32,1.48.67,2.2,1.05a0,0,0,0,1,0,.09Z"/><path class="cls-11" d="M14.07,2.32l3.57,10.25a6,6,0,0,0,3.27,2.8c2.58,1.09,7.39,3.49,7.39,3.49"/><path class="cls-12" d="M32.08,21.12c-1-.42-2-.87-3-1.34a4.63,4.63,0,0,1-2.64-2,5.12,5.12,0,0,1,3,1.34c.9.62,1.78,1.27,2.66,1.94,0,0,0,.11-.05.09Z"/><path class="cls-13" d="M29.64,21.85A8,8,0,0,1,31.81,18a7.05,7.05,0,0,1,2.57-2l2-1.07,1.4.2-.29.49a3.16,3.16,0,0,0-1,.36c-.18.17-2,1.05-2,1.05a9.08,9.08,0,0,0-3,2.6c-.86,1.46-1.42,2.48-1.42,2.48S29.69,22.25,29.64,21.85Z"/><path class="cls-14" d="M32.07,18.19l1.31-1a.22.22,0,0,1,0-.28,9.36,9.36,0,0,1,1.07-.61.64.64,0,0,1,.42,0c.22.07.88-.47.88-.47s.23-.08.3.09-1,.58-1,.58a1.11,1.11,0,0,0-.78.29c-.38.34-1.94,1.36-1.94,1.36S32.09,18.31,32.07,18.19Z"/><path class="cls-13" d="M12.69,3.15a1,1,0,0,1,.77-.47,7.94,7.94,0,0,1,1.33-.17c.93.06,2.37,0,4.13.12.06.09.35.51.22.68s-.13.06-.38.08l-.63,0c-2.06.06-2.82,0-3.87.12-.69,0-.64.29-1,.29C12.64,3.85,12.64,3.71,12.69,3.15Z"/><path class="cls-13" d="M13.52,5.66a14.57,14.57,0,0,1,2.4-.38,2.23,2.23,0,0,0,.43,0A2.2,2.2,0,0,0,17,5,4.9,4.9,0,0,1,19,5h.05c.14,0,.16.15.26.21s.13,0,.27,0a.66.66,0,0,1,.31.23c.05.07.22.28.17.4s-.44.1-.89.05l-.52-.09a3.37,3.37,0,0,0-1.09.07c-.68.13-.63.26-1.22.38-.77.16-.87-.06-1.44.15s-.53.34-.87.33a.87.87,0,0,1-.78-.44.55.55,0,0,1,.12-.6A.51.51,0,0,1,13.52,5.66Z"/><path class="cls-14" d="M16.18,5.56a3.47,3.47,0,0,0,.56-.06c.46-.09.54-.2,1-.3s1.1-.14,1.14,0a.26.26,0,0,1-.09.18c-.06,0-.11,0-.15.09s0,.1-.05.14a.23.23,0,0,1-.3,0s0-.1-.07-.14-.33,0-.37,0A3.84,3.84,0,0,1,16.18,5.56Z"/><path class="cls-13" d="M14.41,8.62c.19-.2.44-.12,1.38-.32L16,8.24A13,13,0,0,1,17.69,8c.39,0,.83-.09,1.71-.19.41-.06.84,0,1.26,0a.56.56,0,0,1,.24,0c.26.08.49.38.43.57s-.07.16-.58.26a16.46,16.46,0,0,1-1.66.09,5.54,5.54,0,0,0-.67.1,8.71,8.71,0,0,0-1.14.33,6.81,6.81,0,0,1-1.83.42c-.48,0-.95,0-1.13-.24A.64.64,0,0,1,14.41,8.62Z"/><path class="cls-14" d="M16.54,8.48c.07-.17.34-.23,1.37-.3l.67,0c.84-.08,1.3-.27,1.36-.15s-.06.18-.14.24-.52.13-.87.12a5,5,0,0,0-1.44.21c-.5.12-.83.26-.94.12A.2.2,0,0,1,16.54,8.48Z"/><path class="cls-13" d="M16.14,11.93c-.42,0-.49-.13-.51-.18s.08-.49.31-.64A1.27,1.27,0,0,1,16.6,11a5.28,5.28,0,0,0,1-.25,15,15,0,0,1,4.85-.4,1.26,1.26,0,0,0,.7,0c.18-.06.19-.11.34-.14.34-.08.82.13.84.37s-.45.48-.65.57a2,2,0,0,1-.61.2c-.69.11-.91-.11-1.54-.07s-.41.17-1,.28a11,11,0,0,1-1.62,0,6.24,6.24,0,0,0-1.65.25A3,3,0,0,1,16.14,11.93Z"/><path class="cls-14" d="M16.33,11.63c0,.11.28.12.45.06s.16-.11.28-.18.38-.07.8-.1c.26,0,.19,0,.61-.09s.41,0,1-.07l.85-.07.72-.1L22,11a2.31,2.31,0,0,0,.62-.09.86.86,0,0,0-.34,0,3.94,3.94,0,0,0-.61.06,3.35,3.35,0,0,1-.54,0c-.91,0-2.63.24-2.64.14s.24-.11.3-.13a3.29,3.29,0,0,1,.88-.1,8.14,8.14,0,0,0,.94-.12l1-.13c.54-.07.72-.1.72-.13s-.26-.09-.34-.1a10.38,10.38,0,0,0-3.77.37,14.32,14.32,0,0,1-1.59.6.38.38,0,0,0-.2.09C16.37,11.43,16.29,11.55,16.33,11.63Z"/><path class="cls-13" d="M17.72,14.94s0-.07.24-.25l.35-.29.16-.1a3.82,3.82,0,0,1,1.11-.43c.56-.11,1.13-.27,1.69-.39,1.37-.31,1.12-.31,1.62-.39a5.4,5.4,0,0,0,1.22-.32l.25-.1a3.32,3.32,0,0,1,.67-.13c.35-.07.28-.25.65-.38s.24,0,1-.06c.29,0,.42,0,.56.05s.23.25.18.38-.29.12-.88.29c-.39.12-.75.27-.87.32a2.08,2.08,0,0,1-.4.17,6.94,6.94,0,0,1-.75.13,4.61,4.61,0,0,0-.61.23,8.74,8.74,0,0,1-.89.21l-1,.22-1.1.28c-1.6.4-1.73.42-1.95.61s-.34.46-.59.48S17.68,15.15,17.72,14.94Z"/><path class="cls-14" d="M18.71,14.84c0-.1.46-.12.92-.35.13-.07.22-.14.37-.24.39-.27.4-.37.62-.44s.27,0,.48-.12.16-.14.31-.2.28,0,.53-.07.25-.12.62-.2a1.69,1.69,0,0,1,.63,0,2.25,2.25,0,0,0,.22.05,1.26,1.26,0,0,0,.66-.1,7.76,7.76,0,0,0,.76-.3.51.51,0,0,1,.37,0s.11,0,.11.13-.09.12-.28.22a6.53,6.53,0,0,1-.67.27,1.91,1.91,0,0,1-.54.15c-.15,0-.19,0-.38,0s-.21,0-.38.06a3.13,3.13,0,0,1-.48,0,2,2,0,0,0-.48,0,2.09,2.09,0,0,0-.65.23c-.1.06-.14.09-.14.1a4.13,4.13,0,0,0,.58-.13s.05,0,.08,0A.18.18,0,0,1,22,14c-.05.12-.25.14-.36.15a8.42,8.42,0,0,0-1,.24,5,5,0,0,0-1.19.33c-.22.11-.48.12-.71.21a.08.08,0,0,1-.07,0A.06.06,0,0,1,18.71,14.84Z"/><path class="cls-13" d="M29.9,13.24c-.2,0-.24.11-.49.14a1.56,1.56,0,0,0-.24,0c-.21,0-.25.18-.47.32s-.17,0-.49.18-.28.16-.48.23a2,2,0,0,1-.42.09,7.82,7.82,0,0,0-2.4,1,4.22,4.22,0,0,0-1.18.84A3.3,3.3,0,0,0,23,17.64.75.75,0,0,0,23,18a.52.52,0,0,0,.19.28c.16.09.39-.15,1-.78a7.47,7.47,0,0,1,.82-.76,4.46,4.46,0,0,1,.74-.46c.26-.13.26-.11,1-.4l.92-.38.57-.25.3-.16c.31-.15.33-.1.49-.19s.17-.18.57-.5l.22-.17c.24-.16.27-.14.34-.23a1.61,1.61,0,0,0,.2-.38c.06-.14.05-.18,0-.22S30.12,13.21,29.9,13.24Z"/><path class="cls-14" d="M28.24,14.7s.09-.06.08-.1-.07-.06-.13-.07a1.34,1.34,0,0,0-.49,0,2.81,2.81,0,0,0-.77.28l-1,.49A8.36,8.36,0,0,0,25,16c-.17.14-.33.27-.31.3a.52.52,0,0,0,.16-.06,3.68,3.68,0,0,1,.49-.15,3,3,0,0,0,.65-.31c.32-.2.3-.28.57-.4s.22,0,.51-.17.37-.26.64-.31A1.42,1.42,0,0,0,28.24,14.7Z"/><path class="cls-13" d="M26.51,19.71a.68.68,0,0,1,0-.54,1.56,1.56,0,0,1,.21-.47,3.79,3.79,0,0,1,.62-.84,6.73,6.73,0,0,1,.65-.51c.28-.21.59-.43,1-.73l.79-.54a15.86,15.86,0,0,1,1.37-.88,4.7,4.7,0,0,0,1-.41,3.53,3.53,0,0,1,.42-.24l.48-.23a1.55,1.55,0,0,1,.27-.1c.1,0,.26-.05.33,0s0,.41-.18.61-.31.16-.63.43-.16.2-.31.31-.43.13-.71.23-.22.17-.7.51-.49.25-1,.58c-.22.15-.37.27-.64.49-.48.38-.51.44-.84.68a7.17,7.17,0,0,0-.6.42,2.87,2.87,0,0,0-.56.85c-.08.2-.08.31-.2.42a.59.59,0,0,1-.54.16A.53.53,0,0,1,26.51,19.71Z"/><path class="cls-14" d="M28.21,18c0-.14.26-.27.46-.39a6,6,0,0,0,1.22-1.26c.19-.23.47-.39.61-.65a.27.27,0,0,1,.11-.1.16.16,0,0,1,.15.07c.06.1-.07.27-.13.35a7.78,7.78,0,0,1-.9,1c-.67.58-.58.55-.92.82-.13.11-.31.3-.46.27A.17.17,0,0,1,28.21,18Z"/><path class="cls-1" d="M41.26,33a16,16,0,0,0-2.49.28A.9.9,0,0,0,38,34.4c.21.59,1,.79,1.49.94a7.1,7.1,0,0,0,2.55.24,38.82,38.82,0,0,0,5.12-1A16.18,16.18,0,0,0,49.53,34c.4-.15.8-.32,1.18-.5a3.3,3.3,0,0,1,1.2-.53l-.35-.86a.61.61,0,0,1-.4.3l.38.92c.51-.24,1.26-.43,1.6-.92a.85.85,0,0,0-.22-1.2c-1.1-.72-2.74.38-3.78.73A27.15,27.15,0,0,1,40,33.08v1l6.28-.18a16.69,16.69,0,0,0,2.83-.19,3,3,0,0,0,1.93-1.07c.38-.64-.28-1.07-.86-1.1a18.09,18.09,0,0,0-3,.38c-2.07.28-4.15.5-6.23.68a4.43,4.43,0,0,0-2.68.8.83.83,0,0,0-.39.93.75.75,0,0,0,.77.49c.64,0,.65-1,0-1l.21.18-.15.36c.71-.78,1.75-.71,2.73-.8s2-.2,3.05-.31,2-.23,2.93-.36l1.35-.18c.27,0,1.31-.34,1.54-.12l-.14-.36c0-.08-.43.21-.44.22a2.65,2.65,0,0,1-.49.2,4.85,4.85,0,0,1-1.2.19c-.87,0-1.74.06-2.61.08L40,33.08a.5.5,0,0,0,0,1,28.11,28.11,0,0,0,6.35-.48,26.57,26.57,0,0,0,3-.74c.5-.17,1-.39,1.47-.58s1.17-.51,1.61-.2l-.23-.3c.05.13-1.13.6-1.22.64-.52.24-.15,1.09.38.92a1.68,1.68,0,0,0,.85-.56.51.51,0,0,0-.36-.85,3,3,0,0,0-1.39.51,13.19,13.19,0,0,1-1.91.78c-1.26.4-2.58.61-3.87.89a12.11,12.11,0,0,1-4.14.44,5.21,5.21,0,0,1-1-.21,5.49,5.49,0,0,0-.57-.2l-.12.09.14,0a5,5,0,0,0,1-.13c.38,0,.76-.08,1.15-.1.64,0,.64-1,0-1Z"/><path class="cls-13" d="M41.81,20.4a1.94,1.94,0,0,0,.71-.17s.29-.08.15-.07a6.89,6.89,0,0,1,1,.12c.66.06,1.31,0,2,0,.22,0,.58.08.89.1s.61,0,.91,0a4.42,4.42,0,0,1,.73.1s.39.11.23,0c.11,0,.12.08.24.21a1,1,0,0,0,1.42,0,1,1,0,0,0,0-1.41c-1-1.14-2.59-.82-3.92-1-.77-.11-1.54,0-2.32,0-.38,0-.76-.11-1.14-.12a1.87,1.87,0,0,0-.62.1l-.33.14c-.17.08-.13.07.1,0a1,1,0,0,0-1,1,1,1,0,0,0,1,1Z"/><path class="cls-1" d="M24.7,29.76a4.67,4.67,0,0,1-.91.15c-.28,0-.57-.08-.85-.08-.59,0-1.17,0-1.76,0a10.14,10.14,0,0,1-3.34-.45l-.14,1a12.78,12.78,0,0,1,1.75,0c.64.05.64-.95,0-1a12.78,12.78,0,0,0-1.75,0,.5.5,0,0,0-.13,1,11,11,0,0,0,3.61.49c.63,0,1.26,0,1.89,0a6,6,0,0,0,.84.07A9.78,9.78,0,0,0,25,30.72c.63-.11.36-1.08-.27-1Z"/><path class="cls-13" d="M44.26,22.88c-.11.11-.13.14-.06.11l.12,0c.09-.05.15-.12.23-.17a2.17,2.17,0,0,0,.38-.22c.4-.33,0-.95-.49-.83l-.43.11.39.91a4.22,4.22,0,0,1,1-.28,8.57,8.57,0,0,1,1-.07,3,3,0,0,0,1.06-.22.74.74,0,0,1,.33-.09l.24,0,.1,0c.12,0,.09,0-.08-.11v-.27l0,.06.13-.22c-.06.08-.26.09-.37.11a3,3,0,0,0-.52.11c-.34.14-.59.38-1,.38a16.8,16.8,0,0,0-2.55.24.5.5,0,0,0,.26,1,13.08,13.08,0,0,1,2.25-.21,2,2,0,0,0,1.08-.27,1.7,1.7,0,0,1,.35-.19c.16,0,.32,0,.48-.08A1,1,0,0,0,49,22a.75.75,0,0,0-.68-.87,2.06,2.06,0,0,0-1.13.06,2.39,2.39,0,0,1-.84.19,9,9,0,0,0-1.27.12,4.45,4.45,0,0,0-1.19.37c-.52.24-.14,1,.39.91l.43-.11-.49-.83c.05-.05.09-.05,0,0a.67.67,0,0,0-.18.07c-.11.07-.19.15-.25.18a.79.79,0,0,0-.51.54c-.14.62.83.89,1,.26Z"/><path class="cls-2" d="M3.42,29.16l.11.15.16.09.2.18.3.17.46.27a1,1,0,0,1,.23.12l.17.13.16.11.07.05h.48s0,0,0,.18,0,.11,0,.11H6v.05s-.27,0-.29,0a1.16,1.16,0,0,1,0-.19H5.26l-.2-.06-.46-.28L4.13,30l-.41-.27-.21-.26-.07-.2Z"/><path class="cls-1" d="M25.34,32.49a9,9,0,0,1,1.27.15,4.63,4.63,0,0,0,1.34.14c.13,0,.25,0,.38-.06l.1,0a.41.41,0,0,0,.16,0,.77.77,0,0,0,.49-.57,2.28,2.28,0,0,1,.18-.52,1,1,0,0,0-.05-.89.49.49,0,0,0-.68-.18.5.5,0,0,0-.18.68s0,.06,0,.06.07-.22,0-.1a1.85,1.85,0,0,0-.13.29,2.76,2.76,0,0,0-.08.27s0,.07,0,.1a.09.09,0,0,0,0,.05s0,0,0,0,.19-.16.19-.15h-.14l-.25.05a3.78,3.78,0,0,1-.46,0c-.3,0-.61-.11-.92-.16s-.79-.1-1.19-.12a.5.5,0,0,0-.5.5.51.51,0,0,0,.5.5Z"/><path class="cls-1" d="M19.83,29.94c-.61-.11-1.21-.23-1.81-.36s-1.24-.12-1.58-.47l-.11.78a5.43,5.43,0,0,1,3.12-.19c1.15.15,2.29.28,3.44.4s2.3.2,3.45.28c.21,0,1.56.05,1.56.37s-.61.37-.75.4a2,2,0,0,1-.91,0l-.13,1c.64-.06,1.94-.1,2.27-.79s-.46-1.12-1-1.32a23.81,23.81,0,0,0-5.7-1c-.55-.06-.68.89-.13,1l3,.53,1.44.26a1.79,1.79,0,0,1,1.16.43l.35-.86c-1,0-1.95.05-2.92.14-.53,0-.73.85-.14,1l2.09.47.13-1-7.43-.48v1c1.43,0,2.87-.05,4.3,0a.5.5,0,0,0,.13-1,22.16,22.16,0,0,0-7.08-.39c-.51.06-.73.85-.13,1l3.29.71.13-1-9.18-.64.35.85c.28-.25,1.24,0,1.59,0,.62,0,1.23,0,1.84-.05L18,30.83a.5.5,0,0,0,0-1l-3.57-.22v1a3.24,3.24,0,0,1,.92.21c.43.16.77-.38.57-.73-.51-.9,2.89-.66,3.27-.62a30.38,30.38,0,0,0,3.44.36,14.15,14.15,0,0,1,1.95.09c.5.09,1,.23,1.5.35a16.47,16.47,0,0,0,3.56.47.5.5,0,0,0,.13-1l-.53-.16-.13,1c-.33,0-.26,1.57-.39,1.76s0,.18-.16.12a2.77,2.77,0,0,1-.41,0,3.26,3.26,0,0,1-.87-.16l.22.84.1-.11a.5.5,0,0,0-.35-.85c-.87-.08-1.74-.17-2.6-.29l.12.92.48-.25c.48-.25.2-.89-.25-.94a31.56,31.56,0,0,0-3.64-.15v1l2.38-.1a.5.5,0,0,0,.13-1,9.49,9.49,0,0,0-2.66-.24l-2.79,0c-1.93,0-3.87-.13-5.81-.21l-1.34-.06c-.1,0-.64.06-.72,0s0-.23.24-.29a5.9,5.9,0,0,1,2.44,0,2.54,2.54,0,0,0,1.93-.48c.25-.21.45-.54.76-.63s.78.07,1.18-.05a.5.5,0,0,0-.26-1c-.45.13-.89-.09-1.34.09a2.78,2.78,0,0,0-.86.67c-.74.72-1.9.24-2.81.24a2.67,2.67,0,0,0-2.18.69A1.06,1.06,0,0,0,10,31.72a4.55,4.55,0,0,0,1.52.15l1.7.07c1.15,0,2.31.1,3.46.13s2.25.07,3.38.08a13.6,13.6,0,0,1,3.55.21l.13-1-2.38.1a.5.5,0,0,0,0,1,31.56,31.56,0,0,1,3.64.15l-.25-.93L24.3,32c-.36.19-.32.86.12.92.95.13,1.9.24,2.86.32l-.35-.86-.11.11a.5.5,0,0,0,.22.83c1,.29,2.48.5,2.69-.77.14-.84.77-2.83-.59-2.92-.58,0-.66.83-.13,1l.53.15.13-1A24.08,24.08,0,0,1,25.2,29c-1.44-.3-2.93-.15-4.38-.33a15.12,15.12,0,0,0-4.24-.23c-1,.15-2.14,1-1.5,2.13l.57-.73a4.08,4.08,0,0,0-1.19-.25c-.64,0-.64,1,0,1l3.57.22v-1c-1.42.06-2.83.14-4.25.18A14.42,14.42,0,0,1,11.7,30a1.56,1.56,0,0,0-1.32.34c-.35.3-.05.82.35.85l9.18.64a.5.5,0,0,0,.13-1l-3.28-.71-.14,1a21.69,21.69,0,0,1,6.82.35l.13-1c-1.43,0-2.87,0-4.3,0a.5.5,0,0,0,0,1l7.43.48a.51.51,0,0,0,.13-1l-2.08-.47-.13,1c1-.09,1.94-.14,2.92-.14a.51.51,0,0,0,.36-.85c-.58-.71-1.74-.71-2.57-.86L21.85,29l-.14,1c1.19.14,2.39.24,3.57.46a11.39,11.39,0,0,1,1.65.42,3.25,3.25,0,0,1,.43.18c.05-.23,0-.28-.24-.14a7.4,7.4,0,0,0-1,.18c-.54.05-.71.83-.14,1,.93.25,3.08,0,3-1.38s-2.47-1.28-3.44-1.36c-1.77-.13-3.53-.31-5.29-.52-1.48-.18-3-.47-4.36.23a.51.51,0,0,0-.1.79,2.87,2.87,0,0,0,1.55.62c.76.17,1.52.32,2.28.46s.9-.85.27-1Z"/><path class="cls-2" d="M30.25,29.54a26.59,26.59,0,0,1,.16,2.91c-.19,3.58-.89,3.49-1,0a3.93,3.93,0,0,1,.83-2.88Z"/><path class="cls-1" d="M32.56,34.06h.18l-.13,0,.08,0a.44.44,0,0,0,.2,0,.55.55,0,0,0,.18-.06.35.35,0,0,0,.14-.13.32.32,0,0,0,.09-.17l0-.14a.45.45,0,0,0-.07-.25l-.08-.1A.54.54,0,0,0,33,33.1h-.06l-.19,0h-.14a.34.34,0,0,0-.19,0,.39.39,0,0,0-.16.1.34.34,0,0,0-.1.16.41.41,0,0,0,0,.19l0,.14a.71.71,0,0,0,.13.22l.1.07a.45.45,0,0,0,.25.07Z"/><path class="cls-2" d="M.83,23.67a3.71,3.71,0,0,1,.86.55,11.7,11.7,0,0,1,.85,1.34l.39.73a.83.83,0,0,1,.4.28,7.71,7.71,0,0,1,.58.8l.79.8.94.72.93.69,1,.28a5.15,5.15,0,0,0,2.22.36c1.28-.06,1.46.07,1.46.07l1.74.17h1.95a17.48,17.48,0,0,1,2.37.16l1.37.17h2.62l1.24.07H25l.72.22.33.25.35.12-.51-.05a2.53,2.53,0,0,0-1-.28c-.54,0-1.6,0-1.6,0l-1.17,0s-.48.08-.56.08H18.41L15.84,31l-2.26,0L12.45,31l-1.56-.17h-2l-.69-.12-1.38-.42L6.05,30l-1.12-.74L4,28.41l-.74-.71-.67-.85-.6-.7-.78-1.23L1,24.56a1.37,1.37,0,0,0-.28,0S.83,23.67.83,23.67Z"/><path class="cls-2" d="M8.11,31.45l2.51-.06.65.16,1.13.16,2.36-.05.44.16,1.15.19,1.74.12,1.48,0h1.82l1,.15.45.08h.78l.8.16s.32,0,.37.13-.25.19-.25.19l-.74.17H23L21.9,32.8l-1.45,0-1.85-.07-1-.06-1.13-.08-1-.11-.63-.19a2,2,0,0,0-.71-.1,7.2,7.2,0,0,1-1-.06L11.69,32l-1.22-.13-.72-.12-.84-.08Z"/><path class="cls-2" d="M30.38,31.94h1.05l1.55.13,1,.22,1.07.1,1.06.19,1.34.13,1.06-.17,1.06-.29L41.12,32l1.93-.15,1.36-.08,1.83-.24,1.84-.11h1.43l1.17-.14A10.62,10.62,0,0,0,51.79,31l.77-.48.47-.36.63-.18.23-.13,0,.81-.64.45-.73.6-1.76.52-1,.18-1.36-.06-2.59.21-2.57.28-2.37.08-1.44.13-.64.13-1.38-.1L36.22,33l-1.16-.24-1-.06-1.21-.17-1.3-.2Z"/><path class="cls-2" d="M35.84,33.33l.33-.06,1.33.21,1.65.18,1.6.12,2.29,0-2.63.09L39,34l-.77,0L37.07,34l-1-.09-.6-.21-1.3-.23s-.21-.12,0-.17A15.85,15.85,0,0,1,35.84,33.33Z"/></g></g></svg>