<svg xmlns="http://www.w3.org/2000/svg" viewBox="0 0 14.06 29.31"><defs><style>.cls-1{fill:#efd0b8;}.cls-2{fill:#7c6c6b;}.cls-3{fill:#caa080;}</style></defs><g id="Слой_2" data-name="Слой 2"><g id="Слой_1-2" data-name="Слой 1"><path class="cls-1" d="M13.56,10.51a21.27,21.27,0,0,0-.28-2.21c-.06-.4-.18-.9-.4-1.92s-.31-1.4-.46-2c-.26-1-.39-1.57-.53-2-.21-.59-.41-1-.48-1.23L10.78.88,8.61.39,7.45.36,6,.18,4.24.43a4.55,4.55,0,0,1-.07.45c-.1.69,0,.57-.09,1.47a16.48,16.48,0,0,1-.38,2c-.06.25-.25,1.09-.57,2.3-.24.89-.37,1.36-.58,2-.36,1.15-.46,1.28-.71,2.17-.13.46-.22.9-.41,1.77C1,14.72,1.11,14.55.88,15.4a10.12,10.12,0,0,0-.41,1.81,2.09,2.09,0,0,0,.28,1.43s.19.26.28.22,0-.25.05-.5a2.17,2.17,0,0,1,.35-.79c.18-.35,0-.31.22-1.54.12-.73.17-.7.21-1.14,0-.13,0-.3,0-.3s.12.31.15.57a3.21,3.21,0,0,1,0,.63c-.05.48-.13.58-.22,1.08A9.69,9.69,0,0,1,1.67,18c-.14.46-.26.46-.26.74a2.46,2.46,0,0,0,.37.94c.11.21.16.26.2.26s.1-.06.32-.76a1.52,1.52,0,0,0,.11-.57,2.46,2.46,0,0,0-.17-.44,2.06,2.06,0,0,1,0-.79c0-.33,0-.45.1-.89a4.08,4.08,0,0,1,.11-.92,6.59,6.59,0,0,1,.16,1.13c0,.16.05.32.07.48a1.9,1.9,0,0,0,0,.34,3.07,3.07,0,0,0,.08-1c0-.18,0-.32,0-.37s0-.12,0-.17c.07.36.17.73.26.73s.09-.21.24-.93a13.12,13.12,0,0,0,.29-1.6,2.23,2.23,0,0,0,0-1c-.07-.2-.17-.35-.13-.37s.22.13.33.33a1.16,1.16,0,0,1,.11.46,5.44,5.44,0,0,1,0,1.09c-.07.46-.12.42-.24,1s-.06.64-.18,1.1c-.08.29-.1.26-.28.83a9.45,9.45,0,0,0-.31,1.09,8.72,8.72,0,0,0-.19,1.06,3.82,3.82,0,0,0,0,.7c.07.48.37.73.72,1.13.07.08.36.53.93,1.43s.91,1.41,1.09,1.77a7,7,0,0,0,.66,1.21c.22.29.33.36.63.78l.5.75a5.69,5.69,0,0,1,.44.7c.1.25.1.39.24.46s.24,0,.53,0a1.5,1.5,0,0,0,.57-.18A1.14,1.14,0,0,0,9.2,28a1.5,1.5,0,0,0-.06-1.42,5,5,0,0,0-.44-.68c-.15-.23-.28-.46-.55-.94-.07-.11-.12-.21-.19-.33a1.7,1.7,0,0,0,0,.27.66.66,0,0,1,0,.25c0,.05,0,.06-.09.17s-.07.19-.06.2.05,0,.11,0,.33-.07.38,0,0,.18-.11.23a.49.49,0,0,1-.43.12c-.17,0-.34-.12-.34-.18s0,0,.1-.05.11-.11.16-.2c.18-.32.18-.27.19-.33a1.73,1.73,0,0,0,0-.45.62.62,0,0,1,0-.22c-.22-.41-.32-.63-.53-1.05s-.25-.45-.5-.94a9.69,9.69,0,0,0-.55-1.06l0,.09c0,.18,0,.26-.06.26a.79.79,0,0,1-.14-.5.66.66,0,0,0-.39.24c-.13.11-.17.2-.33.33s-.22.16-.26.13,0-.3.16-.5.26-.22.35-.42c0,0,.11-.24,0-.3s-.35.12-.44.18l0,.05c-.12.1-.18.19-.19.19s.37-.63.26-.73a.11.11,0,0,0-.07,0c-.09,0-.16,0-.17,0s.14-.17.16-.37-.09-.33-.05-.35.23.28.33.24,0-.31.05-.7a1.93,1.93,0,0,1,.15-.48.82.82,0,0,0-.17.3,1,1,0,0,1-.18.42c-.07.08-.16.16-.19.16s.07-.15.15-.29c.19-.35.16-.43.35-.85A3.57,3.57,0,0,1,5.8,18l.12-.45c.21-.66.35-.87.24-1s-.23,0-.72-.06c-.09,0-.27,0-.27-.07a3.42,3.42,0,0,1,.7-.2,1,1,0,0,0,.4-.19.75.75,0,0,0,.22-.27A7.43,7.43,0,0,0,7,14.28a4.7,4.7,0,0,0,.75-1.51,3.52,3.52,0,0,1,.52-1.33A5.16,5.16,0,0,0,8.59,11c.22-.31.23-.35.22-.4s-.26-.25-.72-.43c-.28-.11-.44-.14-.44-.16a1.44,1.44,0,0,1,.72.05c.62.16.93.52,1.07.41s0-.41.07-.46.18,0,.24.13.06.31.06.49a2.49,2.49,0,0,0,.16.76c.09.37.13.64.2,1.1a8.06,8.06,0,0,1,.13,1.22A10.82,10.82,0,0,1,10.23,15c-.05.56-.08.85-.15,1.25a9.78,9.78,0,0,0-.27,1.46,3.92,3.92,0,0,0,.11,1,7.64,7.64,0,0,0,.55,1.53c.31.72.44.87.62.95a1,1,0,0,0,.65,0,1.19,1.19,0,0,0,.77-.53c.15-.29,0-.5,0-1a6.62,6.62,0,0,1,.11-1.28,19.66,19.66,0,0,1,.55-2.47c.2-.75.26-.89.34-1.33a11.53,11.53,0,0,0,.14-1.39A17.5,17.5,0,0,0,13.56,10.51ZM1.24,15.87a.68.68,0,0,1,0,.15c0,.1-.07.13-.11.24a1,1,0,0,0-.07.21c0,.13,0,.14,0,.3A.69.69,0,0,1,1,17a.68.68,0,0,1-.08.17c0-.05.05-.19.09-.39s0-.17.05-.35a.88.88,0,0,1,.07-.26A.42.42,0,0,0,1.17,16a.7.7,0,0,0,0-.17c0-.22,0-.27,0-.27A.85.85,0,0,1,1.24,15.87Zm1,2.47a2.27,2.27,0,0,0,.08.29c0,.14.06.23,0,.29a.13.13,0,0,1-.14,0s0-.08-.07-.16C2,18.56,2,18.58,2,18.44s0-.16,0-.29,0-.08-.07-.17a1,1,0,0,1,0-.38c0-.13,0-.23.06-.23s.09.14.09.28,0,.22,0,.3.08.05.13.13S2.17,18.2,2.19,18.34Zm.44-2.88a3.22,3.22,0,0,1,.08.51Zm4.83,12a.31.31,0,0,1,.2.09c.12.09.1.16.23.27S8,27.91,8,28a1.42,1.42,0,0,1,.11.24c.06.13.08.11.11.19s0,.33,0,.34,0-.06-.14-.27a2.06,2.06,0,0,0-.15-.3c-.09-.14-.11-.11-.22-.27s-.12-.21-.19-.23-.15,0-.22,0l0-.06A.29.29,0,0,1,7.46,27.5ZM5.9,22.08c0-.15-.07-.27,0-.33a.16.16,0,0,1,.16,0c.12.08.11.31,0,.45a.32.32,0,0,1-.2.23c-.12,0-.28,0-.29-.06S5.85,22.26,5.9,22.08Zm-.59-4.29.18-.19c.17-.16.13-.13.19-.19s.17-.15.2-.21S5.93,17,6,17s0,.08,0,.16,0,.1-.13.29a1.15,1.15,0,0,1-.15.2,3,3,0,0,1-.23.2c-.17.14-.2.22-.27.21A.14.14,0,0,1,5.1,18C5.11,17.89,5.18,17.89,5.31,17.79ZM7.25,6.08c0,.1-.11.19-.14.17s0-.06,0-.1c.07-.36-.12-.94,0-1.2a1.16,1.16,0,0,0,0-.18.18.18,0,0,0,0-.14.21.21,0,0,0-.08-.06l.08-.05c0,.05,0,.12.08.21a1.27,1.27,0,0,1,0,.35,3.86,3.86,0,0,1,0,.67.56.56,0,0,0,0,.19C7.24,6,7.26,6,7.25,6.08Zm3.1-1.33c-.07-.07,0,0-.47-.37A2.81,2.81,0,0,1,9.45,4a2.8,2.8,0,0,1,.33.21,4,4,0,0,1,.35.26s-.05-.06-.11-.14-.12-.16-.18-.22S9.53,4,9.45,3.85s0-.22,0-.26.11,0,.3.13.45.31.45.31c.28.22.28.24.52.42s.21.14.29.22.13.21.31.41.12.1.15.17,0,.21.1.25.07,0,.11,0a.14.14,0,0,1,0,.18s-.07,0-.09,0,0-.1,0-.15-.06,0-.12,0a.53.53,0,0,1-.14-.1l-.09-.11a1.36,1.36,0,0,1-.15-.22C11,4.93,11,4.93,11,4.86s-.11-.08-.28-.2-.18-.17-.4-.33a1.2,1.2,0,0,0-.32-.2,3.94,3.94,0,0,0,.28.29c.16.18.16.21.25.27s.22.09.22.14a.11.11,0,0,1-.09.09C10.52,4.94,10.44,4.84,10.35,4.75Zm.49,14.12c-.13.27.06.54-.07.67a.2.2,0,0,1-.24,0c-.07,0,0-.16,0-.27a1.09,1.09,0,0,1,.12-.35,1.06,1.06,0,0,1,.13-.18,2.6,2.6,0,0,1,.23-.25c.16-.15.2-.19.26-.2a.15.15,0,0,1,.14.07c0,.07-.08.21-.21.27s-.14,0-.22.09A.32.32,0,0,0,10.84,18.87Zm1.6,1.48-.16.15v-.05l0-.2s-.08-.06-.1-.13a.45.45,0,0,1,0-.13c0-.12,0-.13,0-.2s0-.14-.05-.18-.07,0-.11,0a.68.68,0,0,1-.32-.11c-.12-.06-.27-.17-.25-.2s.12,0,.33,0,.24.05.25,0S12,19.23,12,19.2l-.06,0a.59.59,0,0,0-.31,0,1.35,1.35,0,0,0-.29.05.49.49,0,0,0-.22.14c-.1.11-.08.24-.11.24s-.05-.07,0-.14A.24.24,0,0,1,11,19.3a.75.75,0,0,1,.17-.21,1.1,1.1,0,0,1,.21-.13.52.52,0,0,1,.3-.08.85.85,0,0,1,.19.06c.07,0,.09,0,.13,0s.09,0,.13,0a.12.12,0,0,1,.07.12s-.13,0-.14,0,0,.05.07.11,0,.11.07.24.06.1.08.18a.74.74,0,0,1,0,.21,2.06,2.06,0,0,0,0,.33v-.05l0-.26h.11Z"/><path class="cls-2" d="M1.21,15.84c0-.22,0-.27,0-.27a.85.85,0,0,1,0,.3.68.68,0,0,1,0,.15c0,.1-.07.13-.11.24a1,1,0,0,0-.07.21c0,.13,0,.14,0,.3A.69.69,0,0,1,1,17a.68.68,0,0,1-.08.17c0-.05.05-.19.09-.39s0-.17.05-.35a.88.88,0,0,1,.07-.26A.42.42,0,0,0,1.17,16,.7.7,0,0,0,1.21,15.84Z"/><path class="cls-2" d="M2,17.65c0,.15,0,.22,0,.3s.08.05.13.13,0,.12,0,.26a2.27,2.27,0,0,0,.08.29c0,.14.06.23,0,.29a.13.13,0,0,1-.14,0s0-.08-.07-.16C2,18.56,2,18.58,2,18.44s0-.16,0-.29,0-.08-.07-.17a1,1,0,0,1,0-.38c0-.13,0-.23.06-.23S2,17.51,2,17.65Z"/><path class="cls-2" d="M2.71,16l-.08-.51A3.22,3.22,0,0,1,2.71,16Z"/><path class="cls-2" d="M5.1,18c0-.06.08-.06.21-.16l.18-.19c.17-.16.13-.13.19-.19s.17-.15.2-.21S5.93,17,6,17s0,.08,0,.16,0,.1-.13.29a1.15,1.15,0,0,1-.15.2,3,3,0,0,1-.23.2c-.17.14-.2.22-.27.21A.14.14,0,0,1,5.1,18Z"/><path class="cls-2" d="M5.9,22.08c0-.15-.07-.27,0-.33a.16.16,0,0,1,.16,0c.12.08.11.31,0,.45a.32.32,0,0,1-.2.23c-.12,0-.28,0-.29-.06S5.85,22.26,5.9,22.08Z"/><path class="cls-2" d="M7.13,4.63a.21.21,0,0,0-.08-.06l.08-.05c0,.05,0,.12.08.21a1.27,1.27,0,0,1,0,.35,3.86,3.86,0,0,1,0,.67.56.56,0,0,0,0,.19c0,.08,0,.09,0,.14s-.11.19-.14.17,0-.06,0-.1c.07-.36-.12-.94,0-1.2a1.16,1.16,0,0,0,0-.18A.18.18,0,0,0,7.13,4.63Z"/><path class="cls-2" d="M7.53,27.67c-.08,0-.15,0-.22,0l0-.06a.29.29,0,0,1,.2-.08.31.31,0,0,1,.2.09c.12.09.1.16.23.27S8,27.91,8,28a1.42,1.42,0,0,1,.11.24c.06.13.08.11.11.19s0,.33,0,.34,0-.06-.14-.27a2.06,2.06,0,0,0-.15-.3c-.09-.14-.11-.11-.22-.27S7.6,27.69,7.53,27.67Z"/><path class="cls-2" d="M10.84,18.87c-.13.27.06.54-.07.67a.2.2,0,0,1-.24,0c-.07,0,0-.16,0-.27a1.09,1.09,0,0,1,.12-.35,1.06,1.06,0,0,1,.13-.18,2.6,2.6,0,0,1,.23-.25c.16-.15.2-.19.26-.2a.15.15,0,0,1,.14.07c0,.07-.08.21-.21.27s-.14,0-.22.09A.32.32,0,0,0,10.84,18.87Z"/><path class="cls-2" d="M9.45,3.85c0-.09,0-.22,0-.26s.11,0,.3.13.45.31.45.31c.28.22.28.24.52.42s.21.14.29.22.13.21.31.41.12.1.15.17,0,.21.1.25.07,0,.11,0a.14.14,0,0,1,0,.18s-.07,0-.09,0,0-.1,0-.15-.06,0-.12,0a.53.53,0,0,1-.14-.1l-.09-.11a1.36,1.36,0,0,1-.15-.22C11,4.93,11,4.93,11,4.86s-.11-.08-.28-.2-.18-.17-.4-.33a1.2,1.2,0,0,0-.32-.2,3.94,3.94,0,0,0,.28.29c.16.18.16.21.25.27s.22.09.22.14a.11.11,0,0,1-.09.09c-.09,0-.17-.08-.26-.17s0,0-.47-.37A2.81,2.81,0,0,1,9.45,4a2.8,2.8,0,0,1,.33.21,4,4,0,0,1,.35.26s-.05-.06-.11-.14-.12-.16-.18-.22S9.53,4,9.45,3.85Z"/><path class="cls-2" d="M12.2,19.1s-.13,0-.14,0,0,.05.07.11,0,.11.07.24.06.1.08.18a.74.74,0,0,1,0,.21,2.06,2.06,0,0,0,0,.33v-.05l0-.26h.11v.45l-.16.15v-.05l0-.2s-.08-.06-.1-.13a.45.45,0,0,1,0-.13c0-.12,0-.13,0-.2s0-.14-.05-.18-.07,0-.11,0a.68.68,0,0,1-.32-.11c-.12-.06-.27-.17-.25-.2s.12,0,.33,0,.24.05.25,0S12,19.23,12,19.2l-.06,0a.59.59,0,0,0-.31,0,1.35,1.35,0,0,0-.29.05.49.49,0,0,0-.22.14c-.1.11-.08.24-.11.24s-.05-.07,0-.14A.24.24,0,0,1,11,19.3a.75.75,0,0,1,.17-.21,1.1,1.1,0,0,1,.21-.13.52.52,0,0,1,.3-.08.85.85,0,0,1,.19.06c.07,0,.09,0,.13,0s.09,0,.13,0A.12.12,0,0,1,12.2,19.1Z"/><path class="cls-1" d="M8.88,21a.51.51,0,0,1-.46.2A.48.48,0,0,1,8.18,21a8.74,8.74,0,0,1-.85-.91c-.48-.58-.43-.33-.87-.82a.38.38,0,0,0-.25-.14.36.36,0,0,0-.21.09,4.51,4.51,0,0,1,.22-1.33,5.72,5.72,0,0,1,.42-1l.05.06a1.36,1.36,0,0,0,.27.26,7.82,7.82,0,0,1,1.09,1.2,4.38,4.38,0,0,1,.66,1,4.57,4.57,0,0,1,.19.86C9,20.72,9,20.84,8.88,21Z"/><path class="cls-1" d="M9.41,24.78a.42.42,0,0,1-.26.21c-.19,0-.28-.19-.65-.44A1.46,1.46,0,0,0,8,24.31c-.34-.59-.23-.72-.71-1.58s-.68-.85-1-1.53l0-.07A4.92,4.92,0,0,1,6,19.7l.15.06c.42.14.55.46,1.16,1.16s.83.71,1.45,1.49a2.79,2.79,0,0,1,.56.91,9.85,9.85,0,0,1,.13,1A.65.65,0,0,1,9.41,24.78Z"/><path class="cls-2" d="M10,24.57a1.09,1.09,0,0,1-.24.58.84.84,0,0,1-.64.31,1.07,1.07,0,0,1-.39-.2A2,2,0,0,1,8.35,25c-.27-.23-.48-.59-.4-.66s.41.13.55.22c.37.25.46.46.65.44a.42.42,0,0,0,.26-.21.65.65,0,0,0,.05-.42,9.85,9.85,0,0,0-.13-1,2.79,2.79,0,0,0-.56-.91c-.62-.78-.75-.7-1.45-1.49s-.74-1-1.16-1.16c-.07,0-.25-.07-.29-.2a.39.39,0,0,1,.34-.4.38.38,0,0,1,.25.14c.44.49.39.24.87.82a8.74,8.74,0,0,0,.85.91.48.48,0,0,0,.24.12.51.51,0,0,0,.46-.2c.07-.11.08-.23,0-.6a4.57,4.57,0,0,0-.19-.86,4.38,4.38,0,0,0-.66-1A7.82,7.82,0,0,0,7,17.29,1.36,1.36,0,0,1,6.69,17a.9.9,0,0,1-.17-.27c-.15-.41.72-1.14.83-1.05s0,.19-.16.53-.13.33-.19.38-.09.06-.08.1.15.07.29.15a.81.81,0,0,1,.24.29c.17.26.32.27.59.53a3.79,3.79,0,0,1,.54.76,4.57,4.57,0,0,1,.43.77s.07.25.22.74c0,0,.07.24.14.56s.08.37.06.45a.68.68,0,0,1-.31.42c-.23.12-.47,0-.5.07s.1.15.21.25a3.65,3.65,0,0,1,.56.77,3.48,3.48,0,0,1,.38.75,4.14,4.14,0,0,1,.18.64A2.38,2.38,0,0,1,10,24.57Z"/><path class="cls-3" d="M2.71,16l-.08-.51A3.22,3.22,0,0,1,2.71,16Z"/><path class="cls-3" d="M14.06,12.7c0,.45-.05.83-.08,1.17,0,.15,0,.29-.05.43a10.06,10.06,0,0,1-.39,2.15,3.67,3.67,0,0,0-.37,1.33,4.84,4.84,0,0,1,0,.77c-.05.54-.24.62-.26,1.12s.11.45,0,.74a1.51,1.51,0,0,1-.53.75,1.58,1.58,0,0,1-.67.41,1.66,1.66,0,0,1-1.32-.46,2.93,2.93,0,0,1-.9-1.77,5.14,5.14,0,0,1-.1-1.49c.06-1,.31-1.19.37-2.15,0-.51,0-.3-.09-1.64,0-.29-.05-1-.13-2.32,0-.47,0-.92-.22-1s-.19.1-.26.19a4.45,4.45,0,0,0-.71,1.54c-.22.76-.25.52-.56,1.49a17.19,17.19,0,0,1-.52,1.79.69.69,0,0,1,0,.1l-.06.1c-.18.32-.28.38-.54.85L6.64,17a5.72,5.72,0,0,0-.42,1A4.51,4.51,0,0,0,6,19.25v.29a.81.81,0,0,0,0,.16,4.92,4.92,0,0,0,.29,1.43l0,.07c.27.68.46.63,1,1.53s.37,1,.71,1.58a1.06,1.06,0,0,0,.1.17,8.58,8.58,0,0,0,.53.69h0a5.41,5.41,0,0,1,.46.69,6.09,6.09,0,0,1,.44.94c.23.66.43,1.22.17,1.71a1.46,1.46,0,0,1-.74.61,1.42,1.42,0,0,1-1.22.06c-.26-.17-.28-.42-.46-.81S7,27.92,6.27,27c-.13-.17-.54-.68-.86-1.14-.57-.79-.71-1.16-1.24-2C3.34,22.49,3.08,22.6,2.89,22a3.12,3.12,0,0,0-.5-1.05,4.47,4.47,0,0,0-.53-.51A9.3,9.3,0,0,1,.7,19.08a3.55,3.55,0,0,1-.59-1,2.9,2.9,0,0,1,0-1.64c.23-1,.39-1.95.63-2.91.33-1.32.2-.88.77-3.18.28-1.12.42-1.67.54-2.12.31-1.18.37-1.27.84-2.93A14,14,0,0,0,3.68,2,9.21,9.21,0,0,0,3.74.72s0,0,0-.06S3.65.28,3.79.13A.32.32,0,0,1,4.17,0c.1.06.1.21.07.4a4.55,4.55,0,0,1-.07.45c-.1.69,0,.57-.09,1.47a16.48,16.48,0,0,1-.38,2c-.06.25-.25,1.09-.57,2.3-.24.89-.37,1.36-.58,2-.36,1.15-.46,1.28-.71,2.17-.13.46-.22.9-.41,1.77C1,14.72,1.11,14.55.88,15.4a10.12,10.12,0,0,0-.41,1.81,2.09,2.09,0,0,0,.28,1.43s.19.26.28.22,0-.25.05-.5a2.17,2.17,0,0,1,.35-.79c.18-.35,0-.31.22-1.54.12-.73.17-.7.21-1.14,0-.13,0-.3,0-.3s.12.31.15.57a3.21,3.21,0,0,1,0,.63c-.05.48-.13.58-.22,1.08A9.69,9.69,0,0,1,1.67,18c-.14.46-.26.46-.26.74a2.46,2.46,0,0,0,.37.94c.11.21.16.26.2.26s.1-.06.32-.76a1.52,1.52,0,0,0,.11-.57,2.46,2.46,0,0,0-.17-.44,2.06,2.06,0,0,1,0-.79c0-.33,0-.45.1-.89a4.08,4.08,0,0,1,.11-.92,6.59,6.59,0,0,1,.16,1.13c0,.16.05.32.07.48a1.9,1.9,0,0,0,0,.34,3.07,3.07,0,0,0,.08-1c0-.18,0-.32,0-.37s0-.12,0-.17c.07.36.17.73.26.73s.09-.21.24-.93a13.12,13.12,0,0,0,.29-1.6,2.23,2.23,0,0,0,0-1c-.07-.2-.17-.35-.13-.37s.22.13.33.33a1.16,1.16,0,0,1,.11.46,5.44,5.44,0,0,1,0,1.09c-.07.46-.12.42-.24,1s-.06.64-.18,1.1c-.08.29-.1.26-.28.83a9.45,9.45,0,0,0-.31,1.09,8.72,8.72,0,0,0-.19,1.06,3.82,3.82,0,0,0,0,.7c.07.48.37.73.72,1.13.07.08.36.53.93,1.43s.91,1.41,1.09,1.77a7,7,0,0,0,.66,1.21c.22.29.33.36.63.78l.5.75a5.69,5.69,0,0,1,.44.7c.1.25.1.39.24.46s.24,0,.53,0a1.5,1.5,0,0,0,.57-.18A1.14,1.14,0,0,0,9.2,28a1.5,1.5,0,0,0-.06-1.42,5,5,0,0,0-.44-.68c-.15-.23-.28-.46-.55-.94-.07-.11-.12-.21-.19-.33l-.07-.13,0-.07c-.22-.41-.32-.63-.53-1.05s-.25-.45-.5-.94a9.69,9.69,0,0,0-.55-1.06.28.28,0,0,0-.22-.15H6a.66.66,0,0,0-.39.24c-.13.11-.17.2-.33.33s-.22.16-.26.13,0-.3.16-.5.26-.22.35-.42c0,0,.11-.24,0-.3s-.35.12-.44.18l0,.05c-.12.1-.18.19-.19.19s.37-.63.26-.73a.11.11,0,0,0-.07,0c-.09,0-.16,0-.17,0s.14-.17.16-.37-.09-.33-.05-.35.23.28.33.24,0-.31.05-.7a1.93,1.93,0,0,1,.15-.48,1.89,1.89,0,0,0,.06-.18A5.62,5.62,0,0,0,5.8,18l.12-.45c.21-.66.35-.87.24-1s-.23,0-.72-.06c-.09,0-.27,0-.27-.07a3.42,3.42,0,0,1,.7-.2,1,1,0,0,0,.4-.19.75.75,0,0,0,.22-.27A7.43,7.43,0,0,0,7,14.28a4.7,4.7,0,0,0,.75-1.51,3.52,3.52,0,0,1,.52-1.33A5.16,5.16,0,0,0,8.59,11c.22-.31.23-.35.22-.4s-.26-.25-.72-.43c-.28-.11-.44-.14-.44-.16a1.44,1.44,0,0,1,.72.05c.62.16.93.52,1.07.41s0-.41.07-.46.18,0,.24.13.06.31.06.49a2.49,2.49,0,0,0,.16.76c.09.37.13.64.2,1.1a8.06,8.06,0,0,1,.13,1.22A10.82,10.82,0,0,1,10.23,15c-.05.56-.08.85-.15,1.25a9.78,9.78,0,0,0-.27,1.46,3.92,3.92,0,0,0,.11,1,7.64,7.64,0,0,0,.55,1.53c.31.72.44.87.62.95a1,1,0,0,0,.65,0,1.19,1.19,0,0,0,.77-.53c.15-.29,0-.5,0-1a6.62,6.62,0,0,1,.11-1.28,19.66,19.66,0,0,1,.55-2.47c.2-.75.26-.89.34-1.33a11.53,11.53,0,0,0,.14-1.39,17.5,17.5,0,0,0-.09-2.65,21.27,21.27,0,0,0-.28-2.21c-.06-.4-.18-.9-.4-1.92s-.31-1.4-.46-2c-.26-1-.39-1.57-.53-2-.21-.59-.41-1-.48-1.23s0-.2,0-.22.42.18.62.47a2.45,2.45,0,0,1,.32,1.05,8.53,8.53,0,0,0,.4,1.24,19.58,19.58,0,0,1,.65,2.7c.09.47.22,1.16.34,2.08S13.91,10,14,11,14.06,12.5,14.06,12.7Z"/><path class="cls-3" d="M12.44,19.9v.45l-.16.15v-.05l0-.2s0,0,0,0v-.05l0-.26Z"/><path class="cls-3" d="M11.36,18.38c0,.07-.08.21-.21.27s-.14,0-.22.09a.32.32,0,0,0-.09.13c-.13.27.06.54-.07.67a.2.2,0,0,1-.24,0c-.07,0,0-.16,0-.27a1.09,1.09,0,0,1,.12-.35,1.06,1.06,0,0,1,.13-.18,2.6,2.6,0,0,1,.23-.25c.16-.15.2-.19.26-.2A.15.15,0,0,1,11.36,18.38Z"/><path class="cls-3" d="M12.3,20.21v0s-.08-.06-.1-.13a.45.45,0,0,1,0-.13c0-.12,0-.13,0-.2s0-.14-.05-.18-.07,0-.11,0a.68.68,0,0,1-.32-.11c-.12-.06-.27-.17-.25-.2s.12,0,.33,0,.24.05.25,0S12,19.23,12,19.2l-.06,0a.59.59,0,0,0-.31,0,1.35,1.35,0,0,0-.29.05.49.49,0,0,0-.22.14c-.1.11-.08.24-.11.24s-.05-.07,0-.14A.24.24,0,0,1,11,19.3a.75.75,0,0,1,.17-.21,1.1,1.1,0,0,1,.21-.13.52.52,0,0,1,.3-.08.85.85,0,0,1,.19.06c.07,0,.09,0,.13,0s.09,0,.13,0a.12.12,0,0,1,.07.12s-.13,0-.14,0,0,.05.07.11,0,.11.07.24.06.1.08.18a.74.74,0,0,1,0,.21A2.06,2.06,0,0,0,12.3,20.21Z"/><path class="cls-3" d="M6,17.18s0,.1-.13.29a1.15,1.15,0,0,1-.15.2,3,3,0,0,1-.23.2c-.17.14-.2.22-.27.21A.14.14,0,0,1,5.1,18c0-.06.08-.06.21-.16l.18-.19c.17-.16.13-.13.19-.19s.17-.15.2-.21S5.93,17,6,17,6,17.1,6,17.18Z"/><path class="cls-3" d="M5.81,18.38a1.27,1.27,0,0,1-.22.37.82.82,0,0,0-.17.3,1,1,0,0,1-.18.42c-.07.08-.16.16-.19.16s.07-.15.15-.29c.19-.35.16-.43.35-.85A3.57,3.57,0,0,1,5.8,18c0-.08.09-.14.11-.14S5.91,18.15,5.81,18.38Z"/><path class="cls-3" d="M6.1,22.21a.32.32,0,0,1-.2.23c-.12,0-.28,0-.29-.06s.24-.12.29-.3-.07-.27,0-.33a.16.16,0,0,1,.16,0C6.17,21.84,6.16,22.07,6.1,22.21Z"/><path class="cls-3" d="M6.32,21.25a1.21,1.21,0,0,1-.05.14l0,.09c0,.18,0,.26-.06.26a.79.79,0,0,1-.14-.5.28.28,0,0,1,0-.09c0-.11,0-.2,0-.22s.17.08.23.2A.5.5,0,0,1,6.32,21.25Z"/><path class="cls-3" d="M8.26,25.52c0,.06,0,.18-.11.23a.49.49,0,0,1-.43.12c-.17,0-.34-.12-.34-.18s0,0,.1-.05.11-.11.16-.2c.18-.32.18-.27.19-.33a1.73,1.73,0,0,0,0-.45.62.62,0,0,1,0-.22s0,0,0,0,0,0,.06,0H8a.16.16,0,0,0,0,.09.52.52,0,0,1,0,.11,1.7,1.7,0,0,0,0,.27.66.66,0,0,1,0,.25c0,.05,0,.06-.09.17s-.07.19-.06.2.05,0,.11,0S8.21,25.43,8.26,25.52Z"/><path class="cls-3" d="M8.23,28.74s0-.06-.14-.27a2.06,2.06,0,0,0-.15-.3c-.09-.14-.11-.11-.22-.27s-.12-.21-.19-.23-.15,0-.22,0l0-.06a.29.29,0,0,1,.2-.08.31.31,0,0,1,.2.09c.12.09.1.16.23.27S8,27.91,8,28a1.42,1.42,0,0,1,.11.24c.06.13.08.11.11.19S8.27,28.73,8.23,28.74Z"/><path class="cls-3" d="M2.27,18.92a.13.13,0,0,1-.14,0s0-.08-.07-.16C2,18.56,2,18.58,2,18.44s0-.16,0-.29,0-.08-.07-.17a1,1,0,0,1,0-.38c0-.13,0-.23.06-.23s.09.14.09.28,0,.22,0,.3.08.05.13.13,0,.12,0,.26a2.27,2.27,0,0,0,.08.29C2.31,18.77,2.33,18.86,2.27,18.92Z"/><path class="cls-3" d="M1.24,15.87a.68.68,0,0,1,0,.15c0,.1-.07.13-.11.24a1,1,0,0,0-.07.21c0,.13,0,.14,0,.3A.69.69,0,0,1,1,17a.68.68,0,0,1-.08.17c0-.05.05-.19.09-.39s0-.17.05-.35a.88.88,0,0,1,.07-.26A.42.42,0,0,0,1.17,16a.7.7,0,0,0,0-.17c0-.22,0-.27,0-.27A.85.85,0,0,1,1.24,15.87Z"/><path class="cls-3" d="M7.23,5.94c0,.08,0,.09,0,.14s-.11.19-.14.17,0-.06,0-.1c.07-.36-.12-.94,0-1.2a1.16,1.16,0,0,0,0-.18.18.18,0,0,0,0-.14.21.21,0,0,0-.08-.06l.08-.05c0,.05,0,.12.08.21a1.27,1.27,0,0,1,0,.35,3.86,3.86,0,0,1,0,.67A.56.56,0,0,0,7.23,5.94Z"/><path class="cls-3" d="M11.71,5.71s-.07,0-.09,0,0-.1,0-.15-.06,0-.12,0a.53.53,0,0,1-.14-.1l-.09-.11a1.36,1.36,0,0,1-.15-.22C11,4.93,11,4.93,11,4.86s-.11-.08-.28-.2-.18-.17-.4-.33a1.2,1.2,0,0,0-.32-.2,3.94,3.94,0,0,0,.28.29c.16.18.16.21.25.27s.22.09.22.14a.11.11,0,0,1-.09.09c-.09,0-.17-.08-.26-.17s0,0-.47-.37A2.81,2.81,0,0,1,9.45,4a2.8,2.8,0,0,1,.33.21,4,4,0,0,1,.35.26s-.05-.06-.11-.14-.12-.16-.18-.22S9.53,4,9.45,3.85s0-.22,0-.26.11,0,.3.13.45.31.45.31c.28.22.28.24.52.42s.21.14.29.22.13.21.31.41.12.1.15.17,0,.21.1.25.07,0,.11,0A.14.14,0,0,1,11.71,5.71Z"/><path class="cls-3" d="M10,24.57a1.09,1.09,0,0,1-.24.58.84.84,0,0,1-.64.31,1.07,1.07,0,0,1-.39-.2l-.14-.08h0A1,1,0,0,1,8.35,25c-.27-.23-.48-.59-.4-.66a.05.05,0,0,1,0,0,1.46,1.46,0,0,1,.51.24c.37.25.46.46.65.44a.42.42,0,0,0,.26-.21.65.65,0,0,0,.05-.42,9.85,9.85,0,0,0-.13-1,2.79,2.79,0,0,0-.56-.91c-.62-.78-.75-.7-1.45-1.49s-.74-1-1.16-1.16L6,19.7a.24.24,0,0,1-.14-.14.35.35,0,0,1,.13-.3H6a.36.36,0,0,1,.21-.09.38.38,0,0,1,.25.14c.44.49.39.24.87.82a8.74,8.74,0,0,0,.85.91.48.48,0,0,0,.24.12.51.51,0,0,0,.46-.2c.07-.11.08-.23,0-.6a4.57,4.57,0,0,0-.19-.86,4.38,4.38,0,0,0-.66-1A7.82,7.82,0,0,0,7,17.29,1.36,1.36,0,0,1,6.69,17L6.64,17a.88.88,0,0,1-.12-.21c-.15-.41.72-1.14.83-1.05s0,0,0,.08a.69.69,0,0,1,0,.1l-.12.35c-.09.27-.13.33-.19.38s-.09.06-.08.1.15.07.29.15a.81.81,0,0,1,.24.29c.17.26.32.27.59.53a3.79,3.79,0,0,1,.54.76,4.57,4.57,0,0,1,.43.77s.07.25.22.74c0,0,.07.24.14.56s.08.37.06.45a.68.68,0,0,1-.31.42c-.23.12-.47,0-.5.07s.1.15.21.25a3.65,3.65,0,0,1,.56.77,3.48,3.48,0,0,1,.38.75,4.14,4.14,0,0,1,.18.64A2.38,2.38,0,0,1,10,24.57Z"/></g></g></svg>