<svg xmlns="http://www.w3.org/2000/svg" viewBox="0 0 29.4 75.28"><defs><style>.cls-1{fill:#5e4e4d;}.cls-2{fill:#7c6c6b;}.cls-3{fill:#6b5f5e;}</style></defs><g id="Слой_2" data-name="Слой 2"><g id="Слой_1-2" data-name="Слой 1"><polygon class="cls-1" points="0.47 0.05 0 75.28 1.69 75.28 1.71 73.39 2.19 1.16 29.39 1.16 29.4 0 2.2 0.05 0.47 0.05"/><polygon class="cls-1" points="26.8 37.55 27.31 36.7 27.31 37.36 26.84 38.01 26.8 37.55"/><polygon class="cls-2" points="1.69 75.28 26.14 75.28 27.53 25.87 28.27 22.67 28.54 23.48 28.66 19.61 28.55 19.45 28.57 15.92 28.25 10.02 29.12 9.91 29.3 6.87 29.4 0 2.19 0 1.69 75.28"/><polygon class="cls-1" points="27.85 75.28 28.83 40.44 28.54 23.48 28.27 22.67 27.53 25.87 26.14 75.28 27.85 75.28"/><polygon class="cls-1" points="14.64 26.02 14.52 27.52 14.16 28.63 13.56 32.19 13.48 33.96 13.41 44.86 13.97 42.21 14.03 38.01 14.03 34.45 14.03 33.49 14.2 31.47 14.42 28.74 14.77 27.57 14.64 26.02"/><path class="cls-3" d="M14.17,41.23l-.83,4.05-.36,1-.26,1-.26,2.32-.17,4.8-.18,9.36.21,4.52.28,5.11.05,1.48,0,.46h3.38l-.16-2.39-.21-2.43-.26-4.14-.13-2.38-.07-2.2-.08-5.31L15,51l-.2-3.35A8,8,0,0,1,15,45.91a3.93,3.93,0,0,0-.07-1.14c-.13-.52-.44-2.29-.44-2.29Z"/><polygon class="cls-3" points="26.97 26.55 26.39 28.65 26 29.33 25.66 30.18 25.48 30.95 25.39 31.54 25.16 32.31 24.95 33.33 24.89 34.57 24.83 35.77 24.69 36.97 24.32 40.48 24.25 41.23 24.12 44.24 24.04 47.97 23.98 52.98 23.98 56.8 23.95 57.95 23.95 58.45 23.8 61.73 23.72 63.58 23.39 67.76 23.18 70.54 23.07 74.36 23.02 75.28 26.14 75.28 26.84 59.65 27.25 36.08 27.46 28.48 26.97 26.55"/></g></g></svg>