<svg xmlns="http://www.w3.org/2000/svg" viewBox="0 0 16.75 48.85"><defs><style>.cls-1{fill:#5d718a;}.cls-2{fill:#7693b9;}.cls-3{fill:#4e6480;}.cls-4{fill:#6d85a5;}</style></defs><g id="Слой_2" data-name="Слой 2"><g id="Слой_1-2" data-name="Слой 1"><polygon class="cls-1" points="1.88 37.11 1.83 38.38 1.99 40.29 1.91 42.49 2.18 44.01 2.93 45.74 3.3 47.33 4.06 47.76 5.66 47.53 8.06 47.41 9.94 47.52 12.02 48.09 13.12 48.4 13.67 48.4 13.88 47.78 14.02 46.1 14.11 42.38 14.52 40.48 14.82 38.9 14.89 38.32 13.99 38.86 11.86 38.98 7.8 38.98 5.03 38.54 2.86 37.52 1.88 37.11"/><polygon class="cls-2" points="16.26 34.05 16.19 34.57 15.72 36.47 15.29 37.59 14.56 38.27 13.94 38.6 12.69 38.7 10.42 38.86 8.02 38.86 6.53 38.68 5.8 38.54 5.01 38.39 3.5 37.62 2.28 36.92 1.18 36.21 0.74 35.65 0.45 35.09 0.45 33.5 0.54 31.83 0.72 30.91 0.98 29.59 1.12 28.27 1.24 26.84 1.3 25.48 1.3 22.72 1.06 19.74 0.9 17.46 0.73 15.18 0.66 13.51 0.75 11.35 0.82 9.12 0.82 6.21 0.89 3.64 1.1 1.6 1.24 0 15.4 0 15.51 1.42 15.35 2.12 15.12 3.6 15.09 4.81 15.12 8.43 15.22 12.1 15.31 16.15 15.32 21.25 15.49 22.51 15.48 23.68 15.6 25.37 15.83 27.99 16.08 30.68 16.26 34.05"/><path class="cls-1" d="M9.45,26.06c-.07.05-.2,0-.2,0a.22.22,0,0,1-.1-.12c-.05-.07-.06-.13-.08-.13a5.5,5.5,0,0,0,0,1.05,4.86,4.86,0,0,1,0,.88,5.49,5.49,0,0,1-.15-.82,10.36,10.36,0,0,0-.55-1.69c-.05-.13-.1-.29-.16-.46-.17-.53-.28-1-.44-1.59a8.11,8.11,0,0,1-.46-1.63.44.44,0,0,0-.09-.28c-.08-.08-.15-.08-.25-.13s-.19-.28-.39-.59a2.55,2.55,0,0,0-.27-.35c-.07-.09-.27-.35-.42-1.48-.06-.41,0-.42-.14-1.31-.06-.54-.06-.47-.06-.54a4.79,4.79,0,0,1,.08-1,2.27,2.27,0,0,0,0-.82c0-.12,0-.09-.07-.26A5.13,5.13,0,0,1,5.55,13c.1-1.13,0-.91.13-2.86,0,0,.09-1.19.35-2.66.13-.76.12-.29.23-.87,0-.21.07-.39.22-.47a.15.15,0,0,1,.09,0h0a.37.37,0,0,1,.21,0,.75.75,0,0,1,.37.47,4.87,4.87,0,0,1,.34,1.27c0,.66.11.25.46,2.3.22,1.29.33,2.31.42,3s0,.51.11,1l0,.24v0c.1.81.18,1.52.29,2.24,0,.16.05.32.08.49a3.84,3.84,0,0,1,.08.57,7.79,7.79,0,0,1,0,1.22c0,.45,0,.91-.05,1.36a.7.7,0,0,0,0,.32c.05.22.17.24.19.4a.41.41,0,0,1-.27.44s0,0-.06,0-.11-.09-.14-.09.13.77.28,1.28l.11.37c.12.43.2.74.25,1v0a1.82,1.82,0,0,1,.07.59,3.74,3.74,0,0,0,0,.68C9.42,25.74,9.54,26,9.45,26.06Z"/><path class="cls-3" d="M16.75,33.69v.61l-.2,1.11L16,37.07l-.68,1.18-.1.07-.53.37h0l-.28.19-1.62.26-3.41.13-1.35-.09-1.53-.1-.53,0-2.37-.79-1.58-.91-.13-.11L1.63,37h0l-.92-.72L0,35V32.75l.07-.86.25-1.1.25-1.5.16-2.08.18-1.9L.86,24,.73,21.75l-.08-1.5-.17-1.7L.35,16.41.2,14.77l0-2.22L.25,10.8.37,7.62l0-2.77.1-2.1L.62.93.75,0h.49L1.1,1.6l-.21,2L.82,6.21V9.12L.75,11.35.66,13.51l.07,1.67L.9,17.46l.16,2.28.24,3v2.76l-.06,1.36-.12,1.43L1,29.59.72,30.91l-.18.92L.45,33.5v1.59l.29.56.44.56,1.1.71,1.22.7L5,38.39l.79.15.73.14L8,38.86h2.4l2.27-.16,1.25-.1.62-.33.73-.68.43-1.12.47-1.9.07-.52-.18-3.37L15.83,28l-.23-2.62-.12-1.69V22.51l-.17-1.26v-5.1l-.09-4-.1-3.67,0-3.62,0-1.21.23-1.48.16-.7L15.4,0H16l0,1,0,.46-.11,1.1-.21,1.05,0,1.6V9.12L15.74,11l0,1.89,0,2v2.18l.09,2.93,0,1.82.08.61.11,2.65.06,1.41.34,3.95.19,2.06Z"/><path class="cls-4" d="M15,24.44a27.6,27.6,0,0,0-.78-4.6,32.61,32.61,0,0,0-1.09-3.56A6.8,6.8,0,0,0,12,13.93a11.74,11.74,0,0,0-1.91-1.43c-.2-.14-.5-.35-.75-.24a.61.61,0,0,0-.31.53c0,.31.24.4.33.74a1.48,1.48,0,0,1-.12.9,2.71,2.71,0,0,0,.58,1.92A18.29,18.29,0,0,1,11,20.49,24.93,24.93,0,0,1,11.54,25a17.51,17.51,0,0,1-.21,4.57,16.37,16.37,0,0,1-.93,3.09,8.84,8.84,0,0,1-1,2,1.89,1.89,0,0,0,.31.22.61.61,0,0,0,.41.11c.1,0,.2-.1.34-.33a2.51,2.51,0,0,0,.29-.79c.09-.35.21-.69.32-1l.22-.72c.17-.59.24-.92.26-.92a3.49,3.49,0,0,1-.08.65c-.05.29-.07.44-.1.6s-.07.35-.28,1.12a3.82,3.82,0,0,1-.39,1.11.94.94,0,0,1-.36.38.82.82,0,0,1-.49.1,1,1,0,0,1-.58-.34l-.14.15-.3.28a1.14,1.14,0,0,0,.3.23,7.28,7.28,0,0,1,.75.37.71.71,0,0,0,.23.12c.23.06.35,0,.44.06a.24.24,0,0,1,0,.28c-.06.1-.18.08-.33.2a.69.69,0,0,0-.17.2c-.19.28-.74.25-.89.24a2.54,2.54,0,0,1-1.34-.53,2.41,2.41,0,0,1-.29-.24,4.84,4.84,0,0,1-.45.24,3.09,3.09,0,0,0-1.06.75,1.23,1.23,0,0,0-.4.9.86.86,0,0,0,.14.38l.73.14L8,38.86H9.36a6.37,6.37,0,0,0,1.23-.66,7.57,7.57,0,0,0,2.14-2.35,12.77,12.77,0,0,0,1.5-3.52A20.86,20.86,0,0,0,15,28.44,24.64,24.64,0,0,0,15,24.44ZM13.65,30c0,.12-.13.1-.2.21s0,.29,0,.59-.06.14-.13.37a3.08,3.08,0,0,0-.08.56c0,.47.09.52,0,.85a2.54,2.54,0,0,1-.17.46,3.27,3.27,0,0,0-.25.55c0,.14,0,.14-.07.32s-.11.38-.21.46-.19,0-.3.14-.13.22-.15.22,0-.2,0-.41S12,34,12,33.68a1.46,1.46,0,0,1,.15-.73c.14-.39.22-.37.28-.65s0-.29,0-.75a2.29,2.29,0,0,1,.12-.59,3.42,3.42,0,0,0,.18-.44c0-.26,0-.3,0-.51a.68.68,0,0,1,.41-.45.44.44,0,0,1,.39.05A.32.32,0,0,1,13.65,30Z"/><path class="cls-4" d="M10.55,36.12a.24.24,0,0,1,0,.28c-.06.1-.18.08-.33.2a.69.69,0,0,0-.17.2c-.19.28-.74.25-.89.24a2.54,2.54,0,0,1-1.34-.53,2.41,2.41,0,0,1-.29-.24,9,9,0,0,0,1.26-.93,1.14,1.14,0,0,0,.3.23,7.28,7.28,0,0,1,.75.37.71.71,0,0,0,.23.12C10.34,36.12,10.46,36,10.55,36.12Z"/><path class="cls-4" d="M11.55,31.29a3.49,3.49,0,0,1-.08.65c-.05.29-.07.44-.1.6s-.07.35-.28,1.12a3.82,3.82,0,0,1-.39,1.11.94.94,0,0,1-.36.38.82.82,0,0,1-.49.1,1,1,0,0,1-.58-.34,1.83,1.83,0,0,0,.13-.16,1.89,1.89,0,0,0,.31.22.61.61,0,0,0,.41.11c.1,0,.2-.1.34-.33a2.51,2.51,0,0,0,.29-.79c.09-.35.21-.69.32-1l.22-.72C11.46,31.62,11.53,31.29,11.55,31.29Z"/><path class="cls-4" d="M13.65,30c0,.12-.13.1-.2.21s0,.29,0,.59-.06.14-.13.37a3.08,3.08,0,0,0-.08.56c0,.47.09.52,0,.85a2.54,2.54,0,0,1-.17.46,3.27,3.27,0,0,0-.25.55c0,.14,0,.14-.07.32s-.11.38-.21.46-.19,0-.3.14-.13.22-.15.22,0-.2,0-.41S12,34,12,33.68a1.46,1.46,0,0,1,.15-.73c.14-.39.22-.37.28-.65s0-.29,0-.75a2.29,2.29,0,0,1,.12-.59,3.42,3.42,0,0,0,.18-.44c0-.26,0-.3,0-.51a.68.68,0,0,1,.41-.45.44.44,0,0,1,.39.05A.32.32,0,0,1,13.65,30Z"/><path class="cls-4" d="M2.42,12.7a1.57,1.57,0,0,0-1.26.94c0,.13,0,.15,0,.83a10.33,10.33,0,0,0,0,1.23c.08.5.27.51.41,1.12a3.83,3.83,0,0,1,.11.88c.05,1-.19,1.23,0,1.61.14.22.28.25.41.54a1.57,1.57,0,0,1,.1.61c0,.79.37,1.66.47,5.41.07,2.45,0,3.92.36,4.69a2.61,2.61,0,0,1,.46,1.3,1.54,1.54,0,0,0,.07.64,1,1,0,0,0,.45.57.72.72,0,0,0,.51.06c.33-.11.45-.58.5-.82a21.22,21.22,0,0,0,.38-4.13c0-.88,0-.84,0-1.51,0-1.29,0-1.79,0-2.63,0-1.21-.07-2.13-.12-2.8-.15-2-.27-1.74-.49-4.08A17.34,17.34,0,0,0,4.21,14a1.84,1.84,0,0,0-.72-1.07A1.55,1.55,0,0,0,2.42,12.7Z"/><path class="cls-1" d="M10.59,36.4c-.06.1-.18.08-.33.2a.69.69,0,0,0-.17.2c-.19.28-.74.25-.89.24a2.54,2.54,0,0,1-1.34-.53,2.41,2.41,0,0,1-.29-.24,3.64,3.64,0,0,1-.43-.44c-.18-.2-.39-.46-.65-.8l0-.06a10.88,10.88,0,0,1-1.1-1.64,5.86,5.86,0,0,1-.82-2.28,2.5,2.5,0,0,0-.12-.83c-.16-.48-.36-.54-.36-.88s.11-.39.06-.73c0-.16-.06-.17-.09-.35a2.14,2.14,0,0,1,0-.69c.07-.54.11-.82.34-.95a.53.53,0,0,1,.46,0c.22.12.27.42.3.62s0,.42.09.63a.62.62,0,0,1,.08.12l.07.12.12.25A11.55,11.55,0,0,1,5.9,30a8.71,8.71,0,0,0,.36,1.56c.23.54.32.44.6,1.07.2.44.24.7.35.94a1.64,1.64,0,0,0,.23.39,2,2,0,0,0,.26.26l.36.34.37.37.4.4a1.14,1.14,0,0,0,.3.23,7.28,7.28,0,0,1,.75.37.71.71,0,0,0,.23.12c.23.06.35,0,.44.06A.24.24,0,0,1,10.59,36.4Z"/><path class="cls-3" d="M9.21,25.13c0,.05-.05.08-.06.08s0-.13-.07-.39A2.06,2.06,0,0,0,9,24.46a3.27,3.27,0,0,0-.3-.51c-.15-.32.07-.55.12-1s-.16-.67-.3-1.28A4.61,4.61,0,0,1,8.5,20a5.13,5.13,0,0,0,0-1.47v0c-.05-.51-.14-1.18-.2-2.4-.09-1.79,0-1.48,0-3s-.17-1-.55-4.07A10.51,10.51,0,0,0,7,6.67c-.1-.23-.25-.57-.36-.55s-.11.24-.12.32a12.69,12.69,0,0,0-.54,2.43c-.07.55-.12,1.25-.21,2.62a14.67,14.67,0,0,0-.07,2.32c0,.4.07.51.28,1.67.31,1.73.26,1.69.38,2.27a17.79,17.79,0,0,0,.93,3.05,18.39,18.39,0,0,1-1.06-2.95,17.75,17.75,0,0,1-.48-2c-.13-.64-.18-1.08-.2-1.24a18,18,0,0,1-.12-2.9c.05-1.34.2-1.08.29-2.69,0-.21.11-.83.33-2.07,0-.29.15-.83.45-.93a.68.68,0,0,1,.45,0,.47.47,0,0,1,.16.12,2.71,2.71,0,0,1,.54,1.16c.18.92.1,1,.25,1.65s.19.57.29,1.08a10.62,10.62,0,0,1,.09,1.3c.07,1,.24,1,.32,1.93,0,.53,0,.61,0,1.24v0c0,.12,0,.26,0,.43s0,.76.1,1.61c0,.33,0,.59.05.81,0,.64.07.88.1,1.43s0,.86,0,1.25c0,1-.07,1.13,0,1.49l0,.2c.11.72.31.83.23,1.31a.09.09,0,0,1,0,.05,2.25,2.25,0,0,0-.06.75,1.67,1.67,0,0,0,.1.46,2.76,2.76,0,0,1,.15.34h0A.78.78,0,0,1,9.21,25.13Z"/><path class="cls-3" d="M9.22,36.09c0,.06-.37.1-.53-.07s-.06-.25-.19-.35-.18,0-.26-.13-.05-.13-.08-.23,0,0,0-.05A.64.64,0,0,0,7.88,35a4.08,4.08,0,0,1-.7-1l-.06-.1c-.3-.57-.22-.74-.65-1.56-.18-.35-.18-.3-.3-.55A7.91,7.91,0,0,1,5.7,30a10.81,10.81,0,0,1-.39-1.78c0-.14,0-.15,0-.27s0-.09,0-.16c-.07-.91-.19-1.53-.19-1.62s.11.52.24,1.1.26,1.12.33,1.44.24.94.42,1.57.28.92.41,1.26.23.47.56,1.2c.13.3.19.46.24.58s.09.22.18.41.16.33.23.46a1.9,1.9,0,0,0,.47.66.86.86,0,0,1,.18.17l.06.1c.06.13,0,.18.07.27s.31.1.38.24,0,.14,0,.23S9.22,36.06,9.22,36.09Z"/><path class="cls-3" d="M11.47,31.94c-.05.29-.07.44-.1.6s-.07.35-.28,1.12a3.82,3.82,0,0,1-.39,1.11.94.94,0,0,1-.36.38.82.82,0,0,1-.49.1,1,1,0,0,1-.58-.34l0,0c-.23-.22-.21-.28-.47-.56l-.06-.06c-.15-.16-.17-.16-.44-.44a2.61,2.61,0,0,1-.39-.44c-.13-.22-.06-.24-.2-.49a2.1,2.1,0,0,0-.15-.22,2.23,2.23,0,0,0-.2-.24,1.77,1.77,0,0,1-.23-.21,1.22,1.22,0,0,1-.19-.51A2.42,2.42,0,0,0,6.53,31a3.3,3.3,0,0,1,.42.66,4.8,4.8,0,0,0,.38.7,1.39,1.39,0,0,0,.2.21,1.13,1.13,0,0,1,.21.22c.18.27.13.36.3.62a3.72,3.72,0,0,0,.49.51l.27.27.34.34.26.24a1.89,1.89,0,0,0,.31.22.61.61,0,0,0,.41.11c.1,0,.2-.1.34-.33a2.51,2.51,0,0,0,.29-.79c.09-.35.21-.69.32-1l.22-.72c.17-.59.24-.92.26-.92A3.49,3.49,0,0,1,11.47,31.94Z"/><path class="cls-1" d="M13.65,30c0,.12-.13.1-.2.21s0,.29,0,.59-.06.14-.13.37a3.08,3.08,0,0,0-.08.56c0,.47.09.52,0,.85a2.54,2.54,0,0,1-.17.46,3.27,3.27,0,0,0-.25.55c0,.14,0,.14-.07.32s-.11.38-.21.46-.19,0-.3.14-.13.22-.15.22,0-.2,0-.41S12,34,12,33.68a1.46,1.46,0,0,1,.15-.73c.14-.39.22-.37.28-.65s0-.29,0-.75a2.29,2.29,0,0,1,.12-.59,3.42,3.42,0,0,0,.18-.44c0-.26,0-.3,0-.51a.68.68,0,0,1,.41-.45.44.44,0,0,1,.39.05A.32.32,0,0,1,13.65,30Z"/><path class="cls-4" d="M9.46,22.62c0,.07-.06.53-.15,1.46-.05-.22-.13-.53-.25-1a.09.09,0,0,0,0-.05c.08-.48-.12-.59-.23-1.31l0-.2s0,0,.06,0a.41.41,0,0,0,.27-.44C9.12,21,9,21,9,20.74a.7.7,0,0,1,0-.32C9,20,9,19.51,9,19.06a7.79,7.79,0,0,0,0-1.22,3.84,3.84,0,0,0-.08-.57c0-.17-.06-.33-.08-.49a3.23,3.23,0,0,1,.28-1,7.82,7.82,0,0,1,0,1c0,.31,0,.76.12,1.3.13.78.24.72.23,1.13a4.39,4.39,0,0,0,0,1.05,4,4,0,0,0,.1.45A4.54,4.54,0,0,1,9.46,22.62Z"/><path class="cls-4" d="M8.75,34.31c0,.1-.08.2-.13.3a2,2,0,0,1-.19.33l-.37-.37-.36-.34c-.07-.13-.14-.29-.23-.46s-.13-.28-.18-.41l.06-.15a5,5,0,0,0,.16-.55,2.1,2.1,0,0,1,.15.22c.14.25.07.27.2.49a2.61,2.61,0,0,0,.39.44c.27.28.29.28.44.44Z"/><path class="cls-4" d="M7.14,35.83a.53.53,0,0,1-.23,0,.75.75,0,0,1-.52-.63.42.42,0,0,1,.05-.2l0,.06C6.75,35.37,7,35.63,7.14,35.83Z"/><path class="cls-4" d="M9.13,28.68c0,.6,0,2.14-.07,4a5,5,0,0,1-.26,1.52l-.27-.27A3.72,3.72,0,0,1,8,33.39c-.17-.26-.12-.35-.3-.62a1.13,1.13,0,0,0-.21-.22,23.55,23.55,0,0,0,.38-2.43,24.27,24.27,0,0,0,.26-2.55c0-.37,0-.87.05-1.62,0-.31.06-.56.09-.76a10.36,10.36,0,0,1,.55,1.69A5.49,5.49,0,0,0,9,27.7a4.86,4.86,0,0,0,0-.88,5.5,5.5,0,0,1,0-1.05s0,.06.08.13a2,2,0,0,0,0,.23C9.09,26.74,9.1,27,9.13,28.68Z"/><path class="cls-3" d="M15.26,38.32a1,1,0,0,0,0,.15,14.82,14.82,0,0,1-.45,2.13,9.93,9.93,0,0,0-.46,1.7,7.7,7.7,0,0,0,0,1.28A10.61,10.61,0,0,1,14.45,45a9.06,9.06,0,0,0-.17,1.18,1.75,1.75,0,0,1,0,.67c-.07.22-.2.35-.16.57s.06.12.1.25a1,1,0,0,1-.23.86.88.88,0,0,1-.4.29c-.33.1-.64-.12-.94-.28a7.77,7.77,0,0,0-1.93-.65,7.92,7.92,0,0,0-1.39-.25c-.23,0-.25,0-.94,0-1.34,0-1.4,0-1.88,0s-.26.06-1.14.2A3.22,3.22,0,0,1,4.19,48c-.26,0-.33-.09-.71-.13s-.41,0-.49-.1,0-.44-.05-.88a6.36,6.36,0,0,0-.35-1.22c-.24-.74-.36-1.11-.42-1.23-.28-.59-.48-.71-.51-1.14,0-.14,0-.15,0-.67s0-.45,0-.67c0-.64.14-.65.13-1.11s-.14-.44-.13-.92a3.05,3.05,0,0,0,0-.8c0-.19-.06-.17-.11-.4a3.4,3.4,0,0,1-.05-1.13A1.35,1.35,0,0,1,1.63,37l.3.22a.63.63,0,0,1,0,.13,11.1,11.1,0,0,0,.36,2.26,4.61,4.61,0,0,1,.06,1.75,4.9,4.9,0,0,0-.2.95,3.54,3.54,0,0,0,.1,1.06,6.53,6.53,0,0,0,.34.82c.32.69.47,1,.61,1.4a4.4,4.4,0,0,1,.34,1.08c.05.35,0,.5.12.65s.34.25,1,.21a9.27,9.27,0,0,0,1.51-.23,7.19,7.19,0,0,1,1.59-.17c.41,0,.57.07,1.27.1.44,0,.44,0,.72,0a6.09,6.09,0,0,1,1.28.24c.82.22.73.33,1.22.4a1.4,1.4,0,0,1,.79.22c.1.08.17.18.28.18s.26-.17.31-.3,0-.22,0-.48.12-.26.14-.51a1.48,1.48,0,0,0,0-.42c0-.25,0-.38,0-.41A4.59,4.59,0,0,1,13.87,45c.14-.67-.07-.6,0-1.94A6,6,0,0,1,14,41.81c.09-.47.25-1,.25-1,.15-.52.21-.63.18-.87a1.13,1.13,0,0,1,0-.49c0-.14.09-.14.19-.33a1.82,1.82,0,0,0,.16-.43h0Z"/><path class="cls-3" d="M3.37,40.34a2.8,2.8,0,0,0-.06.83c0,.35,0,.5.08,1s0,.54.09,1.09c0,.39.06.72.13,1.14s.19,1.1.29,1.09S4,45,4,44.62a8.49,8.49,0,0,0-.2-1.46c-.12-.71-.07-.71-.21-1.63A5.3,5.3,0,0,0,3.37,40.34Z"/><path class="cls-3" d="M4.55,40.11a3.84,3.84,0,0,0-.19,1.09,8,8,0,0,0,.1,1.06c0,.44,0,.8,0,1.5a7.61,7.61,0,0,0,.08,1.49c0,.2.1.58.18.58s.14-.31.16-.47a2.46,2.46,0,0,0,0-.71,8.68,8.68,0,0,1,0-1.14,6.62,6.62,0,0,0-.14-1.76,6.49,6.49,0,0,1-.2-.86A4.51,4.51,0,0,1,4.55,40.11Z"/><path class="cls-3" d="M6,40.81a4.52,4.52,0,0,0-.18,1c0,.4-.07.71-.08.8,0,.83,0,.9,0,1.58s-.13.81-.11,1.38a2.41,2.41,0,0,0,.21,1.1A4.7,4.7,0,0,0,6,45.29c.06-.88.06-1.59.06-2s0-.35,0-1A12.35,12.35,0,0,0,6,40.81Z"/><path class="cls-3" d="M7,39.18c-.08,0-.17.55-.18,1a3,3,0,0,0,0,.48v.9c0,.92,0,1.38,0,1.82,0,1-.1.91-.09,1.55A4.11,4.11,0,0,0,7,46.59c.06,0,.1-.27.14-.56a6.6,6.6,0,0,0,.06-1c0-.73.07-.69.07-1.19s-.06-.54-.11-1.28a10.06,10.06,0,0,1,0-1.71,4.89,4.89,0,0,0,0-1.22C7.11,39.47,7.07,39.18,7,39.18Z"/><path class="cls-3" d="M8.63,39.79a6.08,6.08,0,0,0-.23,1.27c-.06.51-.12,1-.16,1.76C8.19,44,8.3,44,8.23,45c0,.42,0,.74,0,1.38,0,.32,0,.52.06.52s.15-.46.18-.61a8.36,8.36,0,0,0,.18-1.46c0-.79-.07-.8-.07-1.73,0-.27,0-.69,0-1.23a10.94,10.94,0,0,0,.07-1.49A1.6,1.6,0,0,0,8.63,39.79Z"/><path class="cls-3" d="M9.79,40.11a6.7,6.7,0,0,0-.16,1.14c-.18,1.64-.16,1.29-.24,2-.17,1.65-.08,1.22-.21,2.43-.07.64-.14,1.21,0,1.23s.17-.2.19-.25a3.1,3.1,0,0,0,.14-1.28,7.07,7.07,0,0,1,.13-.79c.08-.58.06-.75.14-2.06,0-.72.07-.86.08-1.31A6.8,6.8,0,0,0,9.79,40.11Z"/><path class="cls-3" d="M10.74,40.25a6.1,6.1,0,0,0-.17,1.19c-.31,2.82-.22,2.36-.29,2.8a11.48,11.48,0,0,0-.14,2,.89.89,0,0,0,0,.38c.07,0,.17-.55.19-.66.14-.79.09-1.16.17-1.93s.11-.48.17-1.08c0-.24,0-.45,0-1.76A6,6,0,0,0,10.74,40.25Z"/><path class="cls-3" d="M11.71,40c-.1,0-.2.31-.16.59s.08.2.1.38a1,1,0,0,1-.06.44c-.1.31-.09.83-.25,2.31a21.63,21.63,0,0,0-.24,3.11c0,.37,0,.62.1.62s.2-.65.25-.93A19.64,19.64,0,0,0,11.71,44c.12-1.49.17-2.24.19-2.29a1.62,1.62,0,0,0,0-.8,1.9,1.9,0,0,1-.08-.36c0-.18,0-.31,0-.44S11.76,40,11.71,40Z"/><path class="cls-3" d="M12.89,39.33c-.25,0-.22,1.28-.22,1.42A20.5,20.5,0,0,1,12.34,43a28.37,28.37,0,0,0-.13,3.13c0,.77.06.68,0,1.26,0,.18,0,.38,0,.39s.17-.36.23-.59a5,5,0,0,0,.13-1.57c0-.32,0-.78.08-1.71,0-.43.08-1,.18-2,.07-.78.11-1.1.16-1.72l.06-.82h0C13.2,39.31,13,39.31,12.89,39.33Z"/></g></g></svg>