<svg xmlns="http://www.w3.org/2000/svg" viewBox="0 0 14.06 29.31"><defs><style>.cls-1{fill:#efd0b8;}.cls-2{fill:#7c6c6b;}.cls-3{fill:#caa080;}</style></defs><g id="Слой_2" data-name="Слой 2"><g id="Слой_1-2" data-name="Слой 1"><path class="cls-1" d="M.41,13.16a11.53,11.53,0,0,0,.14,1.39c.08.44.14.58.34,1.33a19.66,19.66,0,0,1,.55,2.47,6.62,6.62,0,0,1,.11,1.28c0,.5-.15.71,0,1a1.19,1.19,0,0,0,.77.53,1,1,0,0,0,.65,0c.18-.08.31-.23.62-.95a7.64,7.64,0,0,0,.55-1.53,3.92,3.92,0,0,0,.11-1A9.78,9.78,0,0,0,4,16.21c-.07-.4-.1-.69-.15-1.25a10.82,10.82,0,0,1-.07-1.23,8.06,8.06,0,0,1,.13-1.22c.07-.46.11-.73.2-1.1a2.49,2.49,0,0,0,.16-.76c0-.18,0-.35.06-.49s.18-.16.24-.13,0,.36.07.46.45-.25,1.07-.41A1.44,1.44,0,0,1,6.41,10s-.16.05-.44.16c-.46.18-.7.27-.72.43s0,.09.22.4a5.16,5.16,0,0,0,.31.42,3.52,3.52,0,0,1,.52,1.33,4.7,4.7,0,0,0,.75,1.51,7.43,7.43,0,0,0,.52,1.53.75.75,0,0,0,.22.27,1,1,0,0,0,.4.19,3.42,3.42,0,0,1,.7.2s-.18.06-.27.07c-.49.07-.63,0-.72.06s0,.31.24,1l.12.45a3.57,3.57,0,0,1,.25.47c.19.42.16.5.35.85.08.14.17.27.15.29s-.12-.08-.19-.16a1,1,0,0,1-.18-.42.82.82,0,0,0-.17-.3,1.93,1.93,0,0,1,.15.48c.05.39,0,.67.05.7s.29-.27.33-.24-.08.16-.05.35.19.34.16.37-.08-.05-.17,0a.11.11,0,0,0-.07,0c-.11.1.28.72.26.73s-.07-.09-.19-.19l0-.05c-.09-.06-.36-.25-.44-.18s0,.27,0,.3c.09.2.2.22.35.42s.22.45.16.5-.17-.07-.26-.13-.2-.22-.33-.33A.66.66,0,0,0,8,21.24a.79.79,0,0,1-.14.5s0-.08-.06-.26l0-.09a9.69,9.69,0,0,0-.55,1.06c-.25.49-.23.4-.5.94s-.31.64-.53,1.05a.62.62,0,0,1,0,.22,1.73,1.73,0,0,0,0,.45c0,.06,0,0,.19.33,0,.09.08.16.16.2s.1,0,.1.05-.17.16-.34.18a.49.49,0,0,1-.43-.12c-.06-.05-.14-.17-.11-.23s.3,0,.38,0,.1,0,.11,0,0,0-.06-.2-.08-.12-.09-.17a.66.66,0,0,1,0-.25,1.7,1.7,0,0,0,0-.27c-.07.12-.12.22-.19.33-.27.48-.4.71-.55.94a5,5,0,0,0-.44.68A1.5,1.5,0,0,0,4.86,28a1.14,1.14,0,0,0,.37.57,1.5,1.5,0,0,0,.57.18c.29.07.43.1.53,0s.14-.21.24-.46a5.69,5.69,0,0,1,.44-.7l.5-.75c.3-.42.41-.49.63-.78A7,7,0,0,0,8.8,24.9c.18-.36.48-.83,1.09-1.77s.86-1.35.93-1.43c.35-.4.65-.65.72-1.13a3.82,3.82,0,0,0,0-.7,8.72,8.72,0,0,0-.19-1.06A9.45,9.45,0,0,0,11,17.72c-.18-.57-.2-.54-.28-.83-.12-.46-.06-.51-.18-1.1s-.17-.55-.24-1a5.44,5.44,0,0,1,0-1.09,1.16,1.16,0,0,1,.11-.46c.11-.2.29-.36.33-.33s-.06.17-.13.37a2.23,2.23,0,0,0,0,1,13.12,13.12,0,0,0,.29,1.6c.15.72.18.92.24.93s.19-.37.26-.73c0,.05,0,.11,0,.17s0,.19,0,.37a3.07,3.07,0,0,0,.08,1,1.9,1.9,0,0,0,0-.34c0-.16.05-.32.07-.48a6.59,6.59,0,0,1,.16-1.13,4.08,4.08,0,0,1,.11.92c.05.44.08.56.1.89a2.06,2.06,0,0,1,0,.79,2.46,2.46,0,0,0-.17.44,1.52,1.52,0,0,0,.11.57c.22.7.26.75.32.76s.09,0,.2-.26a2.46,2.46,0,0,0,.37-.94c0-.28-.12-.28-.26-.74a9.69,9.69,0,0,1-.17-1.16c-.09-.5-.17-.6-.22-1.08a3.21,3.21,0,0,1,0-.63c0-.26.1-.57.15-.57s0,.17,0,.3c0,.44.09.41.21,1.14.2,1.23,0,1.19.22,1.54a2.17,2.17,0,0,1,.35.79c0,.25,0,.47,0,.5s.25-.19.28-.22a2.09,2.09,0,0,0,.28-1.43,10.12,10.12,0,0,0-.41-1.81c-.23-.85-.11-.68-.55-2.76-.19-.87-.28-1.31-.41-1.77-.25-.89-.35-1-.71-2.17-.21-.66-.34-1.13-.58-2-.32-1.21-.51-2-.57-2.3a16.48,16.48,0,0,1-.38-2c-.1-.9,0-.78-.09-1.47A4.55,4.55,0,0,1,9.82.43L8.08.18,6.61.36,5.45.39,3.28.88l-.63.28c-.07.23-.27.64-.48,1.23-.14.42-.27.94-.53,2-.15.6-.25,1.07-.46,2S.84,7.9.78,8.3A21.27,21.27,0,0,0,.5,10.51,17.5,17.5,0,0,0,.41,13.16Zm12.41,2.41s0,0,0,.27a.7.7,0,0,0,0,.17.42.42,0,0,0,.09.16.88.88,0,0,1,.07.26c0,.18,0,.22,0,.35s.09.34.09.39a1.15,1.15,0,0,1-.14-.4c0-.16,0-.17,0-.3a1,1,0,0,0-.07-.21c0-.11-.08-.14-.11-.24a.68.68,0,0,1,0-.15A.85.85,0,0,1,12.82,15.57Zm-.92,2.51C12,18,12,18,12,18s0-.15,0-.3.06-.28.09-.28,0,.1.06.23a1,1,0,0,1,0,.38c0,.09,0,.08-.07.17s0,.15,0,.29,0,.12-.11.36c0,.08,0,.13-.07.16a.13.13,0,0,1-.14,0c-.06-.06,0-.15,0-.29a2.27,2.27,0,0,0,.08-.29C11.89,18.2,11.86,18.15,11.9,18.08ZM11.35,16a3.22,3.22,0,0,1,.08-.51ZM6.8,27.58l0,.06c-.07.05-.14,0-.22,0s-.08.08-.19.23-.13.13-.22.27a2.06,2.06,0,0,0-.15.3c-.1.21-.12.27-.14.27s-.07-.19,0-.34.05-.06.11-.19A1.42,1.42,0,0,1,6,28c0-.06.07,0,.14-.11s.11-.18.23-.27a.31.31,0,0,1,.2-.09A.29.29,0,0,1,6.8,27.58Zm1.65-5.2c0,.06-.17.1-.29.06a.32.32,0,0,1-.2-.23c-.06-.14-.07-.37,0-.45a.16.16,0,0,1,.16,0c.06.06-.05.18,0,.33S8.45,22.3,8.45,22.38ZM9,18a.14.14,0,0,1-.1.13c-.07,0-.1-.07-.27-.21a3,3,0,0,1-.23-.2,1.15,1.15,0,0,1-.15-.2c-.12-.19-.13-.26-.13-.29s0-.16,0-.16,0,.08.07.18.06.07.2.21,0,0,.19.19l.18.19C8.88,17.89,9,17.89,9,18Zm-2.13-12a.56.56,0,0,0,0-.19,3.86,3.86,0,0,1,0-.67,1.27,1.27,0,0,1,0-.35c0-.09.06-.16.08-.21L7,4.57a.21.21,0,0,0-.08.06.18.18,0,0,0,0,.14A1.16,1.16,0,0,0,7,5c.09.26-.1.84,0,1.2,0,0,0,.09,0,.1s-.13-.07-.14-.17S6.82,6,6.83,5.94Zm-3.38-1a.11.11,0,0,1-.09-.09s.1-.07.22-.14.09-.09.25-.27a3.94,3.94,0,0,0,.28-.29,1.2,1.2,0,0,0-.32.2c-.22.16-.2.19-.4.33s-.21.12-.28.2,0,.07-.16.28a1.36,1.36,0,0,1-.15.22l-.09.11a.53.53,0,0,1-.14.1c-.06,0-.1,0-.12,0s0,.13,0,.15-.06,0-.09,0a.14.14,0,0,1,0-.18s.07,0,.11,0,0-.14.1-.25.06-.09.15-.17.17-.26.31-.41.09-.06.29-.22.24-.2.52-.42c0,0,.17-.13.45-.31s.26-.16.3-.13.06.17,0,.26-.23.09-.39.27-.07.1-.18.22-.11.12-.11.14a4,4,0,0,1,.35-.26A2.8,2.8,0,0,1,4.61,4a2.81,2.81,0,0,1-.43.37c-.51.41-.4.3-.47.37S3.54,4.94,3.45,4.92ZM3.13,18.74c-.08-.06-.13,0-.22-.09s-.24-.2-.21-.27a.15.15,0,0,1,.14-.07c.06,0,.1.05.26.2a2.6,2.6,0,0,1,.23.25,1.06,1.06,0,0,1,.13.18,1.09,1.09,0,0,1,.12.35c0,.11,0,.22-.05.27a.2.2,0,0,1-.24,0c-.13-.13.06-.4-.07-.67A.32.32,0,0,0,3.13,18.74ZM1.62,19.9h.11l0,.26v.05a2.06,2.06,0,0,0,0-.33.74.74,0,0,1,0-.21c0-.08.05-.07.08-.18s0-.16.07-.24.08-.08.07-.11-.11,0-.14,0A.12.12,0,0,1,1.93,19s.06,0,.13,0,.06,0,.13,0a.85.85,0,0,1,.19-.06.52.52,0,0,1,.3.08,1.1,1.1,0,0,1,.21.13.75.75,0,0,1,.17.21.24.24,0,0,1,.06.14c0,.07,0,.14,0,.14s0-.13-.11-.24a.49.49,0,0,0-.22-.14,1.35,1.35,0,0,0-.29-.05.59.59,0,0,0-.31,0l-.06,0s-.1.09-.09.11.09,0,.25,0,.32-.05.33,0-.13.14-.25.2a.68.68,0,0,1-.32.11s-.08,0-.11,0,0,.11,0,.18,0,.08,0,.2a.45.45,0,0,1,0,.13c0,.07-.07.13-.1.13l0,.2v.05l-.16-.15Z"/><path class="cls-2" d="M12.85,15.84c0-.22,0-.27,0-.27a.85.85,0,0,0,0,.3.68.68,0,0,0,0,.15c0,.1.07.13.11.24a1,1,0,0,1,.07.21c0,.13,0,.14,0,.3a1.15,1.15,0,0,0,.14.4c0-.05,0-.19-.09-.39s0-.17,0-.35a.88.88,0,0,0-.07-.26.42.42,0,0,1-.09-.16A.7.7,0,0,1,12.85,15.84Z"/><path class="cls-2" d="M12,17.65c0,.15,0,.22,0,.3s-.08.05-.13.13,0,.12,0,.26a2.27,2.27,0,0,1-.08.29c0,.14-.06.23,0,.29a.13.13,0,0,0,.14,0c.05,0,.05-.08.07-.16.06-.24.1-.22.11-.36s0-.16,0-.29,0-.08.07-.17a1,1,0,0,0,0-.38c0-.13,0-.23-.06-.23S12,17.51,12,17.65Z"/><path class="cls-2" d="M11.35,16l.08-.51A3.22,3.22,0,0,0,11.35,16Z"/><path class="cls-2" d="M9,18c0-.06-.08-.06-.21-.16l-.18-.19c-.17-.16-.13-.13-.19-.19s-.17-.15-.2-.21,0-.18-.07-.18,0,.08,0,.16,0,.1.13.29a1.15,1.15,0,0,0,.15.2,3,3,0,0,0,.23.2c.17.14.2.22.27.21A.14.14,0,0,0,9,18Z"/><path class="cls-2" d="M8.16,22.08c0-.15.07-.27,0-.33a.16.16,0,0,0-.16,0c-.12.08-.11.31,0,.45a.32.32,0,0,0,.2.23c.12,0,.28,0,.29-.06S8.21,22.26,8.16,22.08Z"/><path class="cls-2" d="M6.93,4.63A.21.21,0,0,1,7,4.57l-.08-.05c0,.05,0,.12-.08.21a1.27,1.27,0,0,0,0,.35,3.86,3.86,0,0,0,0,.67.56.56,0,0,1,0,.19c0,.08,0,.09,0,.14s.11.19.14.17,0-.06,0-.1c-.07-.36.12-.94,0-1.2a1.16,1.16,0,0,1,0-.18A.18.18,0,0,1,6.93,4.63Z"/><path class="cls-2" d="M6.53,27.67c.08,0,.15,0,.22,0l0-.06a.29.29,0,0,0-.2-.08.31.31,0,0,0-.2.09c-.12.09-.1.16-.23.27s-.09.05-.14.11a1.42,1.42,0,0,0-.11.24c-.06.13-.08.11-.11.19s0,.33,0,.34,0-.06.14-.27a2.06,2.06,0,0,1,.15-.3c.09-.14.11-.11.22-.27S6.46,27.69,6.53,27.67Z"/><path class="cls-2" d="M3.22,18.87c.13.27-.06.54.07.67a.2.2,0,0,0,.24,0c.07,0,.05-.16.05-.27a1.09,1.09,0,0,0-.12-.35,1.06,1.06,0,0,0-.13-.18,2.6,2.6,0,0,0-.23-.25c-.16-.15-.2-.19-.26-.2a.15.15,0,0,0-.14.07c0,.07.08.21.21.27s.14,0,.22.09A.32.32,0,0,1,3.22,18.87Z"/><path class="cls-2" d="M4.61,3.85c0-.09,0-.22,0-.26s-.11,0-.3.13S3.85,4,3.85,4c-.28.22-.28.24-.52.42s-.21.14-.29.22-.13.21-.31.41-.12.1-.15.17,0,.21-.1.25-.07,0-.11,0a.14.14,0,0,0,0,.18s.07,0,.09,0,0-.1,0-.15.06,0,.12,0a.53.53,0,0,0,.14-.1l.09-.11A1.36,1.36,0,0,0,3,5.14c.13-.21.11-.21.16-.28s.11-.08.28-.2.18-.17.4-.33a1.2,1.2,0,0,1,.32-.2,3.94,3.94,0,0,1-.28.29c-.16.18-.16.21-.25.27s-.22.09-.22.14a.11.11,0,0,0,.09.09c.09,0,.17-.08.26-.17s0,0,.47-.37A2.81,2.81,0,0,0,4.61,4a2.8,2.8,0,0,0-.33.21,4,4,0,0,0-.35.26s0-.06.11-.14.12-.16.18-.22S4.53,4,4.61,3.85Z"/><path class="cls-2" d="M1.86,19.1s.13,0,.14,0,0,.05-.07.11,0,.11-.07.24-.06.1-.08.18a.74.74,0,0,0,0,.21,2.06,2.06,0,0,1,0,.33v-.05l0-.26H1.62v.45l.16.15v-.05l0-.2s.08-.06.1-.13a.45.45,0,0,0,0-.13c0-.12,0-.13,0-.2s0-.14,0-.18.07,0,.11,0a.68.68,0,0,0,.32-.11c.12-.06.27-.17.25-.2s-.12,0-.33,0-.24.05-.25,0,0-.08.09-.11l.06,0a.59.59,0,0,1,.31,0,1.35,1.35,0,0,1,.29.05.49.49,0,0,1,.22.14c.1.11.08.24.11.24s0-.07,0-.14a.24.24,0,0,0-.06-.14.75.75,0,0,0-.17-.21A1.1,1.1,0,0,0,2.68,19a.52.52,0,0,0-.3-.08.85.85,0,0,0-.19.06c-.07,0-.09,0-.13,0S2,19,1.93,19A.12.12,0,0,0,1.86,19.1Z"/><path class="cls-1" d="M5.18,21a.51.51,0,0,0,.46.2A.48.48,0,0,0,5.88,21a8.74,8.74,0,0,0,.85-.91c.48-.58.43-.33.87-.82a.38.38,0,0,1,.25-.14.36.36,0,0,1,.21.09,4.51,4.51,0,0,0-.22-1.33,5.72,5.72,0,0,0-.42-1l0,.06a1.36,1.36,0,0,1-.27.26A7.82,7.82,0,0,0,6,18.49a4.38,4.38,0,0,0-.66,1,4.57,4.57,0,0,0-.19.86C5.1,20.72,5.11,20.84,5.18,21Z"/><path class="cls-1" d="M4.65,24.78a.42.42,0,0,0,.26.21c.19,0,.28-.19.65-.44a1.46,1.46,0,0,1,.51-.24c.34-.59.23-.72.71-1.58s.68-.85,1-1.53l0-.07a4.92,4.92,0,0,0,.29-1.43l-.15.06c-.42.14-.55.46-1.16,1.16s-.83.71-1.45,1.49a2.79,2.79,0,0,0-.56.91,9.85,9.85,0,0,0-.13,1A.65.65,0,0,0,4.65,24.78Z"/><path class="cls-2" d="M4,24.57a1.09,1.09,0,0,0,.24.58.84.84,0,0,0,.64.31,1.07,1.07,0,0,0,.39-.2A2,2,0,0,0,5.71,25c.27-.23.48-.59.4-.66s-.41.13-.55.22c-.37.25-.46.46-.65.44a.42.42,0,0,1-.26-.21.65.65,0,0,1-.05-.42,9.85,9.85,0,0,1,.13-1,2.79,2.79,0,0,1,.56-.91c.62-.78.75-.7,1.45-1.49s.74-1,1.16-1.16c.07,0,.25-.07.29-.2a.39.39,0,0,0-.34-.4.38.38,0,0,0-.25.14c-.44.49-.39.24-.87.82a8.74,8.74,0,0,1-.85.91.48.48,0,0,1-.24.12.51.51,0,0,1-.46-.2c-.07-.11-.08-.23,0-.6a4.57,4.57,0,0,1,.19-.86,4.38,4.38,0,0,1,.66-1,7.82,7.82,0,0,1,1.09-1.2A1.36,1.36,0,0,0,7.37,17a.9.9,0,0,0,.17-.27c.15-.41-.72-1.14-.83-1.05s0,.19.16.53.13.33.19.38.09.06.08.1-.15.07-.29.15a.81.81,0,0,0-.24.29c-.17.26-.32.27-.59.53a3.79,3.79,0,0,0-.54.76,4.57,4.57,0,0,0-.43.77s-.07.25-.22.74c0,0-.07.24-.14.56s-.08.37-.06.45a.68.68,0,0,0,.31.42c.23.12.47,0,.5.07s-.1.15-.21.25a3.65,3.65,0,0,0-.56.77,3.48,3.48,0,0,0-.38.75,4.14,4.14,0,0,0-.18.64A2.38,2.38,0,0,0,4,24.57Z"/><path class="cls-3" d="M11.35,16l.08-.51A3.22,3.22,0,0,0,11.35,16Z"/><path class="cls-3" d="M0,12.7c0,.45.05.83.08,1.17,0,.15,0,.29.05.43a10.06,10.06,0,0,0,.39,2.15,3.67,3.67,0,0,1,.37,1.33,4.84,4.84,0,0,0,0,.77c.05.54.24.62.26,1.12s-.11.45,0,.74a1.51,1.51,0,0,0,.53.75,1.58,1.58,0,0,0,.67.41,1.66,1.66,0,0,0,1.32-.46,2.93,2.93,0,0,0,.9-1.77,5.14,5.14,0,0,0,.1-1.49c-.06-1-.31-1.19-.37-2.15,0-.51,0-.3.09-1.64,0-.29.05-1,.13-2.32,0-.47,0-.92.22-1s.19.1.26.19a4.45,4.45,0,0,1,.71,1.54c.22.76.25.52.56,1.49a17.19,17.19,0,0,0,.52,1.79l0,.1.06.1c.18.32.28.38.54.85l.07.13a5.72,5.72,0,0,1,.42,1,4.51,4.51,0,0,1,.22,1.33v.29a.81.81,0,0,1,0,.16,4.92,4.92,0,0,1-.29,1.43l0,.07c-.27.68-.46.63-1,1.53s-.37,1-.71,1.58a1.06,1.06,0,0,1-.1.17,8.58,8.58,0,0,1-.53.69h0a5.41,5.41,0,0,0-.46.69,6.09,6.09,0,0,0-.44.94c-.23.66-.43,1.22-.17,1.71a1.46,1.46,0,0,0,.74.61,1.42,1.42,0,0,0,1.22.06c.26-.17.28-.42.46-.81s.31-.46,1-1.35c.13-.17.54-.68.86-1.14.57-.79.71-1.16,1.24-2C10.72,22.49,11,22.6,11.17,22a3.12,3.12,0,0,1,.5-1.05,4.47,4.47,0,0,1,.53-.51,9.3,9.3,0,0,0,1.16-1.31,3.55,3.55,0,0,0,.59-1,2.9,2.9,0,0,0,0-1.64c-.23-1-.39-1.95-.63-2.91-.33-1.32-.2-.88-.77-3.18-.28-1.12-.42-1.67-.54-2.12-.31-1.18-.37-1.27-.84-2.93A14,14,0,0,1,10.38,2,9.21,9.21,0,0,1,10.32.72s0,0,0-.06.08-.38-.06-.53A.32.32,0,0,0,9.89,0c-.1.06-.1.21-.07.4a4.55,4.55,0,0,0,.07.45c.1.69,0,.57.09,1.47a16.48,16.48,0,0,0,.38,2c.06.25.25,1.09.57,2.3.24.89.37,1.36.58,2,.36,1.15.46,1.28.71,2.17.13.46.22.9.41,1.77.44,2.08.32,1.91.55,2.76a10.12,10.12,0,0,1,.41,1.81,2.09,2.09,0,0,1-.28,1.43s-.19.26-.28.22,0-.25,0-.5a2.17,2.17,0,0,0-.35-.79c-.18-.35,0-.31-.22-1.54-.12-.73-.17-.7-.21-1.14,0-.13,0-.3,0-.3s-.12.31-.15.57a3.21,3.21,0,0,0,0,.63c.05.48.13.58.22,1.08A9.69,9.69,0,0,0,12.39,18c.14.46.26.46.26.74a2.46,2.46,0,0,1-.37.94c-.11.21-.16.26-.2.26s-.1-.06-.32-.76a1.52,1.52,0,0,1-.11-.57,2.46,2.46,0,0,1,.17-.44,2.06,2.06,0,0,0,0-.79c0-.33,0-.45-.1-.89a4.08,4.08,0,0,0-.11-.92,6.59,6.59,0,0,0-.16,1.13c0,.16-.05.32-.07.48a1.9,1.9,0,0,1,0,.34,3.07,3.07,0,0,1-.08-1c0-.18,0-.32,0-.37s0-.12,0-.17c-.07.36-.17.73-.26.73s-.09-.21-.24-.93a13.12,13.12,0,0,1-.29-1.6,2.23,2.23,0,0,1,0-1c.07-.2.17-.35.13-.37s-.22.13-.33.33a1.16,1.16,0,0,0-.11.46,5.44,5.44,0,0,0,0,1.09c.07.46.12.42.24,1s.06.64.18,1.1c.08.29.1.26.28.83a9.45,9.45,0,0,1,.31,1.09,8.72,8.72,0,0,1,.19,1.06,3.82,3.82,0,0,1,0,.7c-.07.48-.37.73-.72,1.13-.07.08-.36.53-.93,1.43S9,24.54,8.8,24.9a7,7,0,0,1-.66,1.21c-.22.29-.33.36-.63.78l-.5.75a5.69,5.69,0,0,0-.44.7c-.1.25-.1.39-.24.46s-.24,0-.53,0a1.5,1.5,0,0,1-.57-.18A1.14,1.14,0,0,1,4.86,28a1.5,1.5,0,0,1,.06-1.42,5,5,0,0,1,.44-.68c.15-.23.28-.46.55-.94.07-.11.12-.21.19-.33l.07-.13,0-.07c.22-.41.32-.63.53-1.05s.25-.45.5-.94a9.69,9.69,0,0,1,.55-1.06A.28.28,0,0,1,8,21.24H8a.66.66,0,0,1,.39.24c.13.11.17.2.33.33S9,22,9,21.94s0-.3-.16-.5-.26-.22-.35-.42c0,0-.11-.24,0-.3s.35.12.44.18l0,.05c.12.1.18.19.19.19s-.37-.63-.26-.73a.11.11,0,0,1,.07,0c.09,0,.16,0,.17,0S9,20.24,9,20s.09-.33.05-.35-.23.28-.33.24,0-.31-.05-.7a1.93,1.93,0,0,0-.15-.48,1.89,1.89,0,0,1-.06-.18A5.62,5.62,0,0,1,8.26,18l-.12-.45c-.21-.66-.35-.87-.24-1s.23,0,.72-.06c.09,0,.27,0,.27-.07a3.42,3.42,0,0,0-.7-.2,1,1,0,0,1-.4-.19.75.75,0,0,1-.22-.27,7.43,7.43,0,0,1-.52-1.53,4.7,4.7,0,0,1-.75-1.51,3.52,3.52,0,0,0-.52-1.33A5.16,5.16,0,0,1,5.47,11c-.22-.31-.23-.35-.22-.4s.26-.25.72-.43c.28-.11.44-.14.44-.16a1.44,1.44,0,0,0-.72.05c-.62.16-.93.52-1.07.41s0-.41-.07-.46-.18,0-.24.13-.06.31-.06.49a2.49,2.49,0,0,1-.16.76c-.09.37-.13.64-.2,1.1a8.06,8.06,0,0,0-.13,1.22A10.82,10.82,0,0,0,3.83,15c0,.56.08.85.15,1.25a9.78,9.78,0,0,1,.27,1.46,3.92,3.92,0,0,1-.11,1,7.64,7.64,0,0,1-.55,1.53c-.31.72-.44.87-.62.95a1,1,0,0,1-.65,0,1.19,1.19,0,0,1-.77-.53c-.15-.29,0-.5,0-1a6.62,6.62,0,0,0-.11-1.28,19.66,19.66,0,0,0-.55-2.47c-.2-.75-.26-.89-.34-1.33a11.53,11.53,0,0,1-.14-1.39A17.5,17.5,0,0,1,.5,10.51,21.27,21.27,0,0,1,.78,8.3c.06-.4.18-.9.4-1.92s.31-1.4.46-2c.26-1,.39-1.57.53-2,.21-.59.41-1,.48-1.23s0-.2,0-.22-.42.18-.62.47a2.45,2.45,0,0,0-.32,1.05,8.53,8.53,0,0,1-.4,1.24A19.58,19.58,0,0,0,.66,6.4C.57,6.87.44,7.56.32,8.48S.15,10,.08,11,0,12.5,0,12.7Z"/><path class="cls-3" d="M1.62,19.9v.45l.16.15v-.05l0-.2s0,0,0,0v-.05l0-.26Z"/><path class="cls-3" d="M2.7,18.38c0,.07.08.21.21.27s.14,0,.22.09a.32.32,0,0,1,.09.13c.13.27-.06.54.07.67a.2.2,0,0,0,.24,0c.07,0,.05-.16.05-.27a1.09,1.09,0,0,0-.12-.35,1.06,1.06,0,0,0-.13-.18,2.6,2.6,0,0,0-.23-.25c-.16-.15-.2-.19-.26-.2A.15.15,0,0,0,2.7,18.38Z"/><path class="cls-3" d="M1.76,20.21v0s.08-.06.1-.13a.45.45,0,0,0,0-.13c0-.12,0-.13,0-.2s0-.14,0-.18.07,0,.11,0a.68.68,0,0,0,.32-.11c.12-.06.27-.17.25-.2s-.12,0-.33,0-.24.05-.25,0,0-.08.09-.11l.06,0a.59.59,0,0,1,.31,0,1.35,1.35,0,0,1,.29.05.49.49,0,0,1,.22.14c.1.11.08.24.11.24s0-.07,0-.14a.24.24,0,0,0-.06-.14.75.75,0,0,0-.17-.21A1.1,1.1,0,0,0,2.68,19a.52.52,0,0,0-.3-.08.85.85,0,0,0-.19.06c-.07,0-.09,0-.13,0S2,19,1.93,19a.12.12,0,0,0-.07.12s.13,0,.14,0,0,.05-.07.11,0,.11-.07.24-.06.1-.08.18a.74.74,0,0,0,0,.21A2.06,2.06,0,0,1,1.76,20.21Z"/><path class="cls-3" d="M8.08,17.18s0,.1.13.29a1.15,1.15,0,0,0,.15.2,3,3,0,0,0,.23.2c.17.14.2.22.27.21A.14.14,0,0,0,9,18c0-.06-.08-.06-.21-.16l-.18-.19c-.17-.16-.13-.13-.19-.19s-.17-.15-.2-.21,0-.18-.07-.18S8.08,17.1,8.08,17.18Z"/><path class="cls-3" d="M8.25,18.38a1.27,1.27,0,0,0,.22.37.82.82,0,0,1,.17.3,1,1,0,0,0,.18.42c.07.08.16.16.19.16s-.07-.15-.15-.29c-.19-.35-.16-.43-.35-.85A3.57,3.57,0,0,0,8.26,18c0-.08-.09-.14-.11-.14S8.15,18.15,8.25,18.38Z"/><path class="cls-3" d="M8,22.21a.32.32,0,0,0,.2.23c.12,0,.28,0,.29-.06s-.24-.12-.29-.3.07-.27,0-.33a.16.16,0,0,0-.16,0C7.89,21.84,7.9,22.07,8,22.21Z"/><path class="cls-3" d="M7.74,21.25a1.21,1.21,0,0,0,0,.14l0,.09c0,.18,0,.26.06.26a.79.79,0,0,0,.14-.5.28.28,0,0,0,0-.09c0-.11,0-.2,0-.22s-.17.08-.23.2A.5.5,0,0,0,7.74,21.25Z"/><path class="cls-3" d="M5.8,25.52c0,.06,0,.18.11.23a.49.49,0,0,0,.43.12c.17,0,.34-.12.34-.18s0,0-.1-.05-.11-.11-.16-.2c-.18-.32-.18-.27-.19-.33a1.73,1.73,0,0,1,0-.45.62.62,0,0,0,0-.22s0,0,0,0,0,0-.06,0h0a.16.16,0,0,1,0,.09.52.52,0,0,0,0,.11,1.7,1.7,0,0,1,0,.27.66.66,0,0,0,0,.25c0,.05,0,.06.09.17s.07.19.06.2,0,0-.11,0S5.85,25.43,5.8,25.52Z"/><path class="cls-3" d="M5.83,28.74s0-.06.14-.27a2.06,2.06,0,0,1,.15-.3c.09-.14.11-.11.22-.27s.12-.21.19-.23.15,0,.22,0l0-.06a.29.29,0,0,0-.2-.08.31.31,0,0,0-.2.09c-.12.09-.1.16-.23.27s-.09.05-.14.11a1.42,1.42,0,0,0-.11.24c-.06.13-.08.11-.11.19S5.79,28.73,5.83,28.74Z"/><path class="cls-3" d="M11.79,18.92a.13.13,0,0,0,.14,0c.05,0,.05-.08.07-.16.06-.24.1-.22.11-.36s0-.16,0-.29,0-.08.07-.17a1,1,0,0,0,0-.38c0-.13,0-.23-.06-.23s-.09.14-.09.28,0,.22,0,.3-.08.05-.13.13,0,.12,0,.26a2.27,2.27,0,0,1-.08.29C11.75,18.77,11.73,18.86,11.79,18.92Z"/><path class="cls-3" d="M12.82,15.87a.68.68,0,0,0,0,.15c0,.1.07.13.11.24a1,1,0,0,1,.07.21c0,.13,0,.14,0,.3a1.15,1.15,0,0,0,.14.4c0-.05,0-.19-.09-.39s0-.17,0-.35a.88.88,0,0,0-.07-.26.42.42,0,0,1-.09-.16.7.7,0,0,1,0-.17c0-.22,0-.27,0-.27A.85.85,0,0,0,12.82,15.87Z"/><path class="cls-3" d="M6.83,5.94c0,.08,0,.09,0,.14s.11.19.14.17,0-.06,0-.1c-.07-.36.12-.94,0-1.2a1.16,1.16,0,0,1,0-.18.18.18,0,0,1,0-.14A.21.21,0,0,1,7,4.57l-.08-.05c0,.05,0,.12-.08.21a1.27,1.27,0,0,0,0,.35,3.86,3.86,0,0,0,0,.67A.56.56,0,0,1,6.83,5.94Z"/><path class="cls-3" d="M2.35,5.71s.07,0,.09,0,0-.1,0-.15.06,0,.12,0a.53.53,0,0,0,.14-.1l.09-.11A1.36,1.36,0,0,0,3,5.14c.13-.21.11-.21.16-.28s.11-.08.28-.2.18-.17.4-.33a1.2,1.2,0,0,1,.32-.2,3.94,3.94,0,0,1-.28.29c-.16.18-.16.21-.25.27s-.22.09-.22.14a.11.11,0,0,0,.09.09c.09,0,.17-.08.26-.17s0,0,.47-.37A2.81,2.81,0,0,0,4.61,4a2.8,2.8,0,0,0-.33.21,4,4,0,0,0-.35.26s0-.06.11-.14.12-.16.18-.22.31-.12.39-.27,0-.22,0-.26-.11,0-.3.13S3.85,4,3.85,4c-.28.22-.28.24-.52.42s-.21.14-.29.22-.13.21-.31.41-.12.1-.15.17,0,.21-.1.25-.07,0-.11,0A.14.14,0,0,0,2.35,5.71Z"/><path class="cls-3" d="M4,24.57a1.09,1.09,0,0,0,.24.58.84.84,0,0,0,.64.31,1.07,1.07,0,0,0,.39-.2l.14-.08h0A1,1,0,0,0,5.71,25c.27-.23.48-.59.4-.66l0,0a1.46,1.46,0,0,0-.51.24c-.37.25-.46.46-.65.44a.42.42,0,0,1-.26-.21.65.65,0,0,1-.05-.42,9.85,9.85,0,0,1,.13-1,2.79,2.79,0,0,1,.56-.91c.62-.78.75-.7,1.45-1.49s.74-1,1.16-1.16l.15-.06a.24.24,0,0,0,.14-.14.35.35,0,0,0-.13-.3h0a.36.36,0,0,0-.21-.09.38.38,0,0,0-.25.14c-.44.49-.39.24-.87.82a8.74,8.74,0,0,1-.85.91.48.48,0,0,1-.24.12.51.51,0,0,1-.46-.2c-.07-.11-.08-.23,0-.6a4.57,4.57,0,0,1,.19-.86,4.38,4.38,0,0,1,.66-1,7.82,7.82,0,0,1,1.09-1.2A1.36,1.36,0,0,0,7.37,17l0-.06a.88.88,0,0,0,.12-.21c.15-.41-.72-1.14-.83-1.05s0,0,0,.08l0,.1.12.35c.09.27.13.33.19.38s.09.06.08.1-.15.07-.29.15a.81.81,0,0,0-.24.29c-.17.26-.32.27-.59.53a3.79,3.79,0,0,0-.54.76,4.57,4.57,0,0,0-.43.77s-.07.25-.22.74c0,0-.07.24-.14.56s-.08.37-.06.45a.68.68,0,0,0,.31.42c.23.12.47,0,.5.07s-.1.15-.21.25a3.65,3.65,0,0,0-.56.77,3.48,3.48,0,0,0-.38.75,4.14,4.14,0,0,0-.18.64A2.38,2.38,0,0,0,4,24.57Z"/></g></g></svg>