<svg xmlns="http://www.w3.org/2000/svg" viewBox="0 0 31.95 64.91"><defs><style>.cls-1{fill:#7c6c6b;}.cls-2{fill:#5e4e4d;}.cls-3{fill:#6b5f5e;}.cls-4{fill:#756867;}</style></defs><g id="Слой_2" data-name="Слой 2"><g id="Слой_1-2" data-name="Слой 1"><polyline class="cls-1" points="20.01 0 27.98 0 30.18 58.79 25.13 63.08 7.22 60.43 1.79 0.46 1.75 0.01 8 0.01 20.01 0"/><path class="cls-2" d="M18.89,62.18l-.18,0,6.42.95,5.05-4.29L28,0H29.7L32,59.66l-6.36,5.25-20-3L0,0H1.75l.34,3.74.84,9.35L5,36l.57,6.24h0a.69.69,0,0,0-.15.24"/><path class="cls-3" d="M20.63,56.25a.64.64,0,0,1,0,.15s-.12.07-.12.07h-.19a3,3,0,0,1-.53.14,1.61,1.61,0,0,1-.77.48h-.7l.29,1.48.24.19.25.36.21.38.07.3,0,.17,0,.34v.15l-.15.45-.42.61s-.36.34-.46.41.19.14.38.2L7.22,60.43,5.58,42.28h0A2.28,2.28,0,0,1,6,41.85L5,36,2.93,13.1V10.91l0-.72v-.1l0-.9L3,8.4l.69-3V5.17S3.54,4,3.54,3.79a.34.34,0,0,1,0,.14c.14.71.43.75.43.75L3.28,0H8l.45,3.58L9.09,8.5l.31,3.93.21,5.39.33,2.24.34,1.59.1,1.28L11.54,26l.75,2.75,1.56,6.62,1.53,7.3,1.49,7,.4,2.53L17.4,54l.8,2.69.63,0,.47-.18.24-.14.11-.07.15,0,.24,0,.26.09h.21l.06,0Z"/><path class="cls-4" d="M3.58,3.93a.34.34,0,0,0,0-.14c0,.17.17,1.38.17,1.38v.24L3,8.4l-.09.79,0,.9-.8-6.34L1.75,0H3.28L4,4.68S3.72,4.64,3.58,3.93Z"/><path class="cls-2" d="M28.32,57.62c-.09.13-.15.12-.32.3a.75.75,0,0,0-.13.15c-.1.18,0,.32-.11.36s-.16-.08-.28,0l-.05,0c-.22.19-.48.32-.72.49-.07,0-.86.6-1.42.91a6,6,0,0,1-1.82.67,8.52,8.52,0,0,1-2.73,0l-.27,0-1.1-.15,0-.34,0-.17c.71.09,1.33.14,1.84.16.88,0,.71,0,1.71,0a3,3,0,0,0,.65,0,4.83,4.83,0,0,0,.93-.33,5.17,5.17,0,0,0,.65-.31,4.55,4.55,0,0,1,.73-.48,1.48,1.48,0,0,0,.3-.14c.15-.09.19-.15.32-.24s.21-.08.39-.19.41-.48.59-.49c0,0,.12,0,.15,0a.1.1,0,0,0,0,0,.62.62,0,0,1,.5-.47s.22,0,.28.11S28.35,57.58,28.32,57.62Z"/><path class="cls-3" d="M24.87,32.14l-.32,4-.18,1.43-.24,4.62L23.8,45c-.33.74-.68,0-.68,0l-.41-4.23-.3-3.92L22,33.63l0-.34-.27-2.64-.3-4-.24-4.22-.18-4-.25-4.77,0-1-.13-3.06-.18-4.4L20.15,0h3.76l.25,6.37.41,9.09.27,9.42Z"/><path class="cls-2" d="M22.6,53.45c-.06.45-.17,0-.17,0l-.21-3.25L22,46.1l-.26-3.94-.26-3.94-.2-5-.1-1.9L20.94,27l-.24-5-.4-5.13-.38-5-.21-3.16-.15-2.49-.08-1.42L19.36,0H20l0,2.18.09,2.48.08,1.5.08,1.55.14,1.71.09,2.07.13,1.12,0,1,.25,4.77.18,4,.24,4.22.3,4,.27,2.64v.47l.11,2,.1,3.1.09,3.73,0,2.13.17,4.1Z"/></g></g></svg>