<svg xmlns="http://www.w3.org/2000/svg" viewBox="0 0 15.84 51.39"><defs><style>.cls-1{fill:#7693b9;}.cls-2{fill:#6d85a5;}.cls-3{fill:#5d718a;}.cls-4{fill:#4e6480;}</style></defs><g id="Слой_2" data-name="Слой 2"><g id="Слой_1-2" data-name="Слой 1"><path class="cls-1" d="M15,37.88a5.07,5.07,0,0,1-.77,1.8,4.65,4.65,0,0,1-1.3,1.26,5.69,5.69,0,0,1-2.62.79,10,10,0,0,1-2.92-.13A15,15,0,0,1,5.08,41a6.23,6.23,0,0,1-2.2-1,3.48,3.48,0,0,1-1-1.16,4.6,4.6,0,0,1-.22-2.65c.1-1.22,0-2.44,0-3.67,0-1.07,0-2.94-.08-4.76C1.5,25.67,1.3,25.29,1,23A58.8,58.8,0,0,1,.7,16.44,71.43,71.43,0,0,1,.91,9c0-.3.12-1.33.18-2.72a23.58,23.58,0,0,0,0-3,23,23,0,0,0-.5-3C.58.14.56.06.55,0h12c0,.72,0,1.55.06,2.75s0,2.2,0,4.13c0,2.48,0,2.56,0,3.93,0,2,0,3.08.11,4.17.12,1.77.25,1.81.5,4.39.19,2,.12,1.91.3,3.69.08.71.26,2.3.58,4.29.3,1.81.4,2,.6,3.51.14,1,.14,1.24.33,2.65a16,16,0,0,1,.23,1.83A7.65,7.65,0,0,1,15,37.88Z"/><path class="cls-2" d="M13,39.83a2.31,2.31,0,0,1-.41,1.44c-.49.61-1.29.65-2.52.71a11.69,11.69,0,0,1-3-.25,15.7,15.7,0,0,1-2.21-.61C3.64,40.68,3,40.47,2.77,40c-.39-.67.07-1.29.4-2.65s.06-1.72.17-4.81c.05-1.72.18-2.56.29-3.9a108.23,108.23,0,0,0,0-13.42S3.43,11.2,4,10a1.48,1.48,0,0,0-.15-1.58c-.65-.93-.92-5-.92-5.1C2.89,2,2.82.94,2.75,0H9.14c0,1.12,0,2.31,0,3.74C9.05,6.13,8.9,6,8.91,7.38c0,2.08.34,2.52.78,5.89.06.46.2,2,.49,5.14.44,4.7.31,3.57.46,5.08.35,3.39.47,3.58.37,4.6a9.12,9.12,0,0,0,0,2.45c.15,1,.36,1,.61,2.15.41,1.85-.08,2.2.42,3.85.11.34.36,1.08.54,1.58A4.77,4.77,0,0,1,13,39.83Z"/><path class="cls-3" d="M10.81,38.16c.21.07.56-.36.75-.64A3.36,3.36,0,0,0,12,36.27a16.94,16.94,0,0,1,.61-2.14,8.13,8.13,0,0,0-.16.82c0,.17-.12.91,0,.93s.45-.92.46-1a9.41,9.41,0,0,0,.45-2.05,7.67,7.67,0,0,1,.12-1.24,1,1,0,0,0,0-.38.76.76,0,0,0-.14-.45.7.7,0,0,0-.69-.09.93.93,0,0,0-.6.69s0,.05,0,.09a.49.49,0,0,1-.18.21c-.17.14,0,.43-.1.79-.07.2-.14.15-.28.42a4,4,0,0,0-.23.81c-.09.37-.11.33-.22.73s-.06.27-.18.76-.14.6-.2.84a1.84,1.84,0,0,0-.1,1.28C10.67,37.86,10.72,38.12,10.81,38.16Z"/><path class="cls-4" d="M15.83,35.16a10.14,10.14,0,0,1-.12,1.89,7.59,7.59,0,0,1-.39,1.72,4.76,4.76,0,0,1-.88,1.53,3.78,3.78,0,0,1-.4.4,2.69,2.69,0,0,1-.33.26,1.88,1.88,0,0,1-.23.16l-.26.18a5.53,5.53,0,0,1-1.41.78,4.69,4.69,0,0,1-1.26.25A11.17,11.17,0,0,1,8,42.2a13.28,13.28,0,0,1-3.09-.61c-.52-.23-1.19-.61-2-1.09l-.39-.22-.13-.08-.22-.13a1.5,1.5,0,0,1-.43-.44h0a3,3,0,0,1-.41-1.13,5.8,5.8,0,0,1-.09-.64,38.69,38.69,0,0,1,0-4.19,54.08,54.08,0,0,0,0-5.5c-.14-2-.34-2.37-.61-4.64a66.66,66.66,0,0,1-.33-6.73C.21,14.14.16,11.91.34,9,.55,5.4.81,5.27.67,3.43A15.37,15.37,0,0,0,0,0H.55c0,.06,0,.14,0,.21a23,23,0,0,1,.5,3.05,23.58,23.58,0,0,1,0,3C1,7.69.93,8.72.91,9A71.43,71.43,0,0,0,.7,16.44,58.8,58.8,0,0,0,1,23c.26,2.28.46,2.66.58,4.75.11,1.82.09,3.69.08,4.76,0,1.23.1,2.45,0,3.67,0,.45-.09.88-.09,1.29a2.79,2.79,0,0,0,.07.64h0a2.48,2.48,0,0,0,.24.71,3.11,3.11,0,0,0,.76,1l.2.17a6.23,6.23,0,0,0,2.2,1,15,15,0,0,0,2.31.61,10,10,0,0,0,2.92.13,6,6,0,0,0,2.42-.67l.2-.12a4.65,4.65,0,0,0,1.3-1.26,5.07,5.07,0,0,0,.77-1.8,7.65,7.65,0,0,0,.24-2.54A16,16,0,0,0,15,33.51c-.19-1.41-.19-1.62-.33-2.65-.2-1.53-.3-1.7-.6-3.51-.32-2-.5-3.58-.58-4.29-.18-1.78-.11-1.73-.3-3.69-.25-2.58-.38-2.62-.5-4.39-.08-1.09-.09-2.12-.11-4.17,0-1.37,0-1.45,0-3.93,0-1.93,0-2.9,0-4.13s0-2-.06-2.75h.58c0,.26,0,.54,0,.82,0,.66,0,1.88,0,4.31,0,3.25-.07,3.55-.05,5.2,0,1.44,0,2.68.16,4.35.11,1.39.15,1.18.49,4.47.23,2.3.35,3.46.38,4a19.65,19.65,0,0,0,.25,2.74c.16.9.24.94.46,2.05.15.81.23,1.47.39,2.81.2,1.7.14,1.59.27,2.34A15.06,15.06,0,0,1,15.83,35.16Z"/><path class="cls-4" d="M14,41.75c0,.24,0,.16,0,.54s-.05,1-.09,1.54c-.18,2.32-.31,2.51-.33,3.37a3.54,3.54,0,0,1-.12,1c-.1.34-.18.37-.18.59,0,.41.29.48.36.95a3.23,3.23,0,0,1-.12.82c-.09.47-.13.7-.25.79s-.48,0-.92-.13c-.18-.06-.65-.17-1.6-.4a5.51,5.51,0,0,0-1.8-.28,8.42,8.42,0,0,0-1.44.34A1.77,1.77,0,0,1,7,51a2.51,2.51,0,0,1-1.06-.21c-.55-.18-.67-.28-.93-.23a1.07,1.07,0,0,0-.46.2c-.2.16-.21.32-.35.36s-.5-.23-.54-.28c-.34-.39-.27-.84-.33-1.74a13.5,13.5,0,0,0-.2-1.63c-.1-.52-.16-.61-.45-1.66a17.49,17.49,0,0,1-.55-2.2c-.11-1,.08-.9-.06-2S1.83,40.18,1.79,40s-.05-.23-.07-.38h0c0-.13,0-.24,0-.25s.07.06.2.18l.18.15a1.3,1.3,0,0,1,.21.25.57.57,0,0,1,.06.25,1.94,1.94,0,0,1,0,.35,2.9,2.9,0,0,0,0,.72l0,.27c.07,1.25.11,1.88.15,2.11.16.79.32.67.63,1.82.07.27.15.67.31,1.49a8.17,8.17,0,0,1,.21,1.34c0,.33,0,.79,0,1,0,.71,0,1,.12,1s.23,0,.59-.13a2.36,2.36,0,0,1,.84,0c.59.05.65.19,1.16.26a3.78,3.78,0,0,0,1.18-.07c.74-.12.8-.29,1.32-.32a4.67,4.67,0,0,1,1.25.19,13,13,0,0,1,1.64.43c.44.15.81.31,1,.14s.08-.13.12-.29a2,2,0,0,0,0-.63,3.79,3.79,0,0,0-.11-.67,4.11,4.11,0,0,1-.16-.53,1.88,1.88,0,0,1,.12-.68,5.45,5.45,0,0,0,.12-.93c.07-.57.1-.56.24-1.52a14.16,14.16,0,0,0,.21-1.74c0-.56,0-.58,0-1.13a5.67,5.67,0,0,0,.08-1.15,1.69,1.69,0,0,1,0-.39v-.23a.16.16,0,0,1,0-.09.4.4,0,0,1,.48-.19.15.15,0,0,1,.06.09A6.91,6.91,0,0,1,14,41.75Z"/><path class="cls-4" d="M10.4,39.91s.22-1.52.22-2.55c0-.07,0-.2,0-.38a6.47,6.47,0,0,1,.25-1.16c.13-.49.08-.44.2-.89a10.7,10.7,0,0,1,.73-2c.15-.35.12-.24.3-.63a3.9,3.9,0,0,1,.57-1c.15-.19.23-.24.33-.25s.36.2.44.36a.85.85,0,0,1,.07.39c-.07,1.31,0,1.16-.07,1.29A18.31,18.31,0,0,1,13.09,35c-.33,1.29-.54,1.6-.86,2.86-.05.2-.1.42-.2.74-.19.59-.27.63-.42,1.15-.08.28-.08.36-.22.84s-.11.51-.15.51-.12-.25-.08-.48a2.92,2.92,0,0,1,.11-.36,1.31,1.31,0,0,0,0-.44c0-.41.23-.75.58-1.69.13-.35.22-.62.28-.81.21-.67.17-.71.33-1.25.23-.76.36-.85.51-1.51,0-.1.06-.31.12-.75,0,0,.09-.52.18-1.46.06-.58.08-.82-.06-.91a.31.31,0,0,0-.32,0,.32.32,0,0,0-.13.23c-.06.3-.19.33-.49.9a5.19,5.19,0,0,0-.36.83,12.21,12.21,0,0,0-.4,1.27c-.17.58-.28,1-.4,1.54-.09.34-.18.74-.27,1.11C10.53,38.75,10.41,39.91,10.4,39.91Z"/><path class="cls-4" d="M8.26,39.45a11.69,11.69,0,0,0,.59,1.92s.08.07.07.12-.14.06-.15.08.08,0,.31.06a2.6,2.6,0,0,0,.49,0,3.85,3.85,0,0,1,.76,0c.16,0,.5.07.5.14A4.05,4.05,0,0,1,9,41.88c-.16,0-.34-.07-.39-.19a.27.27,0,0,1,0-.27s.08,0,.09-.07-.05-.14-.06-.16A6.32,6.32,0,0,1,8.26,39.45Z"/><path class="cls-3" d="M5.89,26.33c-.15,0-.44,1.42-.46,1.56s-.07.33-.13.58a7.34,7.34,0,0,1-.31.89c-.26.65-.13,1.32-.1,2.94,0,1.05,0,.81,0,1.59.06,1.59.28,2.34.3,3.42a5,5,0,0,0,.06,1,2.56,2.56,0,0,1,.09.6c0,.3-.11.42,0,.62s.14.17.16.32,0,.18,0,.31a.61.61,0,0,0,.34.56.48.48,0,0,0,.56-.17c0-.13-.1-.21-.07-.41s.12-.17.12-.31-.17-.25-.15-.39.1-.12.15-.19,0-.45-.06-.81a4.68,4.68,0,0,1,0-.75c0-.55-.07-.91-.09-1.16-.09-.93,0-1.17-.05-2.64,0-1.11-.08-1-.08-1.75,0-1,.06-1.16.05-2.16,0-.47,0-.42-.08-1.55A8.67,8.67,0,0,0,5.89,26.33Z"/><path class="cls-4" d="M6.64,41.56s.16-.06.15-.11,0-.08-.26-.14a3.66,3.66,0,0,0-.82-.07,1.35,1.35,0,0,1-.85-.41,1.82,1.82,0,0,1-.3-.68,3.73,3.73,0,0,1-.15-.68,5.65,5.65,0,0,1,0-1.26,3.93,3.93,0,0,0-.15,1.63,1.73,1.73,0,0,0,.28.93,1.87,1.87,0,0,0,.47.42A2,2,0,0,0,6.64,41.56Z"/><path class="cls-4" d="M5.9,30.61s.12-.14.16-.12,0,.17,0,.29c-.09.44-.16.74-.19.9a4.59,4.59,0,0,0,0,.7c0,.57-.06.68-.08,1a8.36,8.36,0,0,0,0,1.15s.1,1.18.13,2.56a14.44,14.44,0,0,1,0,2.44.55.55,0,0,0,0,.45c0,.09.08.1.26.23s.25.22.57.45c.09.08.19.15.25.12s0-.12.08-.12.09.14,0,.23S7,41,6.93,41s-.33-.15-.61-.37c-.46-.37-.6-.34-.69-.56s0-.15,0-.53c0,0,0-.42.05-.9a7.87,7.87,0,0,0,0-1c0-.56,0-.65,0-1.56s0-.95-.06-2.06,0-.93,0-1.6c0-.1,0-.43.05-1.09A1.36,1.36,0,0,1,5.9,30.61Z"/><path class="cls-3" d="M6.49,8A5.44,5.44,0,0,1,5.32,5.36,14.9,14.9,0,0,1,5,3.21,6.31,6.31,0,0,0,4.86,2c-.11-.51-.2-.54-.27-1a5.57,5.57,0,0,1,0-1h.76l0,.16c-.14.54.13.92.42,1.79a23.18,23.18,0,0,1,.62,3.57s.06.45.12,1.18S6.57,8,6.49,8Z"/><path class="cls-3" d="M13.42,42.66c0,.55,0,.57,0,1.13a14.16,14.16,0,0,1-.21,1.74c-.14,1-.17.95-.24,1.52a5.45,5.45,0,0,1-.12.93,1.88,1.88,0,0,0-.12.68,4.11,4.11,0,0,0,.16.53,3.79,3.79,0,0,1,.11.67,2,2,0,0,1,0,.63c0,.16-.06.24-.12.29s-.55,0-1-.14a13,13,0,0,0-1.64-.43A4.67,4.67,0,0,0,9,50c-.52,0-.58.2-1.32.32a3.78,3.78,0,0,1-1.18.07c-.51-.07-.57-.21-1.16-.26a2.36,2.36,0,0,0-.84,0c-.36.08-.47.2-.59.13s-.12-.34-.12-1c0-.16,0-.62,0-1A8.17,8.17,0,0,0,3.51,47c-.16-.82-.24-1.22-.31-1.49-.31-1.15-.47-1-.63-1.82,0-.23-.08-.86-.15-2.11l0-.27.11-1,.39.22c.84.48,1.51.86,2,1.09A13.28,13.28,0,0,0,8,42.2a11.17,11.17,0,0,0,2.54.13,4.69,4.69,0,0,0,1.26-.25,5.53,5.53,0,0,0,1.41-.78l.26-.18a1.69,1.69,0,0,0,0,.39A5.67,5.67,0,0,1,13.42,42.66Z"/><path class="cls-4" d="M3.84,41.84c-.07,0-.17.18-.18.35a.88.88,0,0,0,.1.36,1.16,1.16,0,0,1,0,.67,5.2,5.2,0,0,0,0,1.22c0,.52.1,1.43.14,2.27,0,.45,0,.71.07,1.16a5.26,5.26,0,0,0,.17,1.18,5.33,5.33,0,0,0,.09-1.13c0-.42,0-1,0-1.77-.06-1-.09-1.49-.15-1.86a4.24,4.24,0,0,1-.07-1,3.73,3.73,0,0,0,0-.47C4,42.39,4,41.85,3.84,41.84Z"/><path class="cls-4" d="M5,42.05a1,1,0,0,0,.06.72c.15.41,0,.72-.08,1.46,0,.38,0,1.49,0,3.71,0,.61,0,1.63.05,1.63s0-.52.11-1.34c.06-.47.09-.51.11-.82a8.09,8.09,0,0,0,0-1.33c0-.14,0-.69.13-1.78a10.19,10.19,0,0,0,0-1.95c0-.21-.08-.49-.17-.49S5.06,42,5,42.05Z"/><path class="cls-4" d="M6.89,42.75s0,.43-.2,1.23c-.07.31-.11.46-.16.65a11.73,11.73,0,0,0-.2,2.15c0,1.2,0,1.21-.07,1.88a5.51,5.51,0,0,0-.11,1.06,2,2,0,0,0,.32-.84,5.1,5.1,0,0,0,.08-1.19s0-.78,0-1.46a7.42,7.42,0,0,1,.25-2A3.77,3.77,0,0,0,7,43.68,1.62,1.62,0,0,0,6.89,42.75Z"/><path class="cls-4" d="M7.91,42.84a3.11,3.11,0,0,0-.23,1,15.2,15.2,0,0,0-.1,1.76,13.91,13.91,0,0,1-.16,1.89,9.4,9.4,0,0,0-.17,1.87c0,.23,0,.47.07.47s.2-.46.24-.6a7.91,7.91,0,0,0,.22-1.45c.07-1.6,0-1.48.08-2.06.06-.77.13-1,.14-1.75C8,43.74,8,42.84,7.91,42.84Z"/><path class="cls-4" d="M9.38,42.77c-.06,0-.15.34-.18.49a6.88,6.88,0,0,0-.08.72,3,3,0,0,1-.2.65,6.63,6.63,0,0,0-.23,1.63c-.13,1.28-.19,1.33-.22,2.11a5.31,5.31,0,0,0,0,1.23c.08,0,.2-.64.24-.81a12.13,12.13,0,0,0,.19-1.55c.07-.68.12-1.2.24-1.85s.19-.8.25-1.34A3.39,3.39,0,0,0,9.38,42.77Z"/><path class="cls-4" d="M10.23,42.73a4.8,4.8,0,0,0-.2,1c-.06.38-.1.66-.1.67-.09.74-.14,1.34-.19,1.88-.14,1.38-.2,2.06-.21,2.11-.08.39-.18.8-.07.86s.22-.1.3-.22a.69.69,0,0,0,.1-.47A12.3,12.3,0,0,1,10,47.05c0-.67,0-1,.1-1.51a13.49,13.49,0,0,0,.15-1.41c0-.15,0-.34,0-.71C10.26,42.77,10.25,42.73,10.23,42.73Z"/><path class="cls-4" d="M11.72,42.5s0,.06-.18.45l-.12.36a5,5,0,0,0-.15,1.28c0,.69-.18.58-.29,1.49-.08.67,0,.63-.07,1.57-.05.58-.1.76-.11,1.29,0,.06,0,1.05.08,1.06s.23-.71.25-.84a9.71,9.71,0,0,0,.12-1.26c.05-.61.08-.48.23-1.81.09-.82.13-1.23.13-1.32a3.2,3.2,0,0,1,.16-1.46,1.59,1.59,0,0,0,.08-.21C11.92,42.81,11.8,42.5,11.72,42.5Z"/><path class="cls-4" d="M12.66,42.41a3.42,3.42,0,0,0-.23,1.12c-.08.56-.13,1-.17,1.51s-.08,1-.12,1.88a13.89,13.89,0,0,0,0,1.47A4.32,4.32,0,0,0,12.32,50a2.77,2.77,0,0,0,.19-1.2c0-.43,0-.55,0-1a14.26,14.26,0,0,1,.11-1.53c.13-1.45.07-1.23.14-1.74a6.56,6.56,0,0,0,.09-1.18C12.8,42.93,12.74,42.41,12.66,42.41Z"/></g></g></svg>