<svg xmlns="http://www.w3.org/2000/svg" viewBox="0 0 33.38 74.84"><defs><style>.cls-1{fill:#7c6c6b;}.cls-2{fill:#5e4e4d;}.cls-3{fill:#6b5f5e;}.cls-4{fill:#756867;}.cls-5{fill:none;}</style></defs><g id="Слой_2" data-name="Слой 2"><g id="Слой_1-2" data-name="Слой 1"><polygon class="cls-1" points="31.66 74.83 5.43 74.84 5.4 74.48 4.71 66.79 3.89 57.55 3.04 48.25 2.4 41.44 2.24 39.91 1.89 35.67 0.98 25.81 0.59 24.52 0.68 22.27 0.77 22.27 0.77 19.5 0.8 17.88 0.97 17.15 0.97 13.23 1.03 12.63 1.03 11.45 1.16 10.05 1.28 9.57 1.13 6.82 1.09 6.84 1.06 6.86 1.05 6.76 1.15 1.16 1.5 1.16 27.93 1.21 29.16 9.05 29.6 19.8 29.68 23.74 29.75 25.47 31.3 64.34 31.64 74.17 31.66 74.83"/><polygon class="cls-2" points="1.73 0 27.86 0 29.29 0 31.12 8.67 31.07 9.05 30.97 9.95 30.97 10.54 31.14 15.08 31.45 23.8 31.68 29.78 31.77 32.16 31.96 37.1 32.17 42.53 32.35 47.7 32.68 56.38 32.9 62.32 33.1 67.23 33.38 74.84 31.66 74.84 31.3 64.34 30.27 37.35 29.86 26.55 29.66 24.61 29.53 23.26 29.6 19.8 29.21 10.16 29.16 9.05 27.93 1.22 2.79 1.16 1.15 1.16 1.16 0 1.73 0"/><polygon class="cls-2" points="4.8 7.42 4.77 16.91 4.68 19.12 4.69 19.15 4.74 19.15 5.1 16.3 5.08 5.63 4.8 5.63 4.8 7.42"/><path class="cls-2" d="M5.31,18.6c-.12-.24-.29,0-.29,0l0,.54-.46.79-.34.83L4,21.42s0,.06.08,0a2,2,0,0,0,.21-.4l.19-.35.23-.34.49-.78.16-.32Z"/><polygon class="cls-2" points="5.43 74.84 3.68 74.84 1.11 46.05 0.59 40.43 0.31 24.54 0.29 23.48 0.42 19.6 0.32 19.45 0.28 15.8 0 10.02 0.88 9.91 1.06 6.86 1.09 6.84 1.13 6.82 1.28 9.57 1.16 10.05 1.03 11.45 1.03 12.63 0.97 13.23 0.97 17.15 0.8 17.88 0.77 19.5 0.77 22.27 0.68 22.27 0.59 24.52 0.65 24.72 0.98 25.81 1.89 35.67 2.24 39.91 2.24 39.92 2.28 40.29 2.4 41.44 3.04 48.25 3.87 57.55 4.71 66.79 5.43 74.84"/><polygon class="cls-1" points="3.04 48.25 2.24 39.91 2.4 41.44 3.04 48.25"/><path class="cls-3" d="M27.59,74.83H23.83l-.1-2.13-.65-12.2L23,58.84l-.26-4.59,0-.45-.54-8.44L22,40.63l-.14-2-.09-2.12-.13-3.71,0-1.83,0-1.31-.1-2.74-.12-2.81s.22-3.47.34-3.69l0-.11c0-.81.39-1.37.77-1.4a.69.69,0,0,1,.48.2,1.32,1.32,0,0,1,.29,1c0,.22.09,1.25.28,3.32a17.29,17.29,0,0,0,.46,2.28,36.35,36.35,0,0,1,.49,5c.16,2.08.28,3.68.41,5.24.15,1.89.18,2.14.33,4.09s.24,3,.3,3.92c.18,2.85.11,3,.27,5.23.14,1.89.2,1.87.39,4.19s.15,2.55.31,4.84c.24,3.39.33,3.27.53,6.22.17,2.41.13,2.78.32,6C27.4,72.22,27.51,73.76,27.59,74.83Z"/><polygon class="cls-2" points="22.98 58.84 22.67 56.69 22.64 56.22 22.72 54.25 22.98 58.84"/><polygon class="cls-2" points="23.69 70.67 23.69 74.83 23.04 74.83 23.04 73.26 23.05 67.31 23.12 60.84 23.69 70.67"/><polygon class="cls-4" points="6.96 74.84 5.43 74.84 5.41 74.57 4.71 66.79 3.87 57.55 3.04 48.25 2.4 41.44 2.28 40.29 2.24 39.92 2.24 39.91 1.89 35.67 0.98 25.81 0.65 24.72 0.92 23.43 1.35 26.55 1.92 29.41 1.79 29.61 1.61 30.63 2.12 35.62 2.36 36.44 2.5 39.36 2.71 43.24 3.14 47.21 4.32 57.36 5.96 68.61 6.9 74.45 6.96 74.84"/><polygon class="cls-5" points="9.03 74.84 6.96 74.84 5.96 68.61 4.32 57.36 3.14 47.21 2.71 43.24 2.5 39.36 2.36 36.44 2.12 35.62 1.61 30.63 1.79 29.61 1.92 29.41 1.35 26.55 0.92 23.43 0.95 23.31 1.75 23.31 2.41 25.89 3.49 35.11 9.03 74.84"/><path class="cls-3" d="M11.68,74.84H7L6,68.61,4.32,57.36,3.14,47.21l-.43-4L2.5,39.36l-.14-2.92-.24-.82-.51-5,.18-1,.13-.2-.57-2.86L.92,23.43.8,22.52l-.05-.25h0V19.5l0-1.62L1,17.15v-.27l.64-2.2.67,2.75.24,2v1L3,22.54l.45,2.51v0c.06.35.88,5.06.88,5.17a8.25,8.25,0,0,0,.47,1l.46,2.42.61,2.52.65,5.45.4,3.33L7.39,48l.32,2,.64,5.14.77,5.08Z"/><polygon class="cls-2" points="3.79 41.3 3.79 41.56 2.28 40.29 2.24 39.92 3.79 41.3"/><path class="cls-4" d="M7.39,48l-.5-3.07-.4-3.33-.65-5.45-.61-2.52-.46-2.42a8.25,8.25,0,0,1-.47-1c0-.11-.82-4.82-.88-5.17a1,1,0,0,1,.59.35,2,2,0,0,1,.38.55l.06.47.31.89.3,1.81.22,1.06.31.79.54,3.25.58,5.49,0,1.1.36,4,.23,2.32Z"/></g></g></svg>