<svg xmlns="http://www.w3.org/2000/svg" viewBox="0 0 41.55 116.49"><defs><style>.cls-1{fill:#70b631;stroke:#000;stroke-miterlimit:10;}.cls-2{fill:#f6ac9f;}</style></defs><g id="Слой_2" data-name="Слой 2"><g id="Слой_1-2" data-name="Слой 1"><path class="cls-1" d="M18.52,76.15c-13-17-18-54-18-54s18.63-26.06,22-21c2,3,16.25,53.5,16.25,53.5.46,5.35-.79,12.08-.25,15.5Z"/><path class="cls-2" d="M39,84.65s4.49,18,1.49,23a28,28,0,0,1-5,8c-3,3-3-3-3-3s3-7,2-11-4,0-4,0-1,6-4,6-2-8-2-8,.18-12.26-1.49-12S39,84.65,39,84.65Z"/><path class="cls-1" d="M38.52,70.15a19.66,19.66,0,0,1,2,14l-19,4c-3-4-3-12-3-12"/></g></g></svg>