<svg xmlns="http://www.w3.org/2000/svg" viewBox="0 0 15.32 55.84"><defs><style>.cls-1{fill:#7693b9;}.cls-2{fill:#6d85a5;}.cls-3{fill:#4e6480;}.cls-4{fill:#5d718a;}</style></defs><g id="Слой_2" data-name="Слой 2"><g id="Слой_1-2" data-name="Слой 1"><path class="cls-1" d="M4.09.53l0-.53,0,.53c.23.37.52.91.84,1.48s.53.93.8,1.44c.9,1.67,1,2,1.66,3.2C8.28,8.29,8.26,8,8.63,8.79a17.17,17.17,0,0,1,1.1,4c.54,2.42.6,2.14.93,3.74a46.88,46.88,0,0,1,.76,6.71c.17,2.49.1,2.39.28,5.18.14,2,.17,2,.5,6,.38,4.58.35,4.82.56,6.58.14,1.16.31,2.29.64,4.53.28,1.94.36,2.4.66,4.43.35,2.43.53,3.66.61,4.59,0,.43.06.83.07,1.27h-12a24.33,24.33,0,0,1-.51-2.43,24.89,24.89,0,0,1,.22-3.27c0-.48,0-1,.06-1.47v0c0-.41,0-.84,0-1.33s0-.71-.26-2.63C2,41.8,1.94,41.76,1.88,41c-.11-1.21-.16-2.14-.21-3.13-.12-2.53,0-2.29-.13-3.42-.06-.67-.26-1.92-.68-4.39C.52,28,.53,28.14.51,28a21.87,21.87,0,0,1,.32-5.38,32.84,32.84,0,0,0,.4-3.39c0-.44,0-.63,0-1.11V18c0-.23,0-.52,0-.91,0-1.34.07-1.54.05-2.3,0-1.22-.13-1.06-.11-1.93,0-.57-.12-1.13-.11-1.69a.68.68,0,0,0-.16-.57.38.38,0,0,0-.35-.1"/><path class="cls-2" d="M11.36,55.84H5c-.17-2.56-.28-4-.39-4.84a33.71,33.71,0,0,1-.07-5.56c0-.32.12-1.94.88-2.22.2-.08.6-.11.66-.33a.43.43,0,0,0-.11-.34A13.76,13.76,0,0,1,5,38.69c-.08-.53,0-.8,0-4.8,0-4.74,0-5.6-.19-7.13s-.16-.85-.77-5c-.43-2.94-.65-4.44-.75-6-.13-1.91,0-1.16-.1-4.78a22.39,22.39,0,0,1,.32-4.83c.07-.27,0-.1.59-1.56.15-.43.23-.67.38-.68s.56.67.68,1A27.91,27.91,0,0,1,6.62,9.44c.36,1.92.55,3.36.56,3.45.76,6.08.31,1.94.86,6.66.51,4.31.55,4.85,1.25,11.06.45,4,.47,4,.52,4.77.2,3.12,0,4.23.4,7.16.14,1,.22,1.3.39,2.68.1.86.21,1.85.39,4.26s.26,3.52.31,4.84C11.32,54.82,11.34,55.32,11.36,55.84Z"/><path class="cls-3" d="M15.32,55.84h-.58c0-.44,0-.84-.07-1.27-.08-.93-.26-2.16-.61-4.59-.3-2-.38-2.49-.66-4.43-.33-2.24-.5-3.37-.64-4.53-.21-1.76-.18-2-.56-6.58-.33-4-.36-4-.5-6-.18-2.79-.11-2.69-.28-5.18a46.88,46.88,0,0,0-.76-6.71c-.33-1.6-.39-1.32-.93-3.74a17.17,17.17,0,0,0-1.1-4c-.37-.8-.35-.5-1.24-2.14-.63-1.16-.76-1.53-1.66-3.2-.27-.51-.52-1-.8-1.44S4.32.9,4.09.53l0-.53a4.42,4.42,0,0,1,.73.85c.18.25.49.83.62,1l.85,1.34A44.44,44.44,0,0,1,8.62,7.7c.44.94.58,1.32.66,1.51A16.26,16.26,0,0,1,10,11.57c.68,3,.72,2.57,1.1,4.46s.55,3.29.6,3.74c.11.92.13,1.39.34,5,.13,2.34.2,3.52.22,3.86.07,1.13.12,1.62.43,5.32.42,4.87.45,5.26.57,6.35.08.78.27,2.36.55,4.38.44,3.1.65,3.89,1,6.17S15.22,54.32,15.32,55.84Z"/><path class="cls-3" d="M2.77,55.84H2.22a12.68,12.68,0,0,1-.38-2.4c-.17-2.51.33-2.6.3-5.66,0-2.41-.34-2.47-.69-6.26-.31-3.45-.09-3.85-.38-6.88C.69,30.73.29,31,.07,28.26c-.34-4.38.64-5.81.77-11.18A30.71,30.71,0,0,0,.59,11c0-.05-.15-.36,0-.46l0,0a.38.38,0,0,1,.35.1.68.68,0,0,1,.16.57c0,.56.12,1.12.11,1.69,0,.87.08.71.11,1.93,0,.76,0,1-.05,2.3,0,.39,0,.68,0,.91v.15c0,.48,0,.67,0,1.11a32.84,32.84,0,0,1-.4,3.39A21.87,21.87,0,0,0,.51,28c0,.12,0,0,.35,2.07.42,2.47.62,3.72.68,4.39.11,1.13,0,.89.13,3.42.05,1,.1,1.92.21,3.13.06.73.08.77.4,3.66.22,1.92.24,2.19.26,2.63s0,.92,0,1.33v0c0,.51,0,1-.06,1.47a24.89,24.89,0,0,0-.22,3.27A24.33,24.33,0,0,0,2.77,55.84Z"/><path class="cls-4" d="M7.56,55.84H6.8c0-.09,0-.19,0-.31a3.64,3.64,0,0,1,0-1c.1-.38.3-.7.38-.67s-.08.39.09.82c.1.26.21.27.29.5A1.14,1.14,0,0,1,7.56,55.84Z"/><path class="cls-4" d="M7.31,53.23c.43-.11.51-.94.53-1.18a2.21,2.21,0,0,0,0-.55c-.11-1,0-1.33,0-3,0-.42-.07-1-.19-2.19-.13-1.37-.2-1.75-.29-2.9,0-.14,0-.61-.11-1.55C7,39.22,7,39.07,7,38.84c0-1.26,0-1.3-.08-2.18s-.11-.94-.15-1.66c0-.44,0-.58,0-1.89s0-2.18,0-2.36c-.16-.93-.42-1.23-.25-1.85a1.75,1.75,0,0,0,.14-.84c-.07-.33-.25-.42-.28-.79s.08-.56,0-.58-.21.27-.26.37a1.17,1.17,0,0,0-.18.47c0,.2.05.26.05.46a1,1,0,0,1-.18.56c-.24.44-.07,1.08,0,1.87,0,.59,0,.4-.14,2.58,0,0,0,.76-.06,1.45a46.32,46.32,0,0,0,.34,5.92c.11,1.19.19,1.78.24,2.91,0,.89,0,.95.06,1.73.08,1.33.19,1.49.32,3a14.81,14.81,0,0,1,.12,2.74c-.07.55,0,1.11,0,1.66a.81.81,0,0,0,.1.62A.57.57,0,0,0,7.31,53.23Z"/><path class="cls-2" d="M5.3,3.87c0-.07.2-.07.27,0a.13.13,0,0,1,0,.13c0,.3.65,1,.91,1.64a7.85,7.85,0,0,1,.15.91c.12.77.14,1.06.3,2.25a9.53,9.53,0,0,1,.12,1.07A14.28,14.28,0,0,1,6.6,8C6.33,6.86,6.23,6.35,6,5.62a4.37,4.37,0,0,0-.53-1.38C5.41,4.14,5.25,4,5.3,3.87Z"/><path class="cls-2" d="M.94,11.66.59,10.49a.38.38,0,0,1,.35.1.68.68,0,0,1,.16.57c0,.56.12,1.12.11,1.69,0,.87.08.71.11,1.93,0,.76,0,1-.05,2.3,0,.39,0,.68,0,.91l-.2-3.59Z"/><path class="cls-2" d="M2.54,48.65,2,43.94l-.2-2.33-.25-3.77-.29-4.15-.6-3.8L.35,28.15V25l.33-1.68L.83,21.2l.42-3.06c0,.48,0,.67,0,1.11a32.84,32.84,0,0,1-.4,3.39A21.87,21.87,0,0,0,.51,28c0,.12,0,0,.35,2.07.42,2.47.62,3.72.68,4.39.11,1.13,0,.89.13,3.42.05,1,.1,1.92.21,3.13.06.73.08.77.4,3.66.22,1.92.24,2.19.26,2.63S2.56,48.24,2.54,48.65Z"/></g></g></svg>