<svg xmlns="http://www.w3.org/2000/svg" viewBox="0 0 64.99 115.82"><defs><style>.cls-1{fill:#4e6480;}.cls-2{fill:#7693b9;}.cls-3{fill:#6d85a5;}.cls-4{fill:#5d718a;}.cls-5{fill:none;stroke:#4e6480;stroke-linecap:round;stroke-miterlimit:10;stroke-width:0.5px;}</style></defs><g id="Слой_2" data-name="Слой 2"><g id="Слой_1-2" data-name="Слой 1"><path class="cls-1" d="M65,87.19a16.31,16.31,0,0,1-.17,2.5c-.1.71-.17.84-.35,2-.1.56-.06.4-.25,1.78A13.39,13.39,0,0,0,64,96c0,.42,0,.46,0,.85a9.28,9.28,0,0,1-.27,1.77c-.67,3.48-.11,1.34-.28,2.38a.64.64,0,0,0,.06.5c.11.14.31.19.31.3a.18.18,0,0,1-.05.08c-.13.11.41-.21-.65.88a3.62,3.62,0,0,1-.28.29l-.07.08-.11.12c-1.19,1.19-1.8,1.81-2.51,2.4a26,26,0,0,1-3.46,2.43c-.23.12-.72.37-1.41.78l-.65.37a6.45,6.45,0,0,1-1.12.55,2.53,2.53,0,0,1-.49.13,2.75,2.75,0,0,1-.66,0,23.13,23.13,0,0,1-2.64-.09c-1-.08-1.76-.14-3.07-.27s-1.42-.15-2.07-.2c-1.07-.07-2-.09-2.64-.1-.92,0-1.06,0-2.18,0l-1,0h-.41c-.68,0-1.44,0-1.78,0-.51,0-.92,0-1.21,0-.63,0-.8-.06-1.25,0-.61,0-.55.09-.92.07a10.84,10.84,0,0,0-1.17-.13c-.22,0-.46,0-.53.13s0,.25-.07.36l-.11.08a1.09,1.09,0,0,1-.19.08,3.85,3.85,0,0,1-1.18.16c-.94,0-1.41-.07-1.86-.13-.62-.08-1.08-.16-1.81-.29l-1.46-.29c-.44-.09-1.27-.27-2.29-.53s-.84-.25-2-.56c-1.82-.49-1.64-.36-2.39-.62a12.77,12.77,0,0,0-2.07-.68,4.36,4.36,0,0,1-.59-.14c-.47-.14-.48-.24-.84-.34s-.56,0-1.06-.16c-.21-.07-.3-.13-.63-.24a3,3,0,0,0-.5-.13,12.38,12.38,0,0,1-1.52-.6l-1.35-.51a2.13,2.13,0,0,1-1.05-.55c-.09-.1-.1-.13-.4-.51-.15-.18-.23-.27-.36-.45a2.38,2.38,0,0,1-.27-.44c-.1-.21-.07-.26-.15-.44a1.51,1.51,0,0,0-.35-.42c-.31-.34-.22-.41-.52-.76a1.81,1.81,0,0,0-.69-.54c-.17-.07-.15,0-.52-.14-.14,0-.23-.08-.3,0s0,0,0,0-.06.14-.13.18a.21.21,0,0,1-.15,0,.28.28,0,0,1-.16,0s0,0,0,0c-.31-.2-.25-1,0-1a.37.37,0,0,1,.28.06c.18.1.22.23.31.34s.46.1.83.21.58.36,1,.86c.21.25.48.62.56.73l.16.23c.32.47.27.57.5.89a5,5,0,0,1,.45.56,2.48,2.48,0,0,1,.17.34c.22.47,1,.49,2.31.91a11.36,11.36,0,0,1,1.54.61l.51.26a4.27,4.27,0,0,0,1.69.32c1,0,1,.41,3.58,1.15,1.06.29,1.41.33,2.62.71l1.09.33c.18,0,.76.22,1.72.45s1.58.39,2.39.53.63.07,1.69.25a13.83,13.83,0,0,0,2.31.17c.17,0,.59,0,.71-.25s0-.4.12-.46a.09.09,0,0,1,.09,0c.31.06,1.9-.17,4.23-.06l.79,0c.68,0,1.18,0,1.31,0,3.16,0,4.74.06,6.38.17l4.27.36c.76.06,1.53.09,2.3.16a7.6,7.6,0,0,0,2.49.1,5.94,5.94,0,0,0,1.79-.87c1.66-1,2.48-1.45,2.65-1.56a32.28,32.28,0,0,0,3.38-2.72c2-1.7.88-1,1.55-1.52a1.56,1.56,0,0,0,.74-.94,1.28,1.28,0,0,0-.16-.8c-.4-.88,0-1.94.3-2.77.47-1.55,0-1.4.43-4.86.24-1.8.39-2,.63-4.06a24.59,24.59,0,0,0,.2-2.59,24.23,24.23,0,0,0-.18-3c-.51-5-.12-1.55-.51-5.07-.47-4.25-.47-4-.54-4.87-.17-2-.1-2-.3-4.9-.12-1.71-.2-2.47-.26-3h.66c0,.47,0,.88,0,1.34,0,1,.1,1.89.24,3.76.05.61.17,2,.35,4,.1,1.08.2,2.2.37,3.71s.23,1.89.37,3.32c.08.82.14,1.44.2,2.3C65,85.47,65,86.2,65,87.19Z"/><path class="cls-2" d="M.16,13.9,1.69,32.38l.56,4.44.69,5.57.5,5.46.24,6.59.07,6.29s0,6.23,0,6.29.3,6.09.3,6.09L3.88,79,4,85l.47,5.91L4.63,95l.26,2-.12,3,.89.32.84.37.86,1.23,1,1.53.62.79,1.59.43L13.8,106l4.14,1.07,7.86,2.1,3.47.46H31l.38-.66,12.33.12,5.9.54,3.31.12,2.73-1.37,4.18-2.78L63.34,102l-.17-1.27.08-1.67L63.63,97l.24-4.18.76-3.94L64.57,84l-.52-5.53-.69-6.34-.28-5.33-.14-4L63,58.92l-.06-3.07.35-3,.18-4,.05-3-.67-.8L63,43.28l.26-3.87-.27-5-.24-5.19L62.55,25l0-5-.13-4.12-.07-2.67-.21-1.44-.39-1.71L60.54,9,57.62,7.57,54.16,5.94l-3.6-1.32L47,3.41l-2.3-.91-.47-.11.07.44L44,4.28l-.93,1.86L41.63,7.51l-1.81.81-3.46.24-3.9-.37-5-1.57L24.36,5l-2.12-1.6-1-1.51L8.36,8.77"/><polygon class="cls-2" points="21.21 1.15 23.54 0.23 25.9 2.35 29.32 4.17 32.74 5.32 35.61 5.66 39.39 5.21 41.09 3.81 41.97 2.05 42.2 1.02 44.19 2.13 44.03 3.42 43.18 5.72 41.66 7.21 39.09 8.22 35.43 8.32 31.58 7.82 28.37 6.8 26.59 6.06 24.42 4.83 22.68 3.55 21.66 2.27 21.21 1.15"/><path class="cls-3" d="M22.5,2.4c-.09.14,0,.39.07.52a.91.91,0,0,0,.59.41c.13,0,.25,0,.36.1a.31.31,0,0,1,.09.19c.08.27.53.57,1.24,1.13A3.17,3.17,0,0,0,26,5.46a.33.33,0,0,1,.19,0c.11.08.1.2.19.31s.12.07.27.16a1.25,1.25,0,0,1,.28.25A6,6,0,0,0,28.54,7c1.15.38,1.73.56,1.78.57s.95.26,2,.47c.87.16,1.55.25,1.8.28a27.78,27.78,0,0,0,3.45.19,11.84,11.84,0,0,0,1.88-.1c.92-.14,2.09-.32,2.38-1a4.67,4.67,0,0,1,.29-.84A5.71,5.71,0,0,1,42.57,6a6.12,6.12,0,0,0,.71-1.46,3,3,0,0,1,.26-.62c.14-.25.24-.3.29-.51a.9.9,0,0,0,0-.58,1.07,1.07,0,0,0-.48-.49,1.27,1.27,0,0,0-.69-.15,1,1,0,0,0-.77.26c-.06.06-.06.08-.25.46a7.17,7.17,0,0,1-.36.69,3.18,3.18,0,0,1-.47.59,4.81,4.81,0,0,1-2.06,1.21A4.39,4.39,0,0,1,38,5.5c-1.16.14-1.63-.16-2.12.18a1.27,1.27,0,0,1-.47.24,1.2,1.2,0,0,1-.55-.06c-.73-.21-.87,0-1.48-.18-.34-.12-.3-.2-.68-.32a3.43,3.43,0,0,0-.86-.15c-.65-.07-.64,0-1.05-.09S30.34,5,29.6,4.87a2.57,2.57,0,0,1-.82-.18,5.31,5.31,0,0,1-.57-.33S28,4.22,27.54,4C26.15,3.38,22.87,1.85,22.5,2.4Z"/><path class="cls-4" d="M23.67,1.09A1.84,1.84,0,0,0,22.62.67.9.9,0,0,0,22,.89a.83.83,0,0,0-.26.56c0,.12,0,.37.66.9a11,11,0,0,0,.93.66c.4.29.72.57,1.14.93s.61.45.91.69a.81.81,0,0,0,.58.24c.12,0,.16-.08.27-.07s.29.17.46.36a1.79,1.79,0,0,0,.74.6.88.88,0,0,0,.73-.09A.78.78,0,0,0,28.48,5a1,1,0,0,0-.32-.6,3.27,3.27,0,0,0-.66-.58l-1-.68c-.72-.47-.72-.41-1.16-.72l-1-.77A8.51,8.51,0,0,0,23.67,1.09Z"/><path class="cls-4" d="M29.14,5.58c-.47,0-.63,0-.65.1s.37.26.42.28a4,4,0,0,0,.63.17,3.06,3.06,0,0,1,.66.29,4.81,4.81,0,0,0,1.3.33c.39.06.29,0,1.35.16.18,0,.68.09,1.32.15a2.43,2.43,0,0,0,.76,0c.24-.06.47-.19.67-.09,0,0,.06.07.13.11a.49.49,0,0,0,.31,0c.43-.08.5.13.89,0,.12,0,.28-.1.34,0s0,.06,0,.09.24,0,.35,0a1.38,1.38,0,0,1,.25-.08.59.59,0,0,1,.27,0,3.56,3.56,0,0,0,1,.09,3.92,3.92,0,0,0,1-.18,4.25,4.25,0,0,0,1.19-.42A3.67,3.67,0,0,0,42.6,5.51a5.52,5.52,0,0,0,.49-1c.34-.8.59-1.41.32-1.75a.57.57,0,0,0-.61-.19c-.18.06-.13.33-.35.44s-.14,0-.26,0-.21.31-.42.58a1.57,1.57,0,0,1-.49.39c-.3.19-.38.14-.66.3s-.28.3-.64.54a3.09,3.09,0,0,1-.88.39c-.57.2-.57.1-.76.23-.4.26-.38.6-.77.75-.14,0-.12,0-.43,0-.6.09-1,.31-1.09.2s0,0,0-.11,0-.09-.07-.18S35.42,6,35.42,6c-.38-.08-.63-.09-1-.13s-.28,0-.67-.09-.65-.07-1.65-.16S31.3,5.48,31,5.48s-.15,0-1.12,0Z"/><path class="cls-1" d="M0,13.52l.08.85,5.71-3.76.59-.3,5.13-2.85,3.22-1.57,2.89-1.71L21.3,2.25,24.2.76,23.6,0,21.09,1.22,19.33,2.33l-3.46,2-4,2.06L9.39,7.58,6.76,9.12,2.42,11.77l-2,1.33Z"/><path class="cls-5" d="M21.24,1.41a4.22,4.22,0,0,0,.64,1.37A5.85,5.85,0,0,0,23.24,4.1,25.08,25.08,0,0,0,27.3,6.48a23.29,23.29,0,0,0,4.41,1.45,22.94,22.94,0,0,0,4.55.49A9.63,9.63,0,0,0,40.33,8,5.94,5.94,0,0,0,42.7,6.47,5.86,5.86,0,0,0,44,4a4.45,4.45,0,0,0,.21-1.69"/><path class="cls-5" d="M23.72.25a14.62,14.62,0,0,0,2.16,2,14.14,14.14,0,0,0,2.69,1.5,18.64,18.64,0,0,0,4.88,1.57,16.12,16.12,0,0,0,3.49.21,5.75,5.75,0,0,0,2.79-.6,4.74,4.74,0,0,0,1.55-1.58,5.47,5.47,0,0,0,.81-2.13"/><path class="cls-1" d="M23.4,1.39c-.06,0,0,.15-.07.19s-.09,0-.15,0,0,.11-.1.2-.06,0-.12.08-.07.13-.14.26-.1.11-.16.22-.09.26,0,.31a.17.17,0,0,0,.16,0c.06-.05,0-.1.12-.19s.07,0,.11-.1,0-.11.09-.19.11-.07.16-.16,0-.13.07-.18.06,0,.11-.06a.22.22,0,0,0,.08-.15.15.15,0,0,0,0-.16A.11.11,0,0,0,23.4,1.39Z"/><path class="cls-1" d="M24.77,2s-.06,0-.08.05,0,0,0,.08,0,.1,0,.14-.12,0-.15.06,0,.06,0,.12a.2.2,0,0,1-.09.12c-.11.1-.08.14-.3.38,0,0,0,0-.35.33-.12.12-.17.17-.24.17s-.14,0-.22,0a.24.24,0,0,0-.1.07s0,0,.08-.11a1.11,1.11,0,0,1,.12-.16A2.52,2.52,0,0,1,23.65,3a1.68,1.68,0,0,1,.22-.23c.08-.08.11-.09.15-.16s0-.11.09-.16.1,0,.15-.11,0-.11.08-.15.15,0,.2-.08,0,0,0-.08a.17.17,0,0,1,.15-.07S24.77,1.94,24.77,2Z"/><path class="cls-1" d="M25.64,2.65s-.08.05-.1.14,0,.07,0,.11-.07.09-.11.13-.05.08-.16.24l-.19.25c-.14.19-.17.24-.25.28s-.16.08-.19.05,0-.06.08-.22A1.65,1.65,0,0,1,25,3.24c.15-.18.18-.16.26-.29a.78.78,0,0,1,.14-.2C25.49,2.65,25.63,2.63,25.64,2.65Z"/><path class="cls-1" d="M26.29,3.58a.37.37,0,0,0-.1.14l0,0c0,.05-.09,0-.14.05s0,.11,0,.24,0,0-.11.2l-.11.21c0,.1,0,.09-.05.12s-.17.21-.16.22a.41.41,0,0,0,.22-.14c.06-.09,0-.12.11-.22s.09-.08.14-.17a.31.31,0,0,0,.07-.14c0-.1,0-.14,0-.21l.08-.08c.05-.07.07-.12.08-.13S26.31,3.59,26.29,3.58Z"/><path class="cls-1" d="M27.17,3.52s0,.07,0,.14-.09,0-.16.1-.05.11-.09.24,0,.1,0,.15a1.72,1.72,0,0,1-.18.37,1.81,1.81,0,0,0-.15.3.42.42,0,0,0,0,.25s0-.06,0-.11a.37.37,0,0,1,.14-.1c.1-.06.08-.13.23-.4s.15-.19.15-.27,0-.16,0-.22,0,0,.09-.08.11-.1.12-.14a.19.19,0,0,0,0-.19S27.2,3.5,27.17,3.52Z"/><path class="cls-1" d="M28.07,4.21s0,0-.07.09,0,.12,0,.21-.13.13-.19.29,0,.1,0,.18-.05,0-.17.18a.85.85,0,0,1-.19.17.2.2,0,0,1-.12,0s.13-.09.13-.21a.22.22,0,0,1,0-.08s.05,0,.09-.07a.15.15,0,0,0,.06-.11.65.65,0,0,0,0-.11s.05,0,.11-.11a.45.45,0,0,0,.13-.15c0-.08,0-.1,0-.17A.26.26,0,0,1,28.07,4.21Z"/><path class="cls-1" d="M29.12,4.35a.21.21,0,0,0-.09.1c-.05.08,0,.14,0,.26A1.71,1.71,0,0,1,29,5c-.06.17-.11.3-.13.37a2.64,2.64,0,0,1-.2.43c-.08.14-.15.22-.23.23s-.08,0-.08,0,0,0,.06,0,0-.09,0-.15,0-.1.08-.18a3.62,3.62,0,0,0,.2-.38A1.23,1.23,0,0,1,28.72,5a1.86,1.86,0,0,0,.1-.2c0-.08,0-.08,0-.15A.54.54,0,0,1,29,4.43C29.06,4.38,29.12,4.34,29.12,4.35Z"/><path class="cls-1" d="M30.54,5s0,.13-.13.19-.07,0-.11,0-.06.13-.1.3a3.46,3.46,0,0,1-.14.37L30,6s-.06.21,0,.25.12,0,.15-.06,0-.07,0-.12.06-.1.12-.21a.58.58,0,0,0,.09-.29c0-.08,0-.13,0-.18s0,0,.09-.07a.27.27,0,0,0,.11-.22C30.59,5,30.56,5,30.54,5Z"/><path class="cls-1" d="M31.65,5.25s0,.06-.07.16,0,.09,0,.14-.09.13-.15.23,0,.17-.06.33-.12.12-.21.3-.06.21-.1.21S31,6.55,31,6.48A.34.34,0,0,1,31,6.27c.06-.13.11-.12.13-.22s0-.11,0-.2.05-.06.09-.14a.73.73,0,0,1,.05-.12c0-.07.07-.06.11-.13s0-.09.05-.13S31.63,5.23,31.65,5.25Z"/><path class="cls-1" d="M32.63,5.52a.12.12,0,0,1,0,.13c0,.06,0,.07-.08.11s0,.16,0,.24a1,1,0,0,1,0,.44c0,.21-.06.18-.12.44s0,.26-.11.35-.18.2-.23.17,0-.1,0-.27a.78.78,0,0,1,0-.24.93.93,0,0,1,.09-.22c.06-.16.1-.24.11-.28a1.94,1.94,0,0,0,0-.28,1.23,1.23,0,0,1,0-.29.62.62,0,0,1,.06-.18c0-.08.07-.14.13-.15A.1.1,0,0,1,32.63,5.52Z"/><path class="cls-1" d="M33.72,6s-.06,0-.09.12,0,.1,0,.18-.06.12-.09.19,0,.09,0,.45a1.34,1.34,0,0,1,0,.36s0,.15-.09.15-.1-.13-.11-.17,0-.24,0-.55c0-.15,0-.19,0-.27s.08-.11.11-.21,0-.2,0-.26.16-.05.19-.05S33.71,5.9,33.72,6Z"/><path class="cls-1" d="M35,6.18c-.07.19,0,.35,0,.62s0,.44.05.53a1.13,1.13,0,0,0,.1.13s.05,0,.06.09,0,.07,0,.08h.05s0,0,0-.09.05-.06.07-.09,0-.09,0-.28,0-.16,0-.24a1.94,1.94,0,0,1-.06-.22,1.68,1.68,0,0,1,0-.33c0-.16,0-.24,0-.29a.18.18,0,0,0-.2,0A.26.26,0,0,0,35,6.18Z"/><path class="cls-1" d="M36.35,6a.15.15,0,0,0-.13.11c0,.05,0,.09,0,.16s0,.16,0,.28.07.14.12.35a1.23,1.23,0,0,1,0,.28c0,.21,0,.24,0,.34s.1.12.11.22,0,.13,0,.16,0,0,0,0,0-.09,0-.16,0,0,0-.06a.44.44,0,0,0,.08-.22,2,2,0,0,0,0-.49,1.35,1.35,0,0,0-.07-.27,1.26,1.26,0,0,1-.05-.16,1.26,1.26,0,0,1,0-.28c0-.14,0-.17,0-.19A.17.17,0,0,0,36.35,6Z"/><path class="cls-1" d="M37.26,6s0,.08,0,.1,0,.19,0,.31a.74.74,0,0,0,.07.46c.06.19.13.18.15.32s0,.16,0,.37a.47.47,0,0,0,.13.36s.06,0,.1,0,.08,0,.14-.17a1.08,1.08,0,0,0,.06-.53,1.2,1.2,0,0,0-.12-.44c0-.11-.06-.09-.09-.17s0-.27,0-.51a.38.38,0,0,0-.14-.26c-.06,0-.15,0-.19,0A.16.16,0,0,0,37.26,6Z"/><path class="cls-1" d="M38.19,6c0,.07,0,.09,0,.17s-.06.11,0,.17.09,0,.13.1,0,.15,0,.29,0,.07.1.31.07.38.15.46a.26.26,0,0,1,.08.11c0,.07,0,.13,0,.13a.71.71,0,0,0,0-.15l.06-.14c0-.05,0-.12-.07-.36s-.11-.21-.13-.3,0-.2,0-.31-.08-.08-.12-.17,0-.21-.05-.31-.12-.11-.17-.08S38.19,6,38.19,6Z"/><path class="cls-1" d="M39.84,7.33c.06,0,0-.21,0-.27a1.11,1.11,0,0,0-.1-.28c-.1-.24-.07-.26-.18-.52S39.41,6,39.35,6s-.2-.06-.24,0,0,.12.1.31,0,.27.08.4.11.07.17.18,0,.22.1.35a.4.4,0,0,0,.19.13S39.82,7.34,39.84,7.33Z"/><path class="cls-1" d="M41.2,6.94s-.06-.07-.1-.17a.58.58,0,0,1,0-.21v-.2c0-.12-.07-.14-.25-.42-.06-.08-.11-.18-.22-.37a.77.77,0,0,1-.06-.15c0-.11,0-.16,0-.22a.14.14,0,0,0-.12-.07c-.09,0-.17.11-.19.21s0,.16.1.39a3.54,3.54,0,0,0,.25.46c.21.29.29.24.39.45s.1.31.18.32S41.19,7,41.2,6.94Z"/><path class="cls-1" d="M42.16,5.75a.28.28,0,0,1-.12,0,.15.15,0,0,1,0-.06c0-.06,0-.12,0-.18s-.07-.13-.18-.26-.1-.27-.22-.37-.22-.07-.26-.17a.44.44,0,0,0,0-.15s-.07,0-.13-.08-.13-.19-.18-.18-.07.06-.06.11,0,0,.07.09,0,.11,0,.19.08.07.17.15a.8.8,0,0,1,.14.2,2.35,2.35,0,0,0,.24.37,1.33,1.33,0,0,0,.3.25A3,3,0,0,0,42.16,5.75Z"/><path class="cls-1" d="M43.12,5.24a.84.84,0,0,1-.27-.32.75.75,0,0,1,0-.16.9.9,0,0,0-.27-.35c-.25-.23-.38-.23-.42-.39a.32.32,0,0,0,0-.16c-.06-.08-.13-.07-.2-.16s0-.09-.07-.14a.2.2,0,0,0-.14-.06c-.05,0-.07.06-.09.1s-.08.16,0,.25.13,0,.19.13,0,.13.06.23.09.08.18.13.11.13.24.27.16.1.42.31a1.73,1.73,0,0,0,.21.17A1,1,0,0,0,43.12,5.24Z"/><path class="cls-1" d="M43.36,4s-.08,0-.15-.14a.84.84,0,0,1-.06-.14c-.06-.12-.14-.11-.25-.23s0-.13-.12-.2-.23-.07-.29-.17,0-.13-.07-.16a.17.17,0,0,0-.2.08c0,.1.08.29.19.34l.05,0s0,.11,0,.16.07.05.12.07.14.14.2.22A.55.55,0,0,0,43.36,4Z"/><path class="cls-1" d="M43.7,3.1a1.17,1.17,0,0,1-.45-.28l-.06-.09c-.16-.18-.28-.14-.47-.3s-.14-.18-.23-.19a.2.2,0,0,0-.2.07c0,.11.16.31.26.4A1.65,1.65,0,0,0,43,3,1.19,1.19,0,0,0,43.7,3.1Z"/><path class="cls-1" d="M63.91,46.54c-.12,1.46-.1,2.92-.18,4.38-.08,1.64-.06,1.65-.12,2.34-.09,1.28-.15,1.26-.23,2.29-.1,1.36-.09,2.45-.07,3.93,0,.9,0,.82,0,1.78,0,1.17,0,1.73,0,2.9,0,.71,0,1.28,0,1.79h-.66c0-.47-.07-.77-.08-1.4,0-2.75.3-2.58.2-5.08a16.69,16.69,0,0,1-.07-4c.1-.63.25-1.17.37-2.24s0-1.1.11-2.26c0-.59.23-3.15.21-4.38a1.23,1.23,0,0,0-.22-.81c-.18-.21-.42-.23-.53-.48a.88.88,0,0,1,0-.46c.15-.91.09-1.85.24-2.76a20.87,20.87,0,0,0,.09-2.73c0-1.54-.07-2.58-.15-3.7-.14-2.06-.19-4.12-.29-6.17-.16-3.26-.2-3.88-.26-5.62-.09-2.67-.13-4-.11-5.59,0-1,0-1.93,0-2.9,0-.81-.16-1.62-.1-2.43a1.33,1.33,0,0,0-.07-.68c-.14-.34-.4-.47-.34-.6s.3-.17.47-.09.17.17.27.58a4.79,4.79,0,0,1,.13.74c0,.82.14,1.64.12,2.45,0,.23,0,1.11,0,2.88,0,2.34.13,2.86.17,5.58,0,.58,0,.45,0,1.22,0,.58,0,2.67.11,4.48s.11,1.64.36,6.11c.07,1.25.1,1.89.12,2.74a36.52,36.52,0,0,1-.06,3.73c-.05.6-.1,1.19-.16,1.78,0,.21,0,.43,0,.64,0,.5-.05.5,0,.55.12.37.62.34.74.74a2.1,2.1,0,0,1,0,.25A4.06,4.06,0,0,1,63.91,46.54Z"/><path class="cls-1" d="M63.4,112.3c0,.23-.19.46-.28.44s0-.3-.2-.42-.61.05-.88.17c-.59.27-1.25.36-1.86.58l-1.86.65a14.57,14.57,0,0,1-3.48.55c-1,0-.9,0-1.66,0-1.17.11-1.54.33-2.5.4a9,9,0,0,1-2-.12c-.85-.1-2.06-.14-4.48-.2-1.74,0-2.95,0-4.89,0-1.53,0-2.2,0-3,.09a13.15,13.15,0,0,0-3.08.44c-.61.19-1,.39-2,.63a12,12,0,0,1-1.43.28,8,8,0,0,1-3.28-.51c-1.56-.42-.94-.13-3.92-.81-1.68-.39-2.56-.59-3.76-.94a41.75,41.75,0,0,1-5.38-1.93c-.18-.08-1.32-.6-2.83-1.14A8.68,8.68,0,0,0,9.06,110c-1-.13-1.45.1-2-.29a1.16,1.16,0,0,0-.67-.36c-.27,0-.34.15-.63.12s-.45-.23-.6-.14-.07.1-.13.17-.26.19-.67.13a.17.17,0,0,1-.06-.06,1.09,1.09,0,0,1-.13-.85,9.73,9.73,0,0,0,0-1.08c0-1,0-1,0-1.63s.17-.77.21-1.51,0-.61,0-1.39.09-.69.08-1.27c0-.34.07-.68.07-1a.76.76,0,0,1,0-.21.31.31,0,0,1,.09-.18.18.18,0,0,1,.1,0,.23.23,0,0,1,.26.06s0,0,0,0,0,.17,0,.21a7.52,7.52,0,0,0-.16,2.15c0,1.16.17,1,.13,2s-.24,1-.25,2a9.24,9.24,0,0,1,0,1.72c0,.18-.11.57,0,.62s.18-.16.44-.22.27,0,.57.07a4.48,4.48,0,0,0,.64-.06,2.56,2.56,0,0,1,.75.16l1,.27a6.3,6.3,0,0,0,1,.11,5.43,5.43,0,0,1,2,.79c1.13.53,1.05.31,2.68,1,1.15.48,1.18.59,2,.9a16.62,16.62,0,0,0,2.45.64c1.79.37,1.47.45,4.34,1.16,2.68.67,1.88.33,4.76,1a7.15,7.15,0,0,0,2.7.37,24.39,24.39,0,0,0,2.53-.71c.23-.06,1.1-.29,2.13-.46a26,26,0,0,1,3.8-.3c1.24,0,2.27,0,3,0,.43,0,1.42,0,2.68.13,1.92.13,2.05.24,3,.21a10.35,10.35,0,0,1,1.58,0,10,10,0,0,0,1.36.14,8.66,8.66,0,0,0,1.28-.18l1.57-.27c1.34-.24,1.45,0,3-.15a13,13,0,0,0,2.81-.59c.7-.24.73-.32,1.4-.51a18.77,18.77,0,0,1,2.06-.52c.18,0,.58,0,.63-.22a.28.28,0,0,0-.07-.23,8.49,8.49,0,0,1-.48-1.88c-.1-.48-.15-.74-.2-1.12a5.17,5.17,0,0,1-.05-1.46c.05-.43.12-.36.22-.92s0-.67.13-1.52a6.07,6.07,0,0,0,.13-.94,1.2,1.2,0,0,1,0-.5v0a1,1,0,0,1,.19-.33c.09-.11.19-.18.25-.16a0,0,0,0,1,0,0,8.56,8.56,0,0,1-.16,1.83c-.07.81-.12,1.64-.21,2.45a5.17,5.17,0,0,0-.06,1.38,11.4,11.4,0,0,0,.33,1.24c.27,1.21,0,1.25.28,1.91A1.17,1.17,0,0,1,63.4,112.3Z"/><path class="cls-1" d="M5,99.93c0-.13,0-.34.06-.59,0,0,.09-1.14.14-2.07A18.67,18.67,0,0,0,4.89,94c-.2-1.61,0-1.56-.19-4.31s-.27-2.55-.41-5.09c-.13-2.25-.13-4-.12-4.95,0-2.88.16-2.85.16-5.32,0-2.69-.16-2.69-.21-6.21,0-2,0-2,0-5,0-1.57,0-1.7-.06-4.57C4,53.7,4,54.09,4,52.71c-.11-3.05-.34-5.45-.4-6.09-.09-.94-.1-.84-.33-3.09-.18-1.68-.34-3.31-.44-4.36a30,30,0,0,1-.34-3.26,6.86,6.86,0,0,0-.55-3.7c-.22-.42-.31-.42-.33-.41-.28.07.1,2.31.58,5.94.34,2.56.68,5.12.91,8,.12,1.43.16,2.46.25,4.53.1,2.24.22,5.6.25,10.08.05,6.23-.13,5.94,0,9.05.1,2,.24,3.28.19,5.61,0,1.84-.15,2.23-.22,4.8,0,1.83-.09,3.19,0,5,.1,2.14.24,1.88.51,5.38.23,3,.11,3,.33,4.56a19.82,19.82,0,0,1,.27,2.76,16.71,16.71,0,0,1-.11,2.26Z"/><path class="cls-4" d="M62.92,111.82c-.05.18-.45.2-.63.22a18.77,18.77,0,0,0-2.06.52c-.67.19-.7.27-1.4.51a13,13,0,0,1-2.81.59c-1.51.16-1.62-.09-3,.15l-1.57.27a8.66,8.66,0,0,1-1.28.18,10,10,0,0,1-1.36-.14,10.35,10.35,0,0,0-1.58,0c-1,0-1.12-.08-3-.21-1.26-.09-2.25-.12-2.68-.13-.71,0-1.74,0-3,0a26,26,0,0,0-3.8.3c-1,.17-1.9.4-2.13.46a24.39,24.39,0,0,1-2.53.71,7.15,7.15,0,0,1-2.7-.37c-2.88-.69-2.08-.35-4.76-1-2.87-.71-2.55-.79-4.34-1.16a16.62,16.62,0,0,1-2.45-.64c-.83-.31-.86-.42-2-.9-1.63-.67-1.55-.45-2.68-1a5.43,5.43,0,0,0-2-.79,6.3,6.3,0,0,1-1-.11l-1-.27a2.56,2.56,0,0,0-.75-.16,4.48,4.48,0,0,1-.64.06c-.3,0-.37-.11-.57-.07s-.35.26-.44.22,0-.44,0-.62a9.24,9.24,0,0,0,0-1.72c0-1,.21-1,.25-2s-.15-.8-.13-2A7.52,7.52,0,0,1,5,100.63s.07-.14,0-.21,0,0,0,0,.16,0,.3,0c.37.12.35.07.52.14a1.81,1.81,0,0,1,.69.54c.3.35.21.42.52.76a1.51,1.51,0,0,1,.35.42c.08.18,0,.23.15.44a2.38,2.38,0,0,0,.27.44c.13.18.21.27.36.45.3.38.31.41.4.51a2.13,2.13,0,0,0,1.05.55l1.35.51a12.38,12.38,0,0,0,1.52.6,3,3,0,0,1,.5.13c.33.11.42.17.63.24.5.17.55,0,1.06.16s.37.2.84.34a4.36,4.36,0,0,0,.59.14,12.77,12.77,0,0,1,2.07.68c.75.26.57.13,2.39.62,1.13.31,1.06.32,2,.56s1.85.44,2.29.53l1.46.29c.73.13,1.19.21,1.81.29.45.06.92.08,1.86.13a3.85,3.85,0,0,0,1.18-.16,1.09,1.09,0,0,0,.19-.08l.11-.08c.1-.11,0-.26.07-.36s.31-.14.53-.13a10.84,10.84,0,0,1,1.17.13c.37,0,.31,0,.92-.07.45,0,.62,0,1.25,0,.29,0,.7,0,1.21,0,.34,0,1.1,0,1.78,0h.41l1,0c1.12,0,1.26,0,2.18,0,.69,0,1.57,0,2.64.1.65.05.61.06,2.07.2s2.08.19,3.07.27a23.13,23.13,0,0,0,2.64.09,2.75,2.75,0,0,0,.66,0,2.53,2.53,0,0,0,.49-.13,6.45,6.45,0,0,0,1.12-.55l.65-.37c.69-.41,1.18-.66,1.41-.78a26,26,0,0,0,3.46-2.43c.71-.59,1.32-1.21,2.51-2.4a1.2,1.2,0,0,0,0,.5,6.07,6.07,0,0,1-.13.94c-.12.85,0,.87-.13,1.52s-.17.49-.22.92a5.17,5.17,0,0,0,.05,1.46c0,.38.1.64.2,1.12a8.49,8.49,0,0,0,.48,1.88A.28.28,0,0,1,62.92,111.82Z"/><path class="cls-1" d="M42.2,1l2.35,1.21,2,.8L51.24,4.7l1.64.45,2.46,1.06,4.09,2,1.38.83.29.25s.31,0,.36.19.15.09.15.09l.17.27.21.23,0,.53-.25-.21-.23-.23s-.12-.35-.26-.3-.13-.14-.13-.14l-.23-.11-.26-.22-.59-.25-1.16-.62-1.31-.75-1.33-.66-1.34-.67-1.89-.76-1.24-.48-1.72-.62L48.3,4.06l-2.61-.84-1.16-.48L43.13,2l-1.06-.54Z"/></g></g></svg>